<svg width="461" height="464" viewBox="0 0 461 464" fill="none" xmlns="http://www.w3.org/2000/svg">
<path d="M299.945 429.599H257.33C257.208 429.599 257.091 429.55 257.004 429.463C256.918 429.376 256.869 429.258 256.869 429.135C256.869 429.012 256.918 428.894 257.004 428.807C257.091 428.72 257.208 428.671 257.33 428.671H299.945C300.006 428.671 300.065 428.683 300.121 428.706C300.177 428.73 300.228 428.764 300.271 428.807C300.314 428.85 300.348 428.901 300.371 428.957C300.394 429.014 300.406 429.074 300.406 429.135C300.406 429.196 300.394 429.256 300.371 429.313C300.348 429.369 300.314 429.42 300.271 429.463C300.228 429.506 300.177 429.54 300.121 429.564C300.065 429.587 300.006 429.599 299.945 429.599Z" fill="#0D1D54"/>
<path d="M182.196 429.599H139.591C139.468 429.599 139.351 429.55 139.265 429.463C139.178 429.376 139.13 429.258 139.13 429.135C139.13 429.012 139.178 428.894 139.265 428.807C139.351 428.72 139.468 428.671 139.591 428.671H182.206C182.328 428.672 182.445 428.722 182.53 428.81C182.616 428.898 182.663 429.017 182.662 429.14C182.661 429.263 182.611 429.38 182.524 429.466C182.436 429.553 182.319 429.6 182.196 429.599Z" fill="#0D1D54"/>
<path d="M273.152 432.448H206.675C206.553 432.448 206.436 432.399 206.349 432.312C206.263 432.225 206.214 432.107 206.214 431.984C206.214 431.861 206.263 431.743 206.349 431.656C206.436 431.569 206.553 431.52 206.675 431.52H273.152C273.274 431.52 273.391 431.569 273.478 431.656C273.564 431.743 273.613 431.861 273.613 431.984C273.613 432.107 273.564 432.225 273.478 432.312C273.391 432.399 273.274 432.448 273.152 432.448Z" fill="#0D1D54"/>
<path d="M136.262 432.448H119.012C118.89 432.448 118.772 432.399 118.686 432.312C118.599 432.225 118.551 432.107 118.551 431.984C118.551 431.861 118.599 431.743 118.686 431.656C118.772 431.569 118.89 431.52 119.012 431.52H136.262C136.323 431.52 136.383 431.532 136.439 431.555C136.495 431.579 136.546 431.613 136.588 431.656C136.631 431.699 136.665 431.75 136.688 431.806C136.711 431.863 136.723 431.923 136.723 431.984C136.723 432.045 136.711 432.105 136.688 432.162C136.665 432.218 136.631 432.269 136.588 432.312C136.546 432.355 136.495 432.389 136.439 432.413C136.383 432.436 136.323 432.448 136.262 432.448Z" fill="#0D1D54"/>
<path d="M147.778 248.277C147.778 248.277 163.378 266.253 200.636 263.663C237.894 261.074 248.285 240.463 248.285 240.463L239.277 198.471L163.434 208.188L147.778 248.277Z" fill="#9AB3DA"/>
<path d="M222.008 388.693L221.409 402.613C220.365 403.22 219.18 403.539 217.975 403.539C216.769 403.539 215.584 403.22 214.54 402.613L213.508 387.663L222.008 388.693Z" fill="#ECBDBB"/>
<path d="M209.395 414.816C209.126 419.289 209.502 423.778 210.511 428.142H213.517C213.517 428.142 214.891 419.994 216.439 416.366C217.988 412.737 210.852 411.596 209.395 414.816Z" fill="#0D1D54"/>
<path d="M213.507 400.534C213.507 400.534 216.771 402.177 222.432 400.534C222.432 400.534 231.708 416.264 234.879 419.094C238.051 421.924 245.021 425.052 247.409 426.351C249.797 427.65 231.44 428.597 227.125 427.817C222.81 427.038 219.224 421.6 215.619 418.658C213.74 417.045 211.626 415.733 209.349 414.77C209.349 414.77 210.336 406.752 213.507 400.534Z" fill="#0D1D54"/>
<path d="M236.032 202.657C236.032 202.657 241.61 232.121 240.836 244.305C240.061 256.49 233.367 308.337 233.367 308.337L224.867 390.001C224.867 390.001 215.213 391.857 210.705 389.352C210.705 389.352 209.285 366.541 207.745 354.617C206.205 342.692 207.745 331.287 208.778 321.821C208.778 321.821 202.213 282.418 200.664 247.683C199.115 212.948 203.753 193.766 217.149 192.467C230.546 191.168 236.032 202.657 236.032 202.657Z" fill="#0D1D54"/>
<path d="M215.057 387.691C214.942 387.691 214.831 387.649 214.746 387.572C214.661 387.494 214.607 387.388 214.596 387.273C214.466 386.03 211.332 356.742 211.507 349.541C211.682 342.339 213.72 322.23 213.738 322.025L208.206 246.458C208.202 246.397 208.21 246.336 208.229 246.278C208.248 246.22 208.278 246.167 208.318 246.121C208.399 246.028 208.513 245.97 208.635 245.962C208.757 245.953 208.878 245.994 208.97 246.075C209.063 246.156 209.12 246.27 209.128 246.393L214.66 322.044C214.66 322.322 212.595 342.404 212.429 349.568C212.263 356.733 215.481 386.874 215.518 387.18C215.53 387.302 215.495 387.424 215.419 387.52C215.343 387.615 215.233 387.677 215.112 387.691H215.066H215.057Z" fill="#9AB3DA"/>
<path d="M163.876 388.693L162.272 403.68C161.228 404.287 160.043 404.606 158.838 404.606C157.632 404.606 156.447 404.287 155.403 403.68V387.653L163.876 388.693Z" fill="#ECBDBB"/>
<path d="M150.221 415.827C149.952 420.3 150.328 424.789 151.337 429.154H154.343C154.343 429.154 155.717 421.006 157.266 417.377C158.814 413.749 151.687 412.626 150.221 415.827Z" fill="#0D1D54"/>
<path d="M154.343 401.573C154.343 401.573 157.607 403.216 163.268 401.573C163.268 401.573 172.543 417.303 175.715 420.133C178.886 422.964 185.857 426.091 188.245 427.39C190.633 428.69 172.276 429.636 167.961 428.857C163.646 428.077 160.059 422.639 156.454 419.697C154.576 418.084 152.461 416.772 150.185 415.809C150.185 415.809 151.208 407.791 154.343 401.573Z" fill="#0D1D54"/>
<path d="M207.395 218.906L205.145 249.409C205.145 249.409 185.184 307.818 181.062 320.522C176.941 333.226 167.804 388.09 167.804 388.09C167.804 388.09 165.038 390.632 159.045 390.632C153.052 390.632 151.669 387.746 151.669 387.746C151.669 387.746 150.378 346.441 151.669 335.778C152.96 325.116 157.081 309.08 157.339 301.563C157.597 294.046 157.081 252.834 158.888 235.675C160.695 218.516 168.671 192.18 187.092 192.282C205.514 192.384 208.289 206.786 207.395 218.906Z" fill="#0D1D54"/>
<path d="M156.168 386.475C156.108 386.474 156.048 386.461 155.993 386.436C155.937 386.412 155.887 386.376 155.845 386.332C155.803 386.289 155.77 386.237 155.748 386.18C155.726 386.123 155.715 386.063 155.717 386.002C155.717 385.751 156.067 360.788 156.574 347.796C156.961 337.811 158.851 325.18 160.096 316.828C160.493 314.174 160.834 311.882 161.018 310.258C161.802 304.143 163.415 291.42 163.415 281.49C163.415 271.737 167.325 220.623 167.362 220.103C167.365 220.042 167.381 219.981 167.408 219.926C167.435 219.871 167.473 219.822 167.52 219.782C167.566 219.742 167.62 219.712 167.679 219.694C167.737 219.676 167.799 219.67 167.859 219.676C167.92 219.681 167.979 219.698 168.033 219.725C168.087 219.753 168.136 219.791 168.175 219.838C168.214 219.884 168.244 219.938 168.263 219.997C168.282 220.055 168.289 220.116 168.284 220.177C168.284 220.688 164.337 271.774 164.337 281.49C164.337 291.513 162.715 304.273 161.931 310.407C161.719 312.04 161.378 314.341 161.009 317.005C159.764 325.357 157.883 337.94 157.496 347.87C156.989 360.862 156.639 385.797 156.639 386.048C156.629 386.166 156.575 386.276 156.488 386.356C156.4 386.435 156.286 386.478 156.168 386.475Z" fill="#9AB3DA"/>
<path d="M205.145 249.873C205.051 249.872 204.96 249.843 204.883 249.788C204.807 249.733 204.748 249.657 204.716 249.568C204.684 249.479 204.68 249.383 204.704 249.291C204.728 249.2 204.779 249.118 204.85 249.057L208.39 246.078C209.134 245.45 209.743 244.676 210.179 243.803C210.615 242.93 210.869 241.977 210.926 241.002L212.29 216.558C212.298 216.435 212.353 216.32 212.445 216.238C212.537 216.156 212.657 216.115 212.779 216.122C212.901 216.129 213.016 216.185 213.097 216.278C213.178 216.37 213.22 216.491 213.212 216.614L211.848 241.057C211.786 242.16 211.5 243.239 211.009 244.227C210.517 245.215 209.83 246.091 208.99 246.802L205.449 249.78C205.362 249.847 205.254 249.88 205.145 249.873Z" fill="#9AB3DA"/>
<path d="M205.145 249.873C205.024 249.864 204.912 249.807 204.833 249.715C204.753 249.623 204.713 249.503 204.721 249.382L206.971 217.263C206.974 217.203 206.99 217.144 207.016 217.089C207.043 217.035 207.08 216.986 207.125 216.946C207.171 216.906 207.224 216.876 207.281 216.857C207.339 216.839 207.399 216.831 207.459 216.837C207.58 216.846 207.692 216.903 207.771 216.995C207.851 217.087 207.891 217.207 207.883 217.328L205.606 249.437C205.599 249.555 205.547 249.666 205.462 249.747C205.376 249.829 205.263 249.874 205.145 249.873Z" fill="#9AB3DA"/>
<path d="M227.033 107.574C227.033 107.574 235.663 116.26 245.621 154.447L244.588 175.448C244.588 175.448 237.59 178.603 233.469 177.044C229.348 175.485 225.613 165.119 222.525 144.768C220.762 132.186 222.317 119.36 227.033 107.574Z" fill="#98BEFF"/>
<path d="M242.938 153.584C240.679 156.294 239.085 159.502 238.284 162.946C237.483 166.391 237.498 169.977 238.328 173.415C240.421 182.157 246.358 183.521 246.358 183.521L252.886 179.976C252.886 179.976 256.279 171.466 255.588 163.17C254.896 154.874 251.282 150.336 251.282 150.336L242.938 153.584Z" fill="#1C70FF"/>
<path d="M307.137 139.2C308.151 137.548 307.93 136.416 306.786 136.843C306.27 137.019 305.145 137.539 303.854 138.179C304.776 136.453 304.011 135.098 302.536 135.766C301.929 136.074 301.341 136.418 300.775 136.797C300.904 135.488 300.056 134.764 298.931 135.479C297.082 136.905 295.315 138.436 293.639 140.063L291.204 139.692C292.032 138.35 292.765 136.951 293.399 135.507C293.657 134.514 293.058 133.651 292.412 133.948C291.951 134.198 286.936 138.81 284.114 141.455C281.68 142.597 279.357 143.794 279.357 143.794L250.212 154.141C250.212 154.141 246.607 164.349 249.696 173.406C249.696 173.406 282.316 149.213 284.548 148.174C286.779 147.134 300.083 146.448 301.807 145.928C303.532 145.408 308.852 140.221 309.183 139.014C309.331 138.523 308.381 138.736 307.137 139.2Z" fill="#ECBDBB"/>
<path d="M301.752 142.058H301.669L293.546 140.499C293.424 140.476 293.316 140.405 293.246 140.301C293.176 140.197 293.15 140.07 293.173 139.947C293.196 139.824 293.267 139.715 293.37 139.645C293.473 139.574 293.599 139.548 293.722 139.571L301.706 141.102L306.962 138.745C307.017 138.716 307.078 138.698 307.141 138.693C307.204 138.688 307.267 138.696 307.326 138.717C307.386 138.738 307.441 138.77 307.487 138.813C307.534 138.856 307.571 138.907 307.597 138.965C307.623 139.023 307.636 139.085 307.637 139.149C307.638 139.212 307.626 139.275 307.602 139.333C307.578 139.392 307.542 139.445 307.497 139.489C307.452 139.533 307.398 139.567 307.34 139.59L301.955 142.003C301.893 142.037 301.823 142.056 301.752 142.058Z" fill="#404B7C"/>
<path d="M300.95 140.648C300.852 140.648 300.756 140.618 300.676 140.559C300.596 140.501 300.537 140.419 300.507 140.325C300.477 140.23 300.478 140.129 300.51 140.035C300.541 139.941 300.602 139.86 300.683 139.803L303.596 137.771C303.696 137.708 303.817 137.687 303.933 137.711C304.048 137.735 304.15 137.803 304.218 137.9C304.285 137.998 304.313 138.118 304.295 138.235C304.277 138.353 304.215 138.459 304.122 138.532L301.208 140.564C301.132 140.617 301.042 140.647 300.95 140.648Z" fill="#404B7C"/>
<path d="M297.88 139.636C297.784 139.638 297.69 139.609 297.611 139.554C297.532 139.499 297.472 139.42 297.439 139.329C297.407 139.238 297.403 139.139 297.429 139.046C297.455 138.953 297.51 138.871 297.585 138.81L300.48 136.416C300.574 136.337 300.695 136.299 300.817 136.311C300.878 136.316 300.936 136.334 300.99 136.362C301.044 136.391 301.091 136.429 301.13 136.476C301.169 136.523 301.198 136.577 301.216 136.636C301.234 136.694 301.24 136.755 301.234 136.816C301.229 136.877 301.211 136.936 301.183 136.99C301.155 137.044 301.116 137.092 301.07 137.131L298.175 139.534C298.091 139.602 297.987 139.638 297.88 139.636Z" fill="#404B7C"/>
<path d="M200.636 96.9388L181.837 113.402C181.837 113.402 162.521 209.57 163.286 209.57C164.051 209.57 189.213 217.607 212.051 213.199C234.889 208.791 239.01 202.833 239.01 202.833L227.946 140.657L225.503 110.033L200.636 96.9388Z" fill="#9AB3DA"/>
<path d="M197.308 214.971C186.234 214.83 175.223 213.271 164.54 210.331C163.932 210.173 163.406 210.034 163.295 210.025C163.235 210.025 163.176 210.013 163.12 209.989C163.065 209.966 163.015 209.932 162.973 209.888C162.931 209.845 162.897 209.794 162.875 209.738C162.853 209.682 162.842 209.621 162.844 209.561C162.846 209.437 162.897 209.319 162.985 209.232C163.072 209.145 163.191 209.097 163.314 209.097C163.805 209.171 164.289 209.286 164.761 209.44C187.313 215.342 202.895 214.498 211.986 212.735C234.382 208.41 238.614 202.619 238.65 202.527C238.683 202.473 238.727 202.427 238.778 202.391C238.829 202.355 238.887 202.33 238.949 202.317C239.01 202.304 239.073 202.304 239.134 202.317C239.196 202.329 239.254 202.354 239.305 202.39C239.357 202.426 239.4 202.472 239.433 202.526C239.466 202.579 239.488 202.639 239.498 202.701C239.507 202.763 239.504 202.827 239.488 202.888C239.473 202.949 239.445 203.006 239.406 203.056C239.231 203.306 234.916 209.227 212.161 213.616C207.264 214.538 202.29 214.992 197.308 214.971Z" fill="#404B7C"/>
<path d="M188.706 208.698C180.269 208.698 174.461 208.15 174.313 208.132C174.253 208.126 174.194 208.108 174.14 208.079C174.087 208.05 174.039 208.011 174.001 207.963C173.962 207.916 173.933 207.861 173.916 207.803C173.898 207.744 173.892 207.682 173.898 207.621C173.904 207.56 173.922 207.501 173.951 207.447C173.98 207.393 174.019 207.346 174.066 207.307C174.113 207.268 174.167 207.239 174.226 207.221C174.284 207.204 174.345 207.198 174.406 207.204C174.774 207.204 211.47 210.693 234.953 199.984C235.063 199.942 235.184 199.944 235.293 199.989C235.401 200.035 235.488 200.12 235.537 200.227C235.585 200.335 235.59 200.457 235.552 200.569C235.514 200.681 235.435 200.773 235.331 200.828C220.957 207.399 201.715 208.698 188.706 208.698Z" fill="#404B7C"/>
<path d="M200.636 172.766C198.405 211.992 183.635 244.315 183.635 244.315C169.04 252.611 147.778 248.286 147.778 248.286C147.778 248.286 161.664 191.957 165.093 169.137C168.523 146.318 171.151 112.631 171.151 112.631C171.151 112.631 185.377 100.076 195.501 96.2151C195.04 101.059 193.325 121.104 195.049 135.442C197.031 151.849 200.636 172.766 200.636 172.766Z" fill="#98BEFF"/>
<path d="M205.145 96.2151C212.811 99.231 220.146 103.038 227.033 107.574V113.921C227.033 113.921 232.445 132.064 232.704 135.265C232.962 138.467 230.26 149.779 230.26 149.779C230.26 149.779 246.488 212.883 248.285 240.38C241.648 239.931 235.058 238.935 228.582 237.401C228.582 237.401 228.582 213.858 227.771 196.402C227.366 186.584 226.16 176.817 224.166 167.198C224.166 167.198 214.374 126.106 212.06 117.466C209.746 108.827 205.145 96.2151 205.145 96.2151Z" fill="#98BEFF"/>
<path d="M235.838 173.156C235.749 173.156 235.662 173.126 235.592 173.07C235.521 173.015 235.472 172.937 235.451 172.849C232.372 159.662 229.919 150.021 229.873 149.918C229.857 149.854 229.857 149.788 229.873 149.724C229.873 149.612 232.556 138.476 232.307 135.33C232.058 132.184 226.711 114.209 226.655 113.986C226.65 113.949 226.65 113.912 226.655 113.875V109.402C226.655 109.296 226.697 109.195 226.771 109.12C226.846 109.045 226.947 109.003 227.052 109.003C227.157 109.003 227.258 109.045 227.332 109.12C227.406 109.195 227.448 109.296 227.448 109.402V113.81C227.835 115.118 232.86 132.036 233.109 135.219C233.358 138.402 230.961 148.582 230.675 149.761C230.943 150.8 233.321 160.126 236.207 172.608C236.219 172.659 236.222 172.712 236.213 172.764C236.205 172.816 236.187 172.866 236.159 172.911C236.132 172.956 236.096 172.995 236.054 173.026C236.011 173.057 235.963 173.079 235.912 173.091H235.82L235.838 173.156Z" fill="#005EFE"/>
<path d="M198.746 92.8C193.555 93.6166 189.047 105.244 187.111 115.527L192.929 120.881L187.111 131.247C187.111 131.247 195.824 153.194 200.627 172.719C200.627 172.719 198.396 140.926 196.847 123.378C197.151 105.365 205.385 104.706 212.042 121.652C218.496 140.406 224.147 167.188 224.147 167.188C224.147 167.188 224.83 140.406 223.465 125.976L214.881 119.322L217.454 112.585C217.454 112.585 208.621 91.2781 198.746 92.8Z" fill="#98BEFF"/>
<path d="M224.157 167.634C224.105 167.633 224.053 167.621 224.006 167.6C223.958 167.579 223.915 167.548 223.879 167.511C223.843 167.473 223.815 167.428 223.796 167.379C223.777 167.33 223.768 167.278 223.769 167.226C223.769 166.957 224.433 140.509 223.096 126.227L214.642 119.712C214.575 119.66 214.526 119.588 214.503 119.506C214.48 119.424 214.483 119.337 214.513 119.257L217.03 112.669C215.062 108.155 212.587 103.883 209.654 99.9364C209.589 99.8527 209.56 99.7465 209.573 99.6412C209.586 99.5359 209.64 99.4401 209.723 99.3749C209.806 99.3097 209.911 99.2804 210.016 99.2934C210.121 99.3065 210.216 99.3608 210.281 99.4445C213.268 103.493 215.783 107.874 217.776 112.501C217.814 112.597 217.814 112.703 217.776 112.798L215.305 119.294L223.659 125.79C223.703 125.823 223.739 125.865 223.766 125.913C223.793 125.961 223.81 126.014 223.815 126.069C225.18 140.36 224.507 167.068 224.507 167.337C224.486 167.417 224.441 167.488 224.379 167.542C224.316 167.595 224.238 167.627 224.157 167.634Z" fill="#005EFE"/>
<path d="M198.654 165.704C198.569 165.703 198.486 165.675 198.418 165.623C198.35 165.571 198.3 165.498 198.276 165.416C193.454 148.378 186.816 131.609 186.751 131.442C186.726 131.388 186.712 131.33 186.712 131.27C186.712 131.211 186.726 131.152 186.751 131.099L192.412 121.002L186.825 115.861C186.775 115.814 186.738 115.756 186.717 115.691C186.696 115.626 186.692 115.557 186.705 115.49C187.714 109.64 189.578 103.974 192.237 98.6742C192.258 98.6223 192.29 98.5755 192.33 98.5368C192.371 98.4981 192.419 98.4684 192.471 98.4497C192.524 98.4309 192.58 98.4236 192.635 98.428C192.691 98.4325 192.745 98.4487 192.794 98.4757C192.843 98.5026 192.885 98.5396 192.919 98.5842C192.953 98.6289 192.977 98.6802 192.99 98.7349C193.002 98.7895 193.003 98.8462 192.993 98.9013C192.982 98.9565 192.96 99.0087 192.928 99.0547C190.338 104.215 188.515 109.731 187.516 115.425L193.168 120.631C193.234 120.692 193.277 120.774 193.29 120.864C193.304 120.953 193.287 121.044 193.242 121.123L187.516 131.331C188.245 133.187 194.431 149.074 198.995 165.203C199.024 165.303 199.012 165.412 198.962 165.504C198.912 165.596 198.828 165.664 198.728 165.694L198.654 165.704Z" fill="#005EFE"/>
<path d="M171.151 112.622C165.296 117.373 161.055 133.196 171.151 145.548C180.177 156.591 204.241 178.594 209.515 179.633C214.789 180.672 220.072 173.926 220.072 173.926C220.072 173.926 220.589 158.911 218.91 155.728C218.497 154.837 217.887 154.053 217.129 153.435C216.37 152.816 215.482 152.378 214.531 152.155L211.055 154.224C211.055 154.224 195.999 131.952 188.134 124.027C183.241 119.178 177.478 115.308 171.151 112.622Z" fill="#98BEFF"/>
<path d="M210.659 180.143C210.25 180.143 209.842 180.102 209.442 180.023C203.965 178.946 180.242 157.036 171.372 146.438C171.336 146.399 171.308 146.352 171.291 146.301C171.273 146.25 171.266 146.196 171.269 146.142C171.273 146.088 171.288 146.036 171.312 145.988C171.336 145.94 171.37 145.897 171.411 145.863C171.452 145.828 171.5 145.803 171.551 145.787C171.603 145.772 171.657 145.767 171.71 145.773C171.763 145.779 171.814 145.796 171.861 145.823C171.908 145.849 171.948 145.885 171.981 145.928C181.625 157.445 204.573 178.26 209.598 179.243C214.208 180.171 219.012 174.603 219.694 173.787C219.694 172.293 220.1 158.827 218.579 155.923C218.197 155.112 217.646 154.394 216.964 153.817C216.281 153.24 215.483 152.819 214.623 152.582L211.276 154.577C211.19 154.627 211.088 154.643 210.99 154.62C210.893 154.598 210.807 154.539 210.751 154.456C210.603 154.234 195.621 132.101 187.885 124.315C184.277 120.746 180.189 117.704 175.742 115.276C175.663 115.22 175.606 115.136 175.584 115.04C175.562 114.945 175.575 114.844 175.622 114.758C175.669 114.672 175.746 114.606 175.837 114.573C175.929 114.54 176.03 114.543 176.12 114.58C180.632 117.046 184.778 120.135 188.438 123.758C195.731 131.089 209.34 150.976 211.193 153.705L214.347 151.849C214.424 151.801 214.515 151.781 214.605 151.793C215.619 152.024 216.567 152.486 217.377 153.142C218.187 153.798 218.838 154.632 219.279 155.579C220.985 158.827 220.506 173.36 220.487 173.981C220.484 174.066 220.455 174.147 220.404 174.213C220.183 174.464 215.656 180.143 210.659 180.143Z" fill="#005EFE"/>
<path d="M211.35 152.526L219.482 147.366C219.482 147.366 224.645 149.371 226.259 157.148C227.872 164.924 225.337 173.61 225.337 173.61C225.337 173.61 217.73 179.577 217.73 179.382C213.894 176.671 211.021 172.795 209.534 168.321C206.666 160.219 211.35 152.526 211.35 152.526Z" fill="#1C70FF"/>
<path d="M219.556 151.153L253.67 133.01C253.67 133.01 262.023 126.115 265.656 124.111C269.289 122.106 270.81 122.422 270.681 123.396C270.552 124.371 266.818 126.96 266.237 128.909C265.656 130.857 269.279 130.208 270.69 129.948C272.101 129.688 279.504 127.164 281.883 126.189C284.262 125.215 284.326 127.229 283.727 128.259C283.128 129.289 279.993 130.783 279.993 130.783C279.543 132.051 278.826 133.207 277.891 134.17C277.497 135.409 276.676 136.466 275.577 137.149C274.853 138.279 273.971 139.298 272.958 140.174C271.667 141.102 256.961 141.102 255.062 141.381C253.163 141.659 229.901 164.367 224.24 169.722C224.24 169.731 215.619 164.033 219.556 151.153Z" fill="#ECBDBB"/>
<path d="M272.276 134.43C272.154 134.453 272.027 134.427 271.924 134.357C271.821 134.286 271.75 134.177 271.727 134.054C271.704 133.931 271.73 133.804 271.8 133.7C271.87 133.597 271.978 133.525 272.101 133.502C273.945 132.769 278.057 130.996 278.057 130.996L278.416 131.85C278.416 131.85 274.249 133.623 272.442 134.356C272.392 134.391 272.335 134.417 272.276 134.43Z" fill="#404B7C"/>
<path d="M271.99 137.112C271.868 137.13 271.743 137.099 271.644 137.025C271.544 136.951 271.478 136.841 271.46 136.718C271.442 136.595 271.473 136.469 271.546 136.369C271.619 136.269 271.729 136.202 271.852 136.184C273.422 135.654 274.961 135.034 276.462 134.328C276.57 134.285 276.691 134.285 276.799 134.328C276.908 134.371 276.996 134.454 277.046 134.56C277.097 134.666 277.105 134.787 277.07 134.899C277.035 135.011 276.96 135.105 276.858 135.163C275.332 135.894 273.765 136.535 272.165 137.084L271.99 137.112Z" fill="#404B7C"/>
<path d="M270.432 139.395C270.371 139.402 270.31 139.396 270.252 139.379C270.193 139.362 270.139 139.333 270.091 139.295C269.995 139.218 269.934 139.105 269.92 138.982C269.907 138.859 269.942 138.735 270.019 138.639C270.096 138.542 270.208 138.48 270.33 138.467C271.635 138.103 272.913 137.65 274.157 137.112C274.213 137.085 274.274 137.071 274.336 137.068C274.398 137.066 274.46 137.076 274.518 137.098C274.575 137.121 274.628 137.155 274.673 137.198C274.718 137.241 274.753 137.293 274.777 137.351C274.802 137.408 274.814 137.47 274.814 137.533C274.814 137.595 274.801 137.657 274.777 137.714C274.752 137.772 274.717 137.823 274.672 137.867C274.627 137.91 274.574 137.944 274.516 137.966C273.223 138.529 271.892 139 270.533 139.376H270.432V139.395Z" fill="#0D1D54"/>
<path d="M188.531 62.176C188.531 62.176 184.797 54.9469 178.868 53.4528C172.94 51.9587 169.021 58.0928 168.247 65.5725C167.472 73.0522 172.995 79.344 181.155 72.2448C187.627 66.6768 188.531 62.176 188.531 62.176Z" fill="#0D1D54"/>
<path d="M186.982 62.2688C186.982 62.2688 177.522 67.4563 178.554 76.096C179.587 84.7357 194.653 91.5193 202.766 86.5917C210.88 81.664 208.879 74.6019 208.879 74.6019C208.879 74.6019 216.025 73.9523 216.154 67.0201C216.283 60.088 212.742 58.8537 209.073 59.5961C209.073 59.5961 210.428 50.975 202.508 50.1955C194.588 49.416 188.595 53.7126 186.982 62.2688Z" fill="#0D1D54"/>
<path d="M178.693 73.1079H178.601C178.541 73.0957 178.485 73.0719 178.435 73.0377C178.385 73.0036 178.342 72.9599 178.308 72.9091C178.275 72.8582 178.252 72.8013 178.24 72.7414C178.229 72.6816 178.229 72.6201 178.241 72.5603C179.596 65.888 186.474 62.0368 186.76 61.8791C186.868 61.82 186.994 61.8064 187.112 61.8412C187.23 61.876 187.329 61.9564 187.387 62.0647C187.446 62.1729 187.459 62.3003 187.425 62.4186C187.39 62.537 187.31 62.6366 187.203 62.6957C187.138 62.6957 180.417 66.5005 179.145 72.7552C179.12 72.8566 179.062 72.9465 178.98 73.0105C178.898 73.0745 178.797 73.1088 178.693 73.1079Z" fill="#9AB3DA"/>
<path d="M212.06 121.698C211.301 124.516 209.526 126.947 207.081 128.519C201.549 128.092 196.865 123.424 196.865 123.424V105.189C196.801 100.224 195.658 88.2714 195.224 83.9098L195.058 82.295L203.559 84.151C203.559 84.151 203.744 88.1878 204.094 92.6701C204.435 96.9389 204.951 101.635 205.615 103.658C206.989 107.778 212.06 121.698 212.06 121.698Z" fill="#ECBDBB"/>
<path d="M204.085 92.6422C199.189 91.1203 196.57 87.1392 195.215 83.9098L195.049 82.295L203.55 84.151C203.55 84.151 203.762 88.16 204.085 92.6422Z" fill="#404B7C"/>
<path d="M207.33 66.6118C209.728 70.848 211.076 75.604 211.258 80.4761C211.452 88.3177 205.274 89.1622 199.023 86.4988C192.772 83.8355 188.881 74.8339 188.881 74.8339C188.881 74.8339 186.05 67.0572 191.26 63.4937C192.505 62.5974 193.919 61.9655 195.414 61.6364C196.91 61.3074 198.457 61.2882 199.96 61.5799C201.463 61.8715 202.892 62.4681 204.159 63.3331C205.426 64.1982 206.505 65.3137 207.33 66.6118Z" fill="#ECBDBB"/>
<path d="M192.071 65.9623C192.071 65.9623 200.369 72.5696 210.677 68.2266C210.677 68.2266 203.08 53.8426 190.974 60.8026C178.868 67.7626 184.667 77.6551 191.232 79.2048C191.232 79.2512 194.837 74.9731 192.071 65.9623Z" fill="#0D1D54"/>
<path d="M195.464 82.592L192.412 78.184C192.412 78.184 189.194 75.2422 186.143 77.1446C183.091 79.047 186.345 87.6124 195.464 82.592Z" fill="#ECBDBB"/>
<path d="M193.491 81.3948C193.387 81.3942 193.286 81.3582 193.205 81.2927C191.469 79.9837 189.333 79.3271 187.166 79.4368C187.105 79.4428 187.044 79.4369 186.986 79.4192C186.928 79.4015 186.874 79.3724 186.827 79.3337C186.779 79.2949 186.74 79.2472 186.712 79.1932C186.683 79.1392 186.665 79.0801 186.659 79.0192C186.653 78.9582 186.659 78.8967 186.676 78.8381C186.694 78.7794 186.723 78.7249 186.761 78.6775C186.8 78.6301 186.847 78.5908 186.901 78.5618C186.955 78.5329 187.013 78.5149 187.074 78.5088C189.474 78.356 191.849 79.0664 193.777 80.5132C193.889 80.5547 193.98 80.6383 194.032 80.7463C194.084 80.8543 194.093 80.9785 194.056 81.0926C194.019 81.2067 193.939 81.302 193.834 81.3583C193.729 81.4147 193.606 81.4278 193.491 81.3948Z" fill="#404B7C"/>
<path d="M189.785 82.6477C189.68 82.6481 189.578 82.6125 189.495 82.5467C189.413 82.4809 189.356 82.3888 189.333 82.2857C189.131 81.252 189.107 80.1913 189.259 79.1491C189.268 79.0882 189.289 79.0296 189.321 78.9768C189.352 78.924 189.394 78.878 189.443 78.8414C189.492 78.8048 189.548 78.7783 189.607 78.7634C189.667 78.7485 189.729 78.7456 189.789 78.7547C189.85 78.7638 189.908 78.7849 189.96 78.8167C190.013 78.8484 190.058 78.8903 190.095 78.9398C190.131 78.9894 190.158 79.0456 190.172 79.1054C190.187 79.1652 190.19 79.2274 190.181 79.2883C190.045 80.2129 190.064 81.1539 190.236 82.0723C190.25 82.132 190.252 82.1939 190.241 82.2543C190.231 82.3147 190.209 82.3724 190.176 82.4242C190.144 82.476 190.101 82.5207 190.052 82.5559C190.002 82.5911 189.945 82.6159 189.886 82.6291H189.785V82.6477Z" fill="#404B7C"/>
<path d="M192.541 91.3152C190.872 91.3152 189.572 89.2365 189.572 86.5731C189.565 85.6741 189.731 84.7822 190.061 83.9469C190.08 83.885 190.111 83.8278 190.153 83.7788C190.195 83.7298 190.247 83.6903 190.305 83.6626C190.363 83.635 190.426 83.6198 190.491 83.6182C190.555 83.6166 190.619 83.6285 190.678 83.6532C190.737 83.6779 190.791 83.7148 190.835 83.7616C190.88 83.8084 190.914 83.864 190.936 83.9249C190.958 83.9857 190.966 84.0505 190.962 84.115C190.957 84.1795 190.939 84.2424 190.909 84.2995C190.626 85.0233 190.485 85.7954 190.494 86.5731C190.494 88.6426 191.416 90.3872 192.541 90.3872C193.666 90.3872 194.588 88.6426 194.588 86.5731C194.588 84.5037 193.666 82.7591 192.541 82.7591C192.419 82.7591 192.302 82.7102 192.215 82.6232C192.129 82.5361 192.08 82.4181 192.08 82.2951C192.08 82.172 192.129 82.054 192.215 81.967C192.302 81.8799 192.419 81.8311 192.541 81.8311C194.21 81.8311 195.51 83.9098 195.51 86.5731C195.51 89.2365 194.21 91.3152 192.541 91.3152Z" fill="#F68D88"/>
<path d="M195.012 73.4048C195.012 73.4048 195.501 69.9527 198.119 70.3424C198.065 70.1623 198.078 69.9684 198.157 69.7975C198.235 69.6265 198.372 69.4903 198.543 69.4144C199.124 69.2103 199.788 71.0291 199.788 71.0291C198.054 71.49 196.429 72.298 195.012 73.4048Z" fill="#404B7C"/>
<path d="M208.086 70.6579C208.086 70.6579 206.915 67.6883 205.459 69.0989C205.412 68.9657 205.328 68.849 205.217 68.7633C205.105 68.6776 204.971 68.6265 204.832 68.6163C204.14 68.7184 204.573 70.4723 204.573 70.4723C205.734 70.1539 206.965 70.219 208.086 70.6579Z" fill="#404B7C"/>
<path d="M199.787 77.4243C200.476 77.2206 200.831 76.3579 200.58 75.4974C200.329 74.6368 199.567 74.1043 198.878 74.308C198.189 74.5116 197.834 75.3744 198.085 76.2349C198.337 77.0955 199.099 77.628 199.787 77.4243Z" fill="#404B7C"/>
<path d="M199.545 75.577C199.731 75.5222 199.837 75.3262 199.783 75.1393C199.728 74.9525 199.534 74.8455 199.348 74.9004C199.162 74.9553 199.056 75.1512 199.11 75.3381C199.165 75.525 199.36 75.6319 199.545 75.577Z" fill="white"/>
<path d="M207.151 75.2489C207.84 75.0452 208.195 74.1825 207.944 73.3219C207.693 72.4614 206.931 71.9289 206.242 72.1326C205.553 72.3362 205.198 73.199 205.449 74.0595C205.701 74.9201 206.463 75.4526 207.151 75.2489Z" fill="#404B7C"/>
<path d="M206.909 73.399C207.095 73.3441 207.201 73.1481 207.146 72.9612C207.092 72.7744 206.897 72.6674 206.711 72.7223C206.526 72.7772 206.419 72.9731 206.474 73.16C206.529 73.3469 206.723 73.4538 206.909 73.399Z" fill="white"/>
<path d="M204.38 80.0215C204.257 80.0215 204.14 79.9726 204.054 79.8856C203.967 79.7986 203.919 79.6806 203.919 79.5575C203.919 79.4344 203.967 79.3164 204.054 79.2294C204.14 79.1424 204.257 79.0935 204.38 79.0935C204.435 79.0935 205.79 79.0192 205.864 78.082C205.879 78.034 205.881 77.9828 205.87 77.9338C205.859 77.8848 205.834 77.8398 205.8 77.8036C205.349 77.6451 204.858 77.6451 204.407 77.8036C204.291 77.8352 204.167 77.82 204.062 77.761C203.957 77.7021 203.879 77.6041 203.845 77.488L202.923 74.4535C202.905 74.3926 202.9 74.3287 202.907 74.2657C202.914 74.2026 202.933 74.1416 202.963 74.086C202.994 74.0304 203.035 73.9814 203.084 73.9417C203.133 73.9021 203.19 73.8726 203.25 73.8549C203.311 73.8373 203.374 73.8318 203.437 73.8388C203.499 73.8458 203.56 73.8651 203.615 73.8957C203.671 73.9263 203.719 73.9675 203.759 74.017C203.798 74.0666 203.827 74.1234 203.845 74.1844L204.629 76.8106C204.93 76.7337 205.244 76.7187 205.551 76.7665C205.858 76.8143 206.153 76.924 206.417 77.089C206.569 77.2195 206.685 77.387 206.755 77.5754C206.824 77.7638 206.844 77.9669 206.814 78.1655C206.694 79.5575 205.209 80.0215 204.444 80.0215H204.38Z" fill="#404B7C"/>
<path d="M203.531 83.8262C202.29 83.8095 201.076 83.4638 200.009 82.824C199.953 82.7961 199.903 82.757 199.863 82.709C199.822 82.661 199.791 82.6052 199.773 82.5449C199.754 82.4847 199.748 82.4212 199.755 82.3585C199.762 82.2958 199.781 82.2351 199.812 82.1801C199.842 82.1252 199.884 82.0771 199.934 82.0389C199.984 82.0006 200.041 81.973 200.101 81.9577C200.162 81.9424 200.226 81.9397 200.287 81.9499C200.349 81.96 200.408 81.9827 200.461 82.0166C203.67 83.8726 205.993 82.2394 205.993 82.2208C206.042 82.179 206.098 82.1477 206.16 82.1291C206.221 82.1105 206.285 82.1049 206.349 82.1126C206.412 82.1204 206.473 82.1413 206.528 82.1741C206.583 82.2069 206.631 82.2508 206.668 82.3031C206.705 82.3554 206.731 82.4149 206.744 82.4779C206.757 82.5408 206.757 82.6058 206.744 82.6688C206.731 82.7317 206.705 82.7912 206.668 82.8435C206.631 82.8958 206.583 82.9397 206.528 82.9725C205.634 83.5464 204.592 83.8433 203.531 83.8262Z" fill="#404B7C"/>
<path d="M146.487 110.033C157.69 110.033 166.771 100.892 166.771 89.6169C166.771 78.3415 157.69 69.2009 146.487 69.2009C135.285 69.2009 126.203 78.3415 126.203 89.6169C126.203 100.892 135.285 110.033 146.487 110.033Z" fill="#9AB3DA"/>
<path d="M145.483 81.2366C143.256 81.2366 141.452 79.5983 141.452 77.5773C141.452 75.5563 143.256 73.918 145.483 73.918C147.709 73.918 149.514 75.5563 149.514 77.5773C149.514 79.5983 147.709 81.2366 145.483 81.2366Z" fill="#F8F8F8"/>
<path d="M138.172 91.6172C138.118 91.6383 138.06 91.6407 138.004 91.6243C137.949 91.6079 137.899 91.5733 137.861 91.5249C137.823 91.4765 137.798 91.4164 137.79 91.3521C137.782 91.2878 137.79 91.2221 137.815 91.1633C138.795 88.6476 144.279 83.2568 148.185 83.4365C149.938 83.5216 145.75 96.7337 145.775 98.5685C145.775 99.9304 148.45 98.7387 149.846 98.0105C149.906 97.9863 149.97 97.9841 150.031 98.0041C150.091 98.0241 150.145 98.0654 150.183 98.122C150.222 98.1786 150.244 98.2477 150.246 98.3194C150.248 98.3911 150.231 98.4617 150.195 98.5212C149.157 100.413 145.717 104.385 142.277 104.65C137.665 105.009 141.795 90.1986 141.795 90.1986L138.172 91.6172Z" fill="#F8F8F8"/>
<path d="M316.301 156.09C315.561 156.09 314.837 155.869 314.222 155.455C313.606 155.041 313.126 154.452 312.843 153.764C312.56 153.075 312.485 152.318 312.63 151.587C312.774 150.856 313.131 150.185 313.654 149.658C314.178 149.131 314.845 148.772 315.571 148.627C316.297 148.481 317.05 148.556 317.734 148.841C318.418 149.126 319.002 149.609 319.414 150.229C319.825 150.848 320.045 151.577 320.045 152.322C320.042 153.32 319.647 154.277 318.946 154.983C318.244 155.689 317.293 156.087 316.301 156.09ZM316.301 149.482C315.743 149.482 315.198 149.649 314.734 149.961C314.27 150.273 313.908 150.716 313.695 151.235C313.481 151.754 313.425 152.325 313.534 152.876C313.643 153.427 313.912 153.933 314.306 154.33C314.701 154.727 315.204 154.997 315.751 155.107C316.298 155.217 316.865 155.16 317.381 154.945C317.897 154.73 318.337 154.367 318.647 153.9C318.957 153.433 319.123 152.884 319.123 152.322C319.124 151.948 319.052 151.578 318.911 151.232C318.769 150.887 318.562 150.573 318.3 150.308C318.037 150.043 317.726 149.833 317.383 149.69C317.04 149.547 316.673 149.473 316.301 149.473V149.482Z" fill="#9AB3DA"/>
<path d="M294.625 53.592C293.885 53.592 293.161 53.371 292.545 52.957C291.93 52.543 291.45 51.9546 291.167 51.2662C290.883 50.5777 290.809 49.8201 290.954 49.0893C291.098 48.3584 291.455 47.6871 291.978 47.1602C292.502 46.6332 293.169 46.2744 293.895 46.129C294.621 45.9837 295.374 46.0583 296.058 46.3434C296.742 46.6286 297.326 47.1115 297.738 47.7311C298.149 48.3507 298.368 49.0791 298.368 49.8243C298.366 50.8228 297.971 51.7797 297.269 52.4858C296.568 53.1918 295.617 53.5896 294.625 53.592ZM294.625 46.9846C294.067 46.9846 293.522 47.1512 293.058 47.4632C292.594 47.7752 292.232 48.2187 292.018 48.7376C291.805 49.2565 291.749 49.8275 291.858 50.3783C291.967 50.9292 292.235 51.4351 292.63 51.8323C293.025 52.2294 293.527 52.4999 294.075 52.6094C294.622 52.719 295.189 52.6628 295.705 52.4478C296.22 52.2329 296.661 51.8689 296.971 51.402C297.281 50.935 297.446 50.386 297.446 49.8243C297.448 49.4506 297.376 49.0804 297.234 48.7348C297.093 48.3892 296.885 48.075 296.623 47.8104C296.361 47.5457 296.05 47.3357 295.707 47.1924C295.364 47.0491 294.996 46.9754 294.625 46.9754V46.9846Z" fill="#9AB3DA"/>
<path d="M346.58 99.8992C346.026 99.89 345.487 99.7163 345.03 99.3998C344.574 99.0833 344.221 98.6381 344.015 98.1202C343.809 97.6022 343.76 97.0347 343.874 96.4887C343.987 95.9428 344.259 95.4428 344.654 95.0516C345.049 94.6604 345.55 94.3954 346.094 94.2899C346.638 94.1844 347.201 94.2431 347.713 94.4586C348.224 94.6741 348.66 95.0368 348.967 95.5012C349.274 95.9656 349.438 96.511 349.438 97.0688C349.437 97.4441 349.362 97.8154 349.217 98.1613C349.073 98.5072 348.861 98.8208 348.595 99.084C348.33 99.3472 348.015 99.5547 347.669 99.6946C347.323 99.8346 346.953 99.9041 346.58 99.8992ZM346.58 95.1571C346.209 95.1662 345.848 95.2853 345.544 95.4994C345.239 95.7135 345.004 96.0131 344.868 96.3609C344.731 96.7087 344.7 97.0892 344.777 97.4549C344.855 97.8206 345.037 98.1552 345.302 98.417C345.568 98.6788 345.904 98.8562 346.268 98.927C346.633 98.9977 347.01 98.9587 347.353 98.8149C347.696 98.6711 347.989 98.4287 348.196 98.1182C348.403 97.8076 348.514 97.4426 348.516 97.0688C348.515 96.8154 348.464 96.5647 348.365 96.3314C348.267 96.0981 348.124 95.8868 347.944 95.7098C347.763 95.5327 347.55 95.3935 347.316 95.3003C347.082 95.207 346.832 95.1615 346.58 95.1664V95.1571Z" fill="#9AB3DA"/>
<path d="M351.079 66.6489C350.957 66.6489 350.84 66.6 350.753 66.513C350.667 66.426 350.618 66.308 350.618 66.1849V60.8025C350.618 60.6794 350.667 60.5614 350.753 60.4744C350.84 60.3874 350.957 60.3385 351.079 60.3385C351.201 60.3385 351.319 60.3874 351.405 60.4744C351.492 60.5614 351.54 60.6794 351.54 60.8025V66.1849C351.54 66.308 351.492 66.426 351.405 66.513C351.319 66.6 351.201 66.6489 351.079 66.6489Z" fill="#9AB3DA"/>
<path d="M356.648 68.7555H352.647C352.524 68.7555 352.407 68.7066 352.321 68.6196C352.234 68.5326 352.186 68.4146 352.186 68.2915C352.186 68.1684 352.234 68.0504 352.321 67.9634C352.407 67.8764 352.524 67.8275 352.647 67.8275H356.648C356.77 67.8275 356.888 67.8764 356.974 67.9634C357.06 68.0504 357.109 68.1684 357.109 68.2915C357.109 68.4146 357.06 68.5326 356.974 68.6196C356.888 68.7066 356.77 68.7555 356.648 68.7555Z" fill="#9AB3DA"/>
<path d="M351.079 76.2445C350.957 76.2445 350.84 76.1956 350.753 76.1086C350.667 76.0216 350.618 75.9035 350.618 75.7805V70.3981C350.618 70.275 350.667 70.157 350.753 70.07C350.84 69.983 350.957 69.9341 351.079 69.9341C351.201 69.9341 351.319 69.983 351.405 70.07C351.492 70.157 351.54 70.275 351.54 70.3981V75.7805C351.54 75.9035 351.492 76.0216 351.405 76.1086C351.319 76.1956 351.201 76.2445 351.079 76.2445Z" fill="#9AB3DA"/>
<path d="M349.512 68.7555H345.51C345.388 68.7555 345.271 68.7066 345.184 68.6196C345.098 68.5326 345.049 68.4146 345.049 68.2915C345.049 68.1684 345.098 68.0504 345.184 67.9634C345.271 67.8764 345.388 67.8275 345.51 67.8275H349.512C349.634 67.8275 349.751 67.8764 349.838 67.9634C349.924 68.0504 349.973 68.1684 349.973 68.2915C349.973 68.4146 349.924 68.5326 349.838 68.6196C349.751 68.7066 349.634 68.7555 349.512 68.7555Z" fill="#9AB3DA"/>
<path d="M335.451 135.887C335.329 135.887 335.212 135.838 335.125 135.751C335.039 135.664 334.99 135.546 334.99 135.423V130.041C334.99 129.918 335.039 129.8 335.125 129.713C335.212 129.626 335.329 129.577 335.451 129.577C335.574 129.577 335.691 129.626 335.777 129.713C335.864 129.8 335.912 129.918 335.912 130.041V135.423C335.912 135.546 335.864 135.664 335.777 135.751C335.691 135.838 335.574 135.887 335.451 135.887Z" fill="#9AB3DA"/>
<path d="M341.02 137.994H337.019C336.896 137.994 336.779 137.945 336.693 137.858C336.606 137.771 336.558 137.653 336.558 137.53C336.558 137.407 336.606 137.289 336.693 137.202C336.779 137.115 336.896 137.066 337.019 137.066H341.02C341.142 137.066 341.26 137.115 341.346 137.202C341.433 137.289 341.481 137.407 341.481 137.53C341.481 137.653 341.433 137.771 341.346 137.858C341.26 137.945 341.142 137.994 341.02 137.994Z" fill="#9AB3DA"/>
<path d="M335.451 145.483C335.329 145.483 335.212 145.434 335.125 145.347C335.039 145.26 334.99 145.142 334.99 145.019V139.636C334.99 139.513 335.039 139.395 335.125 139.308C335.212 139.221 335.329 139.172 335.451 139.172C335.574 139.172 335.691 139.221 335.777 139.308C335.864 139.395 335.912 139.513 335.912 139.636V145.019C335.912 145.142 335.864 145.26 335.777 145.347C335.691 145.434 335.574 145.483 335.451 145.483Z" fill="#9AB3DA"/>
<path d="M333.884 137.994H329.882C329.76 137.994 329.643 137.945 329.556 137.858C329.47 137.771 329.421 137.653 329.421 137.53C329.421 137.407 329.47 137.289 329.556 137.202C329.643 137.115 329.76 137.066 329.882 137.066H333.884C334.006 137.066 334.123 137.115 334.21 137.202C334.296 137.289 334.345 137.407 334.345 137.53C334.345 137.653 334.296 137.771 334.21 137.858C334.123 137.945 334.006 137.994 333.884 137.994Z" fill="#9AB3DA"/>
<path d="M269.003 92.3824C268.88 92.3824 268.763 92.3335 268.677 92.2465C268.59 92.1595 268.542 92.0415 268.542 91.9184V86.536C268.542 86.413 268.59 86.2949 268.677 86.2079C268.763 86.1209 268.88 86.072 269.003 86.072C269.125 86.072 269.242 86.1209 269.329 86.2079C269.415 86.2949 269.464 86.413 269.464 86.536V91.9184C269.464 92.0415 269.415 92.1595 269.329 92.2465C269.242 92.3335 269.125 92.3824 269.003 92.3824Z" fill="#9AB3DA"/>
<path d="M274.572 94.4889H270.57C270.448 94.4889 270.331 94.44 270.244 94.353C270.158 94.266 270.109 94.148 270.109 94.0249C270.109 93.9019 270.158 93.7838 270.244 93.6968C270.331 93.6098 270.448 93.5609 270.57 93.5609H274.572C274.694 93.5609 274.811 93.6098 274.898 93.6968C274.984 93.7838 275.033 93.9019 275.033 94.0249C275.033 94.148 274.984 94.266 274.898 94.353C274.811 94.44 274.694 94.4889 274.572 94.4889Z" fill="#9AB3DA"/>
<path d="M269.003 101.978C268.88 101.978 268.763 101.929 268.677 101.842C268.59 101.755 268.542 101.637 268.542 101.514V96.1315C268.542 96.0084 268.59 95.8904 268.677 95.8034C268.763 95.7164 268.88 95.6675 269.003 95.6675C269.125 95.6675 269.242 95.7164 269.329 95.8034C269.415 95.8904 269.464 96.0084 269.464 96.1315V101.514C269.464 101.637 269.415 101.755 269.329 101.842C269.242 101.929 269.125 101.978 269.003 101.978Z" fill="#9AB3DA"/>
<path d="M267.435 94.4889H263.434C263.312 94.4889 263.194 94.44 263.108 94.353C263.021 94.266 262.973 94.148 262.973 94.0249C262.973 93.9019 263.021 93.7838 263.108 93.6968C263.194 93.6098 263.312 93.5609 263.434 93.5609H267.435C267.558 93.5609 267.675 93.6098 267.761 93.6968C267.848 93.7838 267.896 93.9019 267.896 94.0249C267.896 94.148 267.848 94.266 267.761 94.353C267.675 94.44 267.558 94.4889 267.435 94.4889Z" fill="#9AB3DA"/>
<path d="M331.957 63.0298H296.063C294.704 63.0298 293.602 64.1391 293.602 65.5075V113.726C293.602 115.095 294.704 116.204 296.063 116.204H331.957C333.316 116.204 334.419 115.095 334.419 113.726V65.5075C334.419 64.1391 333.316 63.0298 331.957 63.0298Z" fill="#9AB3DA"/>
<path d="M327.789 67.2244H291.896C290.536 67.2244 289.434 68.3337 289.434 69.7021V117.921C289.434 119.289 290.536 120.399 291.896 120.399H327.789C329.149 120.399 330.251 119.289 330.251 117.921V69.7021C330.251 68.3337 329.149 67.2244 327.789 67.2244Z" fill="#0D1D54"/>
<path d="M323.41 71.7158H287.517C286.157 71.7158 285.055 72.8251 285.055 74.1936V122.412C285.055 123.781 286.157 124.89 287.517 124.89H323.41C324.77 124.89 325.872 123.781 325.872 122.412V74.1936C325.872 72.8251 324.77 71.7158 323.41 71.7158Z" fill="#9AB3DA"/>
<path d="M320.662 83.1859H290.264C289.459 83.1859 288.807 83.8424 288.807 84.6522V85.0048C288.807 85.8146 289.459 86.471 290.264 86.471H320.662C321.467 86.471 322.119 85.8146 322.119 85.0048V84.6522C322.119 83.8424 321.467 83.1859 320.662 83.1859Z" fill="#F8F8F8"/>
<path d="M320.662 92.1689H290.264C289.459 92.1689 288.807 92.8254 288.807 93.6352V93.9878C288.807 94.7976 289.459 95.4541 290.264 95.4541H320.662C321.467 95.4541 322.119 94.7976 322.119 93.9878V93.6352C322.119 92.8254 321.467 92.1689 320.662 92.1689Z" fill="#F8F8F8"/>
<path d="M320.662 101.161H290.264C289.459 101.161 288.807 101.818 288.807 102.627V102.98C288.807 103.79 289.459 104.446 290.264 104.446H320.662C321.467 104.446 322.119 103.79 322.119 102.98V102.627C322.119 101.818 321.467 101.161 320.662 101.161Z" fill="#F8F8F8"/>
<path d="M302.711 110.144H290.264C289.459 110.144 288.807 110.801 288.807 111.611V111.963C288.807 112.773 289.459 113.429 290.264 113.429H302.711C303.516 113.429 304.168 112.773 304.168 111.963V111.611C304.168 110.801 303.516 110.144 302.711 110.144Z" fill="#F8F8F8"/>
</svg>
