<svg width="24" height="24" viewBox="0 0 24 24" fill="none" xmlns="http://www.w3.org/2000/svg">
<g clip-path="url(#clip0_471_3282)">
<path opacity="0.981" fill-rule="evenodd" clip-rule="evenodd" d="M20.0859 3.53906C20.7892 3.53125 21.4923 3.53907 22.1953 3.5625C22.2382 3.58004 22.2773 3.60348 22.3124 3.63281C22.7343 4.60156 23.1562 5.57029 23.5781 6.53906C23.6481 6.77465 23.5934 6.96994 23.414 7.125C21.8984 7.15626 20.3827 7.15626 18.8671 7.125C18.6877 6.96994 18.633 6.77465 18.7031 6.53906C19.0781 5.66404 19.4531 4.78908 19.8281 3.91406C19.881 3.75967 19.9669 3.63467 20.0859 3.53906Z" fill="#231F20"/>
<path opacity="0.979" fill-rule="evenodd" clip-rule="evenodd" d="M5.83594 6.91367C9.50953 6.89093 13.1814 6.91437 16.8516 6.98398C17.6334 7.23458 18.1256 7.75798 18.3281 8.55429C18.3516 9.36664 18.3594 10.1791 18.3516 10.9918C17.6953 10.9918 17.0391 10.9918 16.3828 10.9918C16.5042 10.3201 16.2542 9.85911 15.6328 9.60898C14.6953 9.57772 13.7578 9.57772 12.8203 9.60898C12.1984 9.86028 11.9483 10.3212 12.0703 10.9918C11.5078 10.9918 10.9453 10.9918 10.3828 10.9918C10.5048 10.3212 10.2547 9.86028 9.63281 9.60898C8.69531 9.57772 7.75781 9.57772 6.82031 9.60898C6.19837 9.86028 5.94834 10.3212 6.07031 10.9918C5.41406 10.9918 4.75781 10.9918 4.10156 10.9918C4.09375 10.1791 4.10157 9.36664 4.125 8.55429C4.37013 7.66058 4.94044 7.11373 5.83594 6.91367Z" fill="#231F20"/>
<path opacity="0.924" fill-rule="evenodd" clip-rule="evenodd" d="M20.7422 7.85156C21.0078 7.85156 21.2734 7.85156 21.5391 7.85156C21.5547 9.52373 21.5391 11.1956 21.4922 12.8672C21.2457 12.6697 21.0035 12.4665 20.7656 12.2578C20.7422 10.7891 20.7344 9.32039 20.7422 7.85156Z" fill="#231F20"/>
<path opacity="0.98" fill-rule="evenodd" clip-rule="evenodd" d="M3.39844 11.6953C8.61722 11.6875 13.836 11.6953 19.0547 11.7188C19.999 12.499 20.9365 13.2881 21.8672 14.0859C14.7735 14.1484 7.67967 14.1484 0.585938 14.0859C1.52552 13.2866 2.46302 12.4898 3.39844 11.6953Z" fill="#231F20"/>
<path opacity="0.981" fill-rule="evenodd" clip-rule="evenodd" d="M0.351562 14.8359C7.60158 14.8359 14.8515 14.8359 22.1016 14.8359C22.1094 15.961 22.1016 17.086 22.0781 18.2109C22.0261 18.3195 21.9402 18.3898 21.8203 18.4219C14.7578 18.4531 7.69533 18.4531 0.632812 18.4219C0.512938 18.3898 0.427002 18.3195 0.374999 18.2109C0.351563 17.086 0.343751 15.961 0.351562 14.8359Z" fill="#231F20"/>
<path opacity="0.986" fill-rule="evenodd" clip-rule="evenodd" d="M1.28906 19.1484C2.14843 19.1484 3.00781 19.1484 3.86718 19.1484C3.87498 19.5082 3.86717 19.8675 3.84374 20.2266C3.8262 20.2695 3.80276 20.3086 3.77343 20.3438C3.37956 20.3971 2.98113 20.4205 2.57812 20.4141C2.17511 20.4205 1.77667 20.3971 1.38281 20.3438C1.35347 20.3086 1.33003 20.2695 1.31249 20.2266C1.28907 19.8675 1.28126 19.5082 1.28906 19.1484Z" fill="#231F20"/>
<path opacity="0.986" fill-rule="evenodd" clip-rule="evenodd" d="M18.5859 19.1484C19.4453 19.1484 20.3047 19.1484 21.164 19.1484C21.1718 19.5082 21.164 19.8675 21.1406 20.2266C21.1231 20.2695 21.0996 20.3086 21.0703 20.3438C20.6764 20.3971 20.278 20.4205 19.875 20.4141C19.472 20.4205 19.0736 20.3971 18.6797 20.3438C18.6503 20.3086 18.6269 20.2695 18.6094 20.2266C18.5859 19.8675 18.5781 19.5082 18.5859 19.1484Z" fill="#231F20"/>
</g>
<defs>
<clipPath id="clip0_471_3282">
<rect width="24" height="24" fill="white"/>
</clipPath>
</defs>
</svg>
