<svg width="50" height="174" viewBox="0 0 50 174" fill="none" xmlns="http://www.w3.org/2000/svg">
<g filter="url(#filter0_b_413_1897)">
<rect width="50" height="50" rx="25" fill="#007AFE"/>
</g>
<path d="M30.4542 19.0392L28.9185 16.6127C28.5948 16.2354 28.1512 16 27.6538 16H22.3462C21.8488 16 21.4052 16.2354 21.0815 16.6127L19.5458 19.0392C19.2221 19.4171 18.805 19.6923 18.3077 19.6923H14.8462C14.3565 19.6923 13.8869 19.8868 13.5407 20.233C13.1945 20.5793 13 21.0488 13 21.5385V32.6154C13 33.105 13.1945 33.5746 13.5407 33.9208C13.8869 34.267 14.3565 34.4615 14.8462 34.4615H35.1538C35.6435 34.4615 36.1131 34.267 36.4593 33.9208C36.8055 33.5746 37 33.105 37 32.6154V21.5385C37 21.0488 36.8055 20.5793 36.4593 20.233C36.1131 19.8868 35.6435 19.6923 35.1538 19.6923H31.75C31.251 19.6923 30.7779 19.4171 30.4542 19.0392Z" stroke="white" stroke-width="2" stroke-linecap="round" stroke-linejoin="round"/>
<path d="M25.0001 30.7698C27.5492 30.7698 29.6155 28.7035 29.6155 26.1544C29.6155 23.6054 27.5492 21.5391 25.0001 21.5391C22.4511 21.5391 20.3848 23.6054 20.3848 26.1544C20.3848 28.7035 22.4511 30.7698 25.0001 30.7698Z" stroke="white" stroke-width="2" stroke-miterlimit="10"/>
<path d="M17.3846 19.5773V18.3081H16V19.5773" stroke="white" stroke-width="2" stroke-linecap="round" stroke-linejoin="round"/>
<g filter="url(#filter1_b_413_1897)">
<rect y="62" width="50" height="50" rx="25" fill="#007AFE"/>
</g>
<path d="M30.4542 81.0392L28.9185 78.6127C28.5948 78.2354 28.1512 78 27.6538 78H22.3462C21.8488 78 21.4052 78.2354 21.0815 78.6127L19.5458 81.0392C19.2221 81.4171 18.805 81.6923 18.3077 81.6923H14.8462C14.3565 81.6923 13.8869 81.8868 13.5407 82.233C13.1945 82.5793 13 83.0488 13 83.5385V94.6154C13 95.105 13.1945 95.5746 13.5407 95.9208C13.8869 96.267 14.3565 96.4615 14.8462 96.4615H35.1538C35.6435 96.4615 36.1131 96.267 36.4593 95.9208C36.8055 95.5746 37 95.105 37 94.6154V83.5385C37 83.0488 36.8055 82.5793 36.4593 82.233C36.1131 81.8868 35.6435 81.6923 35.1538 81.6923H31.75C31.251 81.6923 30.7779 81.4171 30.4542 81.0392Z" stroke="white" stroke-width="2" stroke-linecap="round" stroke-linejoin="round"/>
<path d="M17.3846 81.5768V80.3076H16V81.5768M29.6015 88.9165V88.1486C29.6011 87.2729 29.3516 86.4154 28.8822 85.6762C28.4127 84.937 27.7426 84.3466 26.9501 83.974C26.1577 83.6014 25.2756 83.4619 24.4068 83.5718C23.5381 83.6817 22.7185 84.0365 22.0438 84.5947M20.3846 87.3911V88.159C20.3853 89.0328 20.634 89.8885 21.1018 90.6266C21.5697 91.3647 22.2374 91.9548 23.0275 92.3282C23.8175 92.7017 24.6973 92.8432 25.5646 92.7363C26.4319 92.6294 27.251 92.2785 27.9267 91.7243" stroke="white" stroke-width="2" stroke-linecap="round" stroke-linejoin="round"/>
<path d="M21.5386 88.1538L20.3848 87L19.231 88.1538M30.7694 88.1538L29.6156 89.3077L28.4617 88.1538" stroke="white" stroke-width="2" stroke-linecap="round" stroke-linejoin="round"/>
<g filter="url(#filter2_b_413_1897)">
<rect y="124" width="50" height="50" rx="25" fill="#007AFE"/>
</g>
<path d="M32.7357 141.519C33.0986 141.183 33.5815 140.996 34.0825 141C34.5836 141.004 35.0635 141.197 35.4212 141.539C35.7788 141.881 35.9861 142.345 35.9993 142.834C36.0126 143.322 35.8307 143.796 35.4921 144.156L25.2135 156.688C25.0367 156.873 24.8234 157.022 24.5863 157.126C24.3492 157.229 24.0931 157.285 23.8333 157.29C23.5736 157.294 23.3156 157.248 23.0747 157.153C22.8338 157.058 22.615 156.917 22.4313 156.738L15.6149 150.093C15.4251 149.921 15.2729 149.713 15.1673 149.482C15.0617 149.251 15.0049 149.001 15.0003 148.748C14.9957 148.495 15.0434 148.244 15.1406 148.01C15.2378 147.775 15.3824 147.562 15.5659 147.383C15.7494 147.204 15.9679 147.063 16.2085 146.969C16.4491 146.874 16.7067 146.827 16.9662 146.832C17.2256 146.836 17.4814 146.892 17.7184 146.995C17.9554 147.098 18.1687 147.246 18.3456 147.431L23.74 152.687L32.6868 141.575C32.7029 141.555 32.7201 141.537 32.7383 141.519H32.7357Z" fill="white"/>
<defs>
<filter id="filter0_b_413_1897" x="-10.5" y="-10.5" width="71" height="71" filterUnits="userSpaceOnUse" color-interpolation-filters="sRGB">
<feFlood flood-opacity="0" result="BackgroundImageFix"/>
<feGaussianBlur in="BackgroundImageFix" stdDeviation="5.25"/>
<feComposite in2="SourceAlpha" operator="in" result="effect1_backgroundBlur_413_1897"/>
<feBlend mode="normal" in="SourceGraphic" in2="effect1_backgroundBlur_413_1897" result="shape"/>
</filter>
<filter id="filter1_b_413_1897" x="-10.5" y="51.5" width="71" height="71" filterUnits="userSpaceOnUse" color-interpolation-filters="sRGB">
<feFlood flood-opacity="0" result="BackgroundImageFix"/>
<feGaussianBlur in="BackgroundImageFix" stdDeviation="5.25"/>
<feComposite in2="SourceAlpha" operator="in" result="effect1_backgroundBlur_413_1897"/>
<feBlend mode="normal" in="SourceGraphic" in2="effect1_backgroundBlur_413_1897" result="shape"/>
</filter>
<filter id="filter2_b_413_1897" x="-10.5" y="113.5" width="71" height="71" filterUnits="userSpaceOnUse" color-interpolation-filters="sRGB">
<feFlood flood-opacity="0" result="BackgroundImageFix"/>
<feGaussianBlur in="BackgroundImageFix" stdDeviation="5.25"/>
<feComposite in2="SourceAlpha" operator="in" result="effect1_backgroundBlur_413_1897"/>
<feBlend mode="normal" in="SourceGraphic" in2="effect1_backgroundBlur_413_1897" result="shape"/>
</filter>
</defs>
</svg>
