<svg width="24" height="24" viewBox="0 0 24 24" fill="none" xmlns="http://www.w3.org/2000/svg">
<g clip-path="url(#clip0_471_3224)">
<path opacity="0.977" fill-rule="evenodd" clip-rule="evenodd" d="M5.74213 -0.0234375C5.42962 -0.0234375 5.11715 -0.0234375 4.80463 -0.0234375C3.61762 0.304639 2.97698 1.08589 2.88276 2.32031C3.00496 3.77847 3.79406 4.57534 5.24995 4.71094C6.47648 4.6405 7.25774 4.0155 7.5937 2.83594C7.77641 1.35632 7.15926 0.4032 5.74213 -0.0234375Z" fill="#231F20"/>
<path opacity="0.978" fill-rule="evenodd" clip-rule="evenodd" d="M15.3046 23.9768C15.539 23.9768 15.7734 23.9768 16.0078 23.9768C16.4679 23.8057 16.7804 23.4854 16.9453 23.0158C18.3498 22.4593 19.7327 21.8577 21.0937 21.2111C21.31 20.9086 21.3568 20.5805 21.2343 20.2268C20.3147 18.03 19.3772 15.8424 18.4218 13.6643C18.1915 13.4445 17.9181 13.3586 17.6015 13.4064C16.3618 13.9091 15.1274 14.4248 13.8984 14.9533C13.8452 14.9884 13.7983 14.9807 13.7578 14.9299C13.3937 14.0794 13.0343 13.2279 12.6797 12.3752C12.8352 12.22 12.8977 12.0325 12.8672 11.8127C12.3482 8.59168 10.6294 6.26354 7.7109 4.82832C6.46416 4.48182 5.72199 4.94274 5.48434 6.21113C5.49952 7.06895 5.62454 7.9127 5.85934 8.74238C6.08406 8.33378 6.22468 7.89624 6.28121 7.42988C6.29682 7.07049 6.31248 6.71115 6.32809 6.35176C6.56813 5.65749 7.04471 5.41529 7.75777 5.6252C8.23341 5.91653 8.43652 6.34623 8.36715 6.91426C8.3499 8.76099 7.63112 10.261 6.2109 11.4143C6.17804 11.8214 6.13899 12.2276 6.09371 12.633C4.61884 14.9596 3.66568 17.4908 3.23434 20.2268C3.13698 20.8337 3.05888 21.443 2.99996 22.0549C2.81523 23.0073 3.1824 23.6089 4.10152 23.8596C4.83423 23.9111 5.32642 23.5907 5.57809 22.8986C5.69368 21.2983 5.99059 19.7357 6.46871 18.2111C7.00937 20.2696 8.07967 21.9962 9.67965 23.3908C10.3159 23.9824 10.9878 24.0293 11.6953 23.5314C12.2031 22.9448 12.2422 22.3277 11.8125 21.6799C9.37646 19.6644 8.42335 17.0863 8.95309 13.9455C9.49215 13.5711 9.80462 13.0555 9.89059 12.3986C10.0273 11.2269 10.0429 10.0551 9.93746 8.88301C10.6039 9.89734 11.0415 11.0067 11.25 12.2111C11.4239 12.5247 11.6895 12.6965 12.0468 12.7268C12.3906 13.5392 12.7344 14.3518 13.0781 15.1643C13.1132 15.2175 13.1054 15.2643 13.0547 15.3049C12.4577 15.4727 12.2154 15.8634 12.3281 16.4768C13.0955 18.3005 13.8689 20.1208 14.6484 21.9377C14.4057 22.3412 14.3511 22.7709 14.4843 23.2268C14.6485 23.6021 14.922 23.8521 15.3046 23.9768ZM15.7265 22.1018C15.1291 22.2061 14.9494 22.5342 15.1875 23.0861C15.7089 23.4697 16.0761 23.3525 16.289 22.7346C16.2379 22.3948 16.0504 22.1838 15.7265 22.1018Z" fill="#231F20"/>
<path opacity="0.963" fill-rule="evenodd" clip-rule="evenodd" d="M7.52343 5.69531C6.72055 5.70544 6.37677 6.1117 6.49218 6.91406C6.38633 8.98078 5.32382 10.2386 3.30468 10.6875C2.72797 10.996 2.59518 11.4413 2.90624 12.0234C3.16091 12.3218 3.48121 12.4234 3.86718 12.3281C6.33303 11.7011 7.76272 10.1308 8.15624 7.61719C8.1875 7.1797 8.1875 6.74217 8.15624 6.30469C8.04294 5.99602 7.832 5.79291 7.52343 5.69531Z" fill="#231F20"/>
</g>
<defs>
<clipPath id="clip0_471_3224">
<rect width="24" height="24" fill="white" transform="matrix(-1 0 0 1 24 0)"/>
</clipPath>
</defs>
</svg>
