<svg width="24" height="24" viewBox="0 0 24 24" fill="none" xmlns="http://www.w3.org/2000/svg">
<g clip-path="url(#clip0_471_3200)">
<path opacity="0.977" fill-rule="evenodd" clip-rule="evenodd" d="M18.2579 -0.0234375C18.5704 -0.0234375 18.8829 -0.0234375 19.1954 -0.0234375C20.3824 0.304639 21.023 1.08589 21.1172 2.32031C20.995 3.77847 20.2059 4.57534 18.7501 4.71094C17.5235 4.6405 16.7423 4.0155 16.4063 2.83594C16.2236 1.35632 16.8407 0.4032 18.2579 -0.0234375Z" fill="#231F20"/>
<path opacity="0.978" fill-rule="evenodd" clip-rule="evenodd" d="M8.69535 23.9768C8.46098 23.9768 8.2266 23.9768 7.99223 23.9768C7.53215 23.8057 7.21963 23.4854 7.05473 23.0158C5.65016 22.4593 4.26734 21.8577 2.90629 21.2111C2.69004 20.9086 2.64317 20.5805 2.76566 20.2268C3.68529 18.03 4.62279 15.8424 5.57816 13.6643C5.80846 13.4445 6.08188 13.3586 6.39848 13.4064C7.63823 13.9091 8.87258 14.4248 10.1016 14.9533C10.1548 14.9884 10.2017 14.9807 10.2422 14.9299C10.6063 14.0794 10.9657 13.2279 11.3203 12.3752C11.1648 12.22 11.1023 12.0325 11.1328 11.8127C11.6518 8.59168 13.3706 6.26354 16.2891 4.82832C17.5358 4.48182 18.278 4.94274 18.5157 6.21113C18.5005 7.06895 18.3755 7.9127 18.1407 8.74238C17.9159 8.33378 17.7753 7.89624 17.7188 7.42988C17.7032 7.07049 17.6875 6.71115 17.6719 6.35176C17.4319 5.65749 16.9553 5.41529 16.2422 5.6252C15.7666 5.91653 15.5635 6.34623 15.6329 6.91426C15.6501 8.76099 16.3689 10.261 17.7891 11.4143C17.822 11.8214 17.861 12.2276 17.9063 12.633C19.3812 14.9596 20.3343 17.4908 20.7657 20.2268C20.863 20.8337 20.9411 21.443 21 22.0549C21.1848 23.0073 20.8176 23.6089 19.8985 23.8596C19.1658 23.9111 18.6736 23.5907 18.4219 22.8986C18.3063 21.2983 18.0094 19.7357 17.5313 18.2111C16.9906 20.2696 15.9203 21.9962 14.3203 23.3908C13.6841 23.9824 13.0122 24.0293 12.3047 23.5314C11.7969 22.9448 11.7578 22.3277 12.1875 21.6799C14.6235 19.6644 15.5766 17.0863 15.0469 13.9455C14.5079 13.5711 14.1954 13.0555 14.1094 12.3986C13.9727 11.2269 13.9571 10.0551 14.0625 8.88301C13.3961 9.89734 12.9585 11.0067 12.75 12.2111C12.5761 12.5247 12.3105 12.6965 11.9532 12.7268C11.6094 13.5392 11.2656 14.3518 10.9219 15.1643C10.8868 15.2175 10.8946 15.2643 10.9453 15.3049C11.5423 15.4727 11.7846 15.8634 11.6719 16.4768C10.9045 18.3005 10.1311 20.1208 9.3516 21.9377C9.59427 22.3412 9.64893 22.7709 9.51566 23.2268C9.35146 23.6021 9.07804 23.8521 8.69535 23.9768ZM8.27348 22.1018C8.8709 22.2061 9.05057 22.5342 8.81254 23.0861C8.29105 23.4697 7.92388 23.3525 7.71098 22.7346C7.76207 22.3948 7.94957 22.1838 8.27348 22.1018Z" fill="#231F20"/>
<path opacity="0.963" fill-rule="evenodd" clip-rule="evenodd" d="M16.4766 5.69531C17.2794 5.70544 17.6232 6.1117 17.5078 6.91406C17.6137 8.98078 18.6762 10.2386 20.6953 10.6875C21.272 10.996 21.4048 11.4413 21.0938 12.0234C20.8391 12.3218 20.5188 12.4234 20.1328 12.3281C17.667 11.7011 16.2373 10.1308 15.8438 7.61719C15.8125 7.1797 15.8125 6.74217 15.8438 6.30469C15.9571 5.99602 16.168 5.79291 16.4766 5.69531Z" fill="#231F20"/>
</g>
<defs>
<clipPath id="clip0_471_3200">
<rect width="24" height="24" fill="white"/>
</clipPath>
</defs>
</svg>
