<svg width="29" height="36" viewBox="0 0 29 36" fill="none" xmlns="http://www.w3.org/2000/svg">
<path d="M19.5 8.91796C19.5 8.91796 21.4031 7.97461 14.5 7.97461C12.0277 7.97461 9.61099 8.7123 7.55538 10.0944C5.49976 11.4765 3.89761 13.4409 2.95151 15.7392C2.00542 18.0375 1.75787 20.5665 2.24019 23.0064C2.7225 25.4463 3.91301 27.6875 5.66117 29.4466C7.40933 31.2056 9.63661 32.4036 12.0614 32.8889C14.4861 33.3742 16.9995 33.1251 19.2835 32.1731C21.5676 31.2211 23.5199 29.609 24.8934 27.5405C26.2669 25.4721 27 23.0403 27 20.5526" stroke="black" stroke-width="4" stroke-miterlimit="10" stroke-linecap="round"/>
<path d="M14.5 2L20.75 8.28899L14.5 14.578" stroke="black" stroke-width="4" stroke-linecap="round" stroke-linejoin="round"/>
</svg>
