<svg width="22" height="22" viewBox="0 0 22 22" fill="none" xmlns="http://www.w3.org/2000/svg">
<path d="M11.0005 8.95423C9.9922 8.95423 9.16722 9.7601 9.16722 10.745C9.16722 11.73 9.9922 12.5359 11.0005 12.5359C12.0088 12.5359 12.8338 11.73 12.8338 10.745C12.8338 9.7601 12.0088 8.95423 11.0005 8.95423ZM16.5004 8.95423C15.4921 8.95423 14.6671 9.7601 14.6671 10.745C14.6671 11.73 15.4921 12.5359 16.5004 12.5359C17.5087 12.5359 18.3337 11.73 18.3337 10.745C18.3337 9.7601 17.5087 8.95423 16.5004 8.95423ZM5.50062 8.95423C4.49231 8.95423 3.66733 9.7601 3.66733 10.745C3.66733 11.73 4.49231 12.5359 5.50062 12.5359C6.50894 12.5359 7.33392 11.73 7.33392 10.745C7.33392 9.7601 6.50894 8.95423 5.50062 8.95423Z" fill="white"/>
</svg>
