<svg width="24" height="24" viewBox="0 0 24 24" fill="none" xmlns="http://www.w3.org/2000/svg">
<g clip-path="url(#clip0_450_1743)">
<path opacity="0.987" fill-rule="evenodd" clip-rule="evenodd" d="M11.8359 1.75781C13.6988 1.80969 15.0347 2.66907 15.8438 4.33594C16.5164 6.27839 16.0867 7.9268 14.5547 9.28125C13.0352 10.3249 11.4571 10.4186 9.82032 9.5625C8.10634 8.37483 7.48914 6.75764 7.96876 4.71094C8.64456 2.91737 9.93362 1.933 11.8359 1.75781Z" fill="#007AFE"/>
<path opacity="0.982" fill-rule="evenodd" clip-rule="evenodd" d="M4.38278 5.64844C6.28521 5.66498 7.41803 6.60248 7.78122 8.46094C7.83789 10.0755 7.11916 11.1849 5.62497 11.7891C4.08487 12.177 2.86612 11.7239 1.96872 10.4297C1.20203 8.88131 1.44421 7.51411 2.69528 6.32812C3.20057 5.949 3.76307 5.72245 4.38278 5.64844Z" fill="#007AFE"/>
<path opacity="0.982" fill-rule="evenodd" clip-rule="evenodd" d="M19.0078 5.64844C20.8923 5.65041 22.0252 6.5723 22.4063 8.41406C22.5097 9.96595 21.8612 11.0675 20.4609 11.7188C18.8064 12.2307 17.5017 11.7698 16.5469 10.3359C15.9335 9.07819 16.0429 7.8907 16.875 6.77344C17.4557 6.14339 18.1666 5.76839 19.0078 5.64844Z" fill="#007AFE"/>
<path opacity="0.988" fill-rule="evenodd" clip-rule="evenodd" d="M9.6797 10.9453C11.211 10.9375 12.7423 10.9453 14.2734 10.9688C15.7531 11.105 16.7844 11.855 17.3672 13.2188C17.4856 13.5606 17.5559 13.9121 17.5781 14.2734C17.6094 16.6953 17.6094 19.1172 17.5781 21.5391C17.5234 21.9062 17.3125 22.1172 16.9453 22.1719C13.6328 22.2031 10.3203 22.2031 7.00782 22.1719C6.64065 22.1172 6.42971 21.9062 6.37501 21.5391C6.34375 19.1172 6.34375 16.6953 6.37501 14.2734C6.49975 12.8209 7.22631 11.7975 8.5547 11.2031C8.92726 11.0772 9.30226 10.9913 9.6797 10.9453Z" fill="#007AFE"/>
<path opacity="0.985" fill-rule="evenodd" clip-rule="evenodd" d="M-0.0234375 20.5078C-0.0234375 18.8984 -0.0234375 17.289 -0.0234375 15.6797C0.338231 14.0603 1.33823 13.0993 2.97656 12.7969C3.75828 12.7578 4.53953 12.7656 5.32031 12.8203C5.19755 13.1707 5.11163 13.5301 5.0625 13.8984C5.03123 16.539 5.03123 19.1797 5.0625 21.8203C5.10103 21.943 5.12447 22.068 5.13281 22.1953C3.94398 22.2145 2.75648 22.1911 1.57031 22.125C0.728925 21.8846 0.197675 21.3455 -0.0234375 20.5078Z" fill="#007AFE"/>
<path opacity="0.985" fill-rule="evenodd" clip-rule="evenodd" d="M23.9766 15.6797C23.9766 17.289 23.9766 18.8984 23.9766 20.5078C23.7555 21.3455 23.2242 21.8846 22.3828 22.125C21.1966 22.1911 20.0092 22.2145 18.8203 22.1953C18.8287 22.068 18.8521 21.943 18.8906 21.8203C18.9219 19.1797 18.9219 16.539 18.8906 13.8984C18.8415 13.5301 18.7556 13.1707 18.6328 12.8203C19.4136 12.7656 20.1948 12.7578 20.9766 12.7969C22.6149 13.0993 23.6149 14.0603 23.9766 15.6797Z" fill="#007AFE"/>
</g>
<defs>
<clipPath id="clip0_450_1743">
<rect width="24" height="24" fill="white"/>
</clipPath>
</defs>
</svg>
