<svg width="17" height="22" viewBox="0 0 17 22" fill="none" xmlns="http://www.w3.org/2000/svg">
<path d="M8.5 14.419C10.7362 14.419 12.5474 12.6077 12.5474 10.3715V4.80632C12.5474 2.57012 10.7362 0.758893 8.5 0.758893C6.26379 0.758893 4.45257 2.57012 4.45257 4.80632V10.3715C4.45257 12.6077 6.26379 14.419 8.5 14.419Z" stroke="#007AFE" stroke-width="1.5" stroke-linecap="round" stroke-linejoin="round"/>
<path d="M0.758893 8.49963V10.2198C0.758893 14.4898 4.22957 17.9605 8.4996 17.9605C12.7696 17.9605 16.2403 14.4898 16.2403 10.2198V8.49963" stroke="#007AFE" stroke-width="1.5" stroke-linecap="round" stroke-linejoin="round"/>
<path d="M7.09289 5.24142C8.00356 4.9075 8.99518 4.9075 9.90585 5.24142" stroke="#007AFE" stroke-width="1.5" stroke-linecap="round" stroke-linejoin="round"/>
<path d="M7.68972 7.38657C8.22601 7.24491 8.78253 7.24491 9.31881 7.38657" stroke="#007AFE" stroke-width="1.5" stroke-linecap="round" stroke-linejoin="round"/>
<path d="M8.5 17.9605V20.996" stroke="#007AFE" stroke-width="1.5" stroke-linecap="round" stroke-linejoin="round"/>
</svg>
