<svg width="16" height="20" viewBox="0 0 16 20" fill="none" xmlns="http://www.w3.org/2000/svg">
<path d="M11.5255 5.86113H4.69597H4.38554V10.5399L7.17943 13.5477H9.04203L11.5255 10.8741V5.86113Z" fill="white" fill-opacity="0.8"/>
<path d="M7.95944 13.1043C9.93185 13.1043 11.5294 11.5168 11.5294 9.55668V4.67865C11.5294 2.71857 9.93185 1.13099 7.95944 1.13099C5.98703 1.13099 4.38947 2.71857 4.38947 4.67865V9.55668C4.38947 11.5168 5.98703 13.1043 7.95944 13.1043Z" stroke="white" stroke-width="2.25" stroke-linecap="round" stroke-linejoin="round"/>
<path d="M1.13099 7.91596V9.42372C1.13099 13.1665 4.19225 16.2086 7.95857 16.2086C11.7249 16.2086 14.7862 13.1665 14.7862 9.42372V7.91596" stroke="white" stroke-width="2.25" stroke-linecap="round" stroke-linejoin="round"/>
<path d="M7.95621 16.2084V18.8692" stroke="white" stroke-width="2.25" stroke-linecap="round" stroke-linejoin="round"/>
</svg>
