<svg width="6" height="14" viewBox="0 0 6 14" fill="none" xmlns="http://www.w3.org/2000/svg">
<g opacity="0.2">
<path d="M2.4345 13.8154C2.4055 13.7871 2.2815 13.6805 2.1795 13.5811C1.538 12.9985 0.488 11.4788 0.1675 10.6834C0.116 10.5626 0.007 10.2572 0 10.094C0 9.93765 0.036 9.7886 0.109 9.64637C0.211 9.46907 0.3715 9.32684 0.561 9.2489C0.6925 9.19873 1.086 9.1208 1.093 9.1208C1.5235 9.04286 2.223 9 2.996 9C3.7325 9 4.4035 9.04286 4.8405 9.10667C4.8475 9.11398 5.3365 9.19191 5.504 9.27716C5.81 9.43351 6 9.73892 6 10.0658V10.094C5.9925 10.3069 5.8025 10.7545 5.7955 10.7545C5.4745 11.5071 4.476 12.9917 3.8125 13.5884C3.8125 13.5884 3.642 13.7565 3.5355 13.8295C3.3825 13.9435 3.193 14 3.0035 14C2.792 14 2.595 13.9362 2.4345 13.8154Z" fill="#030229"/>
</g>
<g opacity="0.2">
<path d="M2.4345 0.184608C2.4055 0.212859 2.2815 0.319532 2.1795 0.418899C1.538 1.00146 0.488 2.52119 0.1675 3.31661C0.116 3.43741 0.007 3.74282 0 3.90599C0 4.06235 0.036 4.2114 0.109 4.35363C0.211 4.53093 0.3715 4.67316 0.561 4.7511C0.6925 4.80127 1.086 4.8792 1.093 4.8792C1.5235 4.95714 2.223 5 2.996 5C3.7325 5 4.4035 4.95714 4.8405 4.89333C4.8475 4.88602 5.3365 4.80809 5.504 4.72284C5.81 4.56649 6 4.26108 6 3.93424V3.90599C5.9925 3.69313 5.8025 3.24549 5.7955 3.24549C5.4745 2.49294 4.476 1.00828 3.8125 0.411593C3.8125 0.411593 3.642 0.243546 3.5355 0.170482C3.3825 0.0565028 3.193 0 3.0035 0C2.792 0 2.595 0.0638089 2.4345 0.184608Z" fill="#030229"/>
</g>
</svg>
