<svg width="598" height="138" viewBox="0 0 598 138" fill="none" xmlns="http://www.w3.org/2000/svg">
<g filter="url(#filter0_d_471_3165)">
<path d="M0 41.7602C7.68839 49.6228 23.1993 66.4167 38.3973 78.4015C53.64 90.8442 68.7933 98.4778 84.4382 82.4473C99.6362 66.4167 114.834 25.1953 130.479 25.4243C145.632 25.1953 160.875 66.4167 176.073 78.4015C191.584 90.8442 206.916 74.0503 222.114 82.4473C237.58 90.8442 252.957 122.905 268.155 110.921C283.532 98.4778 298.998 41.9892 314.196 45.806C329.528 49.6228 345.039 79.4148 360.237 111.705C375.48 144.3 390.633 144.3 406.278 123.919C423.6 104.41 432.058 96.7781 450.686 86.033C470.336 76.1723 482.715 90.8442 497.913 74.2793C513.424 58.0198 528.756 9.16478 543.954 0.996833C559.42 -6.86577 569.538 34.3044 598 36.3071" stroke="#007AFE" stroke-width="3" stroke-linecap="round"/>
</g>
<defs>
<filter id="filter0_d_471_3165" x="-5.50745" y="-1.50203" width="609.015" height="148.962" filterUnits="userSpaceOnUse" color-interpolation-filters="sRGB">
<feFlood flood-opacity="0" result="BackgroundImageFix"/>
<feColorMatrix in="SourceAlpha" type="matrix" values="0 0 0 0 0 0 0 0 0 0 0 0 0 0 0 0 0 0 127 0" result="hardAlpha"/>
<feOffset dy="4"/>
<feGaussianBlur stdDeviation="2"/>
<feColorMatrix type="matrix" values="0 0 0 0 0.376471 0 0 0 0 0.356863 0 0 0 0 1 0 0 0 0.17 0"/>
<feBlend mode="normal" in2="BackgroundImageFix" result="effect1_dropShadow_471_3165"/>
<feBlend mode="normal" in="SourceGraphic" in2="effect1_dropShadow_471_3165" result="shape"/>
</filter>
</defs>
</svg>
