<svg width="24" height="24" viewBox="0 0 24 24" fill="none" xmlns="http://www.w3.org/2000/svg">
<path opacity="0.916" fill-rule="evenodd" clip-rule="evenodd" d="M0.773438 0.304688C5.32031 0.304688 9.86719 0.304688 14.4141 0.304688C14.4141 0.554686 14.4141 0.804689 14.4141 1.05469C9.86719 1.05469 5.32031 1.05469 0.773438 1.05469C0.773438 0.804689 0.773438 0.554686 0.773438 0.304688Z" fill="#231F20"/>
<path opacity="0.955" fill-rule="evenodd" clip-rule="evenodd" d="M1.57031 1.28906C2.86719 1.28906 4.16406 1.28906 5.46094 1.28906C5.41711 3.01133 4.9718 4.62071 4.125 6.11719C3.88768 6.51084 3.61424 6.87802 3.30469 7.21875C4.63272 7.24219 5.96086 7.25002 7.28906 7.24219C7.28906 5.25783 7.28906 3.27344 7.28906 1.28906C7.46095 1.28906 7.6328 1.28906 7.80469 1.28906C7.80469 3.27344 7.80469 5.25783 7.80469 7.24219C9.14855 7.25002 10.4923 7.24219 11.8359 7.21875C10.8191 5.99869 10.1707 4.60027 9.89062 3.02344C9.79327 2.44785 9.72295 1.86972 9.67969 1.28906C10.9766 1.28906 12.2734 1.28906 13.5703 1.28906C13.5703 4.53906 13.5703 7.78908 13.5703 11.0391C13.1013 11.0468 12.6325 11.0391 12.1641 11.0156C11.9548 11.001 11.8063 10.8994 11.7188 10.7109C11.5806 10.3095 11.565 9.90323 11.6719 9.49219C11.7656 8.90625 11.914 8.33592 12.1172 7.78125C10.6642 7.75781 9.21103 7.74998 7.75781 7.75781C7.75781 8.85155 7.75781 9.94533 7.75781 11.0391C7.58592 11.0391 7.41408 11.0391 7.24219 11.0391C7.24219 9.94533 7.24219 8.85155 7.24219 7.75781C5.83594 7.75781 4.42969 7.75781 3.02344 7.75781C3.21478 8.33986 3.36321 8.93363 3.46875 9.53906C3.51098 9.91777 3.49535 10.2928 3.42188 10.6641C3.38503 10.8086 3.2991 10.9101 3.16406 10.9688C2.63536 11.0336 2.10411 11.057 1.57031 11.0391C1.57031 7.78908 1.57031 4.53906 1.57031 1.28906Z" fill="#231F20"/>
<path opacity="0.969" fill-rule="evenodd" clip-rule="evenodd" d="M17.2734 4.05444C18.1411 3.99985 18.7896 4.34361 19.2187 5.08569C19.6567 6.23427 19.3521 7.11711 18.3046 7.73413C17.1839 8.10561 16.3324 7.78531 15.7499 6.77319C15.3971 5.7538 15.6549 4.93349 16.5234 4.31225C16.7678 4.19176 17.0178 4.10582 17.2734 4.05444Z" fill="#231F20"/>
<path opacity="0.975" fill-rule="evenodd" clip-rule="evenodd" d="M16.9453 8.03927C17.9704 7.9646 18.9236 8.19115 19.8047 8.71896C19.875 8.78927 19.9453 8.85959 20.0156 8.9299C20.7541 10.6768 21.4182 12.4503 22.0078 14.2502C21.9542 14.6788 21.712 14.921 21.2812 14.9768C20.9443 14.9414 20.7099 14.7695 20.5781 14.4611C20.3686 13.8794 20.1498 13.3013 19.9219 12.7268C19.897 13.9778 19.8501 15.2278 19.7812 16.4768C19.7514 16.5613 19.6967 16.6238 19.6172 16.6643C19.5781 18.7422 19.5547 20.8204 19.5469 22.8986C19.3047 23.6016 18.8438 23.7969 18.164 23.4846C18.0111 23.3631 17.8939 23.2146 17.8125 23.0393C17.789 20.9299 17.7812 18.8206 17.789 16.7111C17.6172 16.7111 17.4453 16.7111 17.2734 16.7111C17.2812 18.7894 17.2734 20.8675 17.25 22.9455C16.981 23.6125 16.5201 23.7922 15.8672 23.4846C15.694 23.3586 15.5768 23.1946 15.5156 22.9924C15.5078 20.8828 15.4843 18.7735 15.4453 16.6643C15.3186 16.6145 15.2483 16.5207 15.2344 16.383C15.2039 15.179 15.1571 13.9759 15.0937 12.7736C15.0537 12.9597 15.0225 13.1472 15 13.3361C14.9844 13.8518 14.9687 14.3674 14.9531 14.883C14.7367 15.4346 14.3539 15.5831 13.8047 15.3283C13.6889 15.2139 13.603 15.0811 13.5469 14.9299C13.4248 12.7929 13.8936 10.7929 14.9531 8.9299C15.2974 8.61307 15.6958 8.38652 16.1484 8.25021C16.4181 8.17118 16.6837 8.10087 16.9453 8.03927ZM17.3203 8.7424C17.6026 8.70851 17.8604 8.77104 18.0937 8.9299C18.0374 9.20857 17.9514 9.48199 17.8359 9.75021C17.5898 9.7879 17.3476 9.78007 17.1094 9.72677C17.0427 9.48354 16.9724 9.24134 16.8984 9.00021C16.9052 8.96402 16.9208 8.93276 16.9453 8.90646C17.077 8.85523 17.202 8.80052 17.3203 8.7424ZM17.0859 10.0549C17.3672 10.0549 17.6484 10.0549 17.9297 10.0549C18.0048 11.0701 18.0595 12.0858 18.0937 13.1018C17.8896 13.3293 17.6943 13.5637 17.5078 13.8049C17.313 13.5724 17.1177 13.338 16.9219 13.1018C16.9453 12.0851 17 11.0695 17.0859 10.0549Z" fill="#231F20"/>
<path opacity="0.961" fill-rule="evenodd" clip-rule="evenodd" d="M5.03905 11.5078C7.00785 11.5 8.9766 11.5078 10.9453 11.5313C11.8951 11.7155 12.4498 12.2858 12.6094 13.2422C12.6484 14.2113 12.6406 15.1801 12.5859 16.1484C12.3984 16.0078 12.2109 15.8672 12.0234 15.7266C11.9954 15.1742 11.9251 14.6273 11.8125 14.0859C11.5015 13.98 11.1812 13.9096 10.8516 13.875C9.99135 13.7893 9.1476 13.8674 8.3203 14.1094C8.24905 14.2311 8.21 14.3639 8.20311 14.5078C8.17799 14.9147 8.18577 15.3209 8.22655 15.7266C8.11719 15.7266 8.00779 15.7266 7.89843 15.7266C7.92636 15.1712 7.87166 14.6243 7.73436 14.0859C7.18761 13.9074 6.62511 13.8293 6.04686 13.8516C5.43018 13.8325 4.82858 13.9185 4.24218 14.1094C4.11895 14.6414 4.0877 15.1805 4.14843 15.7266C4.0534 15.719 3.95965 15.7268 3.86718 15.75C3.71756 15.8762 3.56131 15.9934 3.39843 16.1016C3.33237 15.0537 3.34018 14.0068 3.42186 12.9609C3.67595 12.1518 4.21502 11.6675 5.03905 11.5078Z" fill="#231F20"/>
<path opacity="0.967" fill-rule="evenodd" clip-rule="evenodd" d="M20.3672 15.0233C20.4777 15.0157 20.587 15.0235 20.6953 15.0468C21.0877 15.327 21.4783 15.327 21.8672 15.0468C22.1797 15.0155 22.4922 15.0155 22.8047 15.0468C22.9641 15.2893 22.9015 15.4378 22.6172 15.4921C22.6172 15.9765 22.6172 16.4609 22.6172 16.9452C22.8017 16.9315 22.9814 16.9471 23.1563 16.9921C23.1875 18.5077 23.1875 20.0234 23.1563 21.539C23.0121 21.5759 22.8637 21.5993 22.7109 21.6093C22.9079 21.7596 22.8923 21.8768 22.6641 21.9608C22.5051 21.8921 22.4426 21.7671 22.4766 21.5858C22.304 21.5781 22.1321 21.5859 21.9609 21.6093C22.0925 21.6705 22.1316 21.772 22.0781 21.914C21.8192 21.9751 21.7176 21.8658 21.7734 21.5858C21.6009 21.5781 21.429 21.5859 21.2578 21.6093C21.4404 21.7522 21.4247 21.8694 21.2109 21.9608C21.0519 21.8921 20.9895 21.7671 21.0234 21.5858C20.8509 21.5781 20.679 21.5859 20.5078 21.6093C20.6476 21.674 20.6788 21.7755 20.6016 21.914C20.5011 21.9821 20.4152 21.9665 20.3438 21.8671C20.3206 21.7746 20.3127 21.6809 20.3203 21.5858C20.186 21.6067 20.0688 21.5754 19.9688 21.4921C19.9375 20.0077 19.9375 18.5234 19.9688 17.039C19.9922 17.0155 20.0156 16.9921 20.0391 16.9687C20.2103 16.9453 20.3821 16.9375 20.5547 16.9452C20.5547 16.4609 20.5547 15.9765 20.5547 15.4921C20.3305 15.4945 20.2289 15.3851 20.25 15.164C20.299 15.123 20.338 15.0762 20.3672 15.0233ZM20.9297 15.4452C21.3828 15.4452 21.8359 15.4452 22.2891 15.4452C22.2891 15.9452 22.2891 16.4452 22.2891 16.9452C21.8359 16.9452 21.3828 16.9452 20.9297 16.9452C20.9297 16.4452 20.9297 15.9452 20.9297 15.4452Z" fill="#231F20"/>
<path opacity="0.958" fill-rule="evenodd" clip-rule="evenodd" d="M3.91406 16.0548C3.98333 16.0426 4.04584 16.0582 4.10156 16.1017C4.07681 16.3815 4.20181 16.5455 4.47656 16.5939C5.54409 16.8123 6.60656 16.7811 7.66406 16.5001C7.7153 16.3856 7.76217 16.2684 7.80469 16.1486C7.92591 16.1026 8.05092 16.087 8.17969 16.1017C8.15827 16.3404 8.25202 16.5045 8.46094 16.5939C8.87344 16.7182 9.29531 16.7885 9.72656 16.8048C10.3897 16.7727 11.046 16.6868 11.6953 16.547C11.7837 16.416 11.8618 16.2832 11.9297 16.1486C12.9833 16.9599 14.0302 17.7803 15.0703 18.6095C10.3046 18.6486 5.53898 18.6408 0.773438 18.5861C1.8212 17.7413 2.86808 16.8975 3.91406 16.0548Z" fill="#231F20"/>
<path opacity="0.942" fill-rule="evenodd" clip-rule="evenodd" d="M0.773438 19.0078C5.53908 19.0078 10.3047 19.0078 15.0703 19.0078C15.0703 19.3672 15.0703 19.7265 15.0703 20.0859C10.3047 20.0859 5.53908 20.0859 0.773438 20.0859C0.773438 19.7265 0.773438 19.3672 0.773438 19.0078Z" fill="#231F20"/>
<path opacity="0.978" fill-rule="evenodd" clip-rule="evenodd" d="M0.773438 20.4141C5.53908 20.4141 10.3047 20.4141 15.0703 20.4141C15.0703 21.1797 15.0703 21.9453 15.0703 22.7109C14.7422 22.7109 14.4141 22.7109 14.0859 22.7109C14.0859 22.539 14.0859 22.3672 14.0859 22.1953C9.97655 22.1953 5.8672 22.1953 1.75781 22.1953C1.75781 22.3672 1.75781 22.539 1.75781 22.7109C1.42969 22.7109 1.10156 22.7109 0.773438 22.7109C0.773438 21.9453 0.773438 21.1797 0.773438 20.4141Z" fill="#231F20"/>
</svg>
