<svg width="36" height="35" viewBox="0 0 36 35" fill="none" xmlns="http://www.w3.org/2000/svg">
<g filter="url(#filter0_d_53_2045)">
<path d="M24.2414 16.5624C25.3697 15.6251 26.0871 14.2173 26.0871 12.6433C26.0871 11.0693 25.3697 9.66152 24.2414 8.72425C24.3707 8.66213 24.4951 8.59473 24.6137 8.52167C25.3621 8.06007 26.2454 7.79348 27.1915 7.79348C29.8916 7.79348 32.0804 9.96486 32.0804 12.6433C32.0804 15.3218 29.8916 17.4931 27.1915 17.4931C26.2454 17.4931 25.3621 17.2265 24.6137 16.765C24.4951 16.6919 24.3707 16.6245 24.2414 16.5624Z" fill="white"/>
</g>
<g filter="url(#filter1_d_53_2045)">
<path d="M22.8833 13.408C23.388 12.0367 23.2998 10.4617 22.5064 9.09854C21.713 7.7354 20.382 6.8721 18.9325 6.62002C19.0132 6.50212 19.087 6.38201 19.1528 6.25994C19.5682 5.489 20.1989 4.82 21.0182 4.35074C23.3566 3.0115 26.3467 3.80627 27.6967 6.1259C29.0467 8.44554 28.2456 11.4117 25.9072 12.7509C25.0879 13.2201 24.1885 13.4274 23.3077 13.3989C23.1683 13.3943 23.0265 13.3977 22.8833 13.408Z" fill="white"/>
</g>
<g filter="url(#filter2_d_53_2045)">
<path d="M20.1171 11.3482C19.863 9.91032 18.9928 8.59003 17.6186 7.80302C16.2445 7.016 14.6567 6.92852 13.2743 7.42916C13.2848 7.28705 13.2882 7.14643 13.2836 7.0081C13.2548 6.13436 13.4637 5.2422 13.9368 4.42941C15.2869 2.10978 18.2769 1.31501 20.6153 2.65426C22.9536 3.9935 23.7549 6.9596 22.4048 9.27926C21.9317 10.092 21.2573 10.7176 20.4801 11.1298C20.3572 11.195 20.2361 11.2682 20.1171 11.3482Z" fill="white"/>
</g>
<g filter="url(#filter3_d_53_2045)">
<path d="M16.6817 10.9372C15.7369 9.81798 14.3177 9.10624 12.7309 9.10624C11.1442 9.10624 9.72507 9.81798 8.78025 10.9372C8.71766 10.8089 8.64969 10.6855 8.57602 10.5679C8.11071 9.82551 7.84197 8.94929 7.84197 8.01075C7.84197 5.33226 10.0308 3.16092 12.7309 3.16092C15.4311 3.16092 17.6199 5.33226 17.6199 8.01075C17.6199 8.94929 17.3512 9.82551 16.8859 10.5679C16.8122 10.6855 16.7442 10.8089 16.6817 10.9372Z" fill="white"/>
</g>
<g filter="url(#filter4_d_53_2045)">
<path d="M13.5019 12.284C12.1196 11.7834 10.5318 11.8709 9.15761 12.6578C7.78346 13.4449 6.91318 14.7652 6.65908 16.203C6.54023 16.123 6.41914 16.0499 6.29609 15.9846C5.51892 15.5724 4.84452 14.9468 4.37147 14.1341C3.02141 11.8144 3.82259 8.84836 6.16096 7.5091C8.49933 6.16985 11.4894 6.96461 12.8395 9.28427C13.3125 10.097 13.5214 10.9892 13.4926 11.8629C13.4881 12.0012 13.4914 12.1419 13.5019 12.284Z" fill="white"/>
</g>
<g filter="url(#filter5_d_53_2045)">
<path d="M11.4237 15.0289C9.97418 15.281 8.64324 16.1443 7.84988 17.5075C7.05651 18.8706 6.96832 20.4456 7.47301 21.8169C7.32973 21.8065 7.18796 21.8032 7.04849 21.8077C6.16771 21.8363 5.26835 21.629 4.44901 21.1598C2.11064 19.8205 1.30945 16.8544 2.65951 14.5348C4.00956 12.2152 6.99962 11.4203 9.33799 12.7596C10.1573 13.2289 10.7879 13.8979 11.2034 14.6688C11.2692 14.7909 11.343 14.911 11.4237 15.0289Z" fill="white"/>
</g>
<g filter="url(#filter6_d_53_2045)">
<path d="M11.0076 18.4357C9.87929 19.373 9.16178 20.7808 9.16178 22.3547C9.16178 23.9288 9.87929 25.3366 11.0076 26.2738C10.8783 26.3359 10.7538 26.4034 10.6353 26.4764C9.88692 26.938 9.00359 27.2046 8.05748 27.2046C5.35737 27.2046 3.1685 25.0332 3.1685 22.3547C3.1685 19.6762 5.35737 17.5049 8.05748 17.5049C9.00359 17.5049 9.88692 17.7715 10.6353 18.2331C10.7538 18.3062 10.8783 18.3736 11.0076 18.4357Z" fill="white"/>
</g>
<g filter="url(#filter7_d_53_2045)">
<path d="M12.3653 21.5912C11.8606 22.9625 11.9488 24.5375 12.7422 25.9007C13.5355 27.2639 14.8665 28.1271 16.316 28.3792C16.2353 28.4972 16.1616 28.6173 16.0958 28.7394C15.6803 29.5103 15.0497 30.1792 14.2303 30.6485C11.8919 31.9878 8.90189 31.193 7.55183 28.8734C6.20177 26.5537 7.00296 23.5876 9.34132 22.2483C10.1607 21.7791 11.0601 21.5718 11.9408 21.6004C12.0802 21.6049 12.222 21.6016 12.3653 21.5912Z" fill="white"/>
</g>
<g filter="url(#filter8_d_53_2045)">
<path d="M15.1341 23.6518C15.3882 25.0897 16.2585 26.41 17.6326 27.1969C19.0067 27.984 20.5946 28.0715 21.977 27.5708C21.9665 27.713 21.9631 27.8535 21.9677 27.9919C21.9965 28.8657 21.7876 29.7578 21.3145 30.5706C19.9644 32.8903 16.9744 33.685 14.636 32.3457C12.2976 31.0065 11.4964 28.0404 12.8465 25.7208C13.3196 24.908 13.994 24.2824 14.7711 23.8703C14.8942 23.805 15.0152 23.7318 15.1341 23.6518Z" fill="white"/>
</g>
<g filter="url(#filter9_d_53_2045)">
<path d="M18.5683 24.065C19.5132 25.1843 20.9323 25.896 22.5191 25.896C24.1058 25.896 25.525 25.1843 26.4698 24.065C26.5323 24.1933 26.6003 24.3168 26.674 24.4343C27.1393 25.1767 27.4081 26.053 27.4081 26.9915C27.4081 29.67 25.2192 31.8413 22.5191 31.8413C19.8189 31.8413 17.6301 29.67 17.6301 26.9915C17.6301 26.053 17.8988 25.1767 18.3641 24.4343C18.4378 24.3168 18.5058 24.1933 18.5683 24.065Z" fill="white"/>
</g>
<g filter="url(#filter10_d_53_2045)">
<path d="M21.7493 22.7178C23.1317 23.2184 24.7194 23.1309 26.0936 22.344C27.4677 21.5569 28.338 20.2366 28.5921 18.7988C28.7109 18.8787 28.832 18.9519 28.9551 19.0172C29.7323 19.4294 30.4067 20.0549 30.8797 20.8677C32.2298 23.1874 31.4286 26.1534 29.0903 27.4927C26.7519 28.8319 23.7619 28.0372 22.4118 25.7175C21.9387 24.9048 21.7298 24.0126 21.7585 23.1389C21.7631 23.0006 21.7598 22.8599 21.7493 22.7178Z" fill="white"/>
</g>
<g filter="url(#filter11_d_53_2045)">
<path d="M27.4016 17.4888C27.4006 17.4906 27.3996 17.4923 27.3986 17.494C26.6053 18.8571 25.2744 19.7204 23.8249 19.9725C23.9055 20.0904 23.9793 20.2106 24.0451 20.3326C24.4606 21.1035 25.0912 21.7725 25.9105 22.2418C28.2489 23.5811 31.2389 22.7862 32.589 20.4667C33.7464 18.4779 33.3227 16.0141 31.7048 14.5076C30.994 16.1998 29.3446 17.4067 27.4016 17.4888Z" fill="white"/>
</g>
<defs>
<filter id="filter0_d_53_2045" x="22.2377" y="5.78979" width="11.8464" height="13.707" filterUnits="userSpaceOnUse" color-interpolation-filters="sRGB">
<feFlood flood-opacity="0" result="BackgroundImageFix"/>
<feColorMatrix in="SourceAlpha" type="matrix" values="0 0 0 0 0 0 0 0 0 0 0 0 0 0 0 0 0 0 127 0" result="hardAlpha"/>
<feOffset/>
<feGaussianBlur stdDeviation="1"/>
<feComposite in2="hardAlpha" operator="out"/>
<feColorMatrix type="matrix" values="0 0 0 0 1 0 0 0 0 1 0 0 0 0 1 0 0 0 0.25 0"/>
<feBlend mode="normal" in2="BackgroundImageFix" result="effect1_dropShadow_53_2045"/>
<feBlend mode="normal" in="SourceGraphic" in2="effect1_dropShadow_53_2045" result="shape"/>
</filter>
<filter id="filter1_d_53_2045" x="16.9288" y="1.69649" width="13.4273" height="13.7152" filterUnits="userSpaceOnUse" color-interpolation-filters="sRGB">
<feFlood flood-opacity="0" result="BackgroundImageFix"/>
<feColorMatrix in="SourceAlpha" type="matrix" values="0 0 0 0 0 0 0 0 0 0 0 0 0 0 0 0 0 0 127 0" result="hardAlpha"/>
<feOffset/>
<feGaussianBlur stdDeviation="1"/>
<feComposite in2="hardAlpha" operator="out"/>
<feColorMatrix type="matrix" values="0 0 0 0 1 0 0 0 0 1 0 0 0 0 1 0 0 0 0.25 0"/>
<feBlend mode="normal" in2="BackgroundImageFix" result="effect1_dropShadow_53_2045"/>
<feBlend mode="normal" in="SourceGraphic" in2="effect1_dropShadow_53_2045" result="shape"/>
</filter>
<filter id="filter2_d_53_2045" x="11.2707" y="0" width="13.7937" height="13.3519" filterUnits="userSpaceOnUse" color-interpolation-filters="sRGB">
<feFlood flood-opacity="0" result="BackgroundImageFix"/>
<feColorMatrix in="SourceAlpha" type="matrix" values="0 0 0 0 0 0 0 0 0 0 0 0 0 0 0 0 0 0 127 0" result="hardAlpha"/>
<feOffset/>
<feGaussianBlur stdDeviation="1"/>
<feComposite in2="hardAlpha" operator="out"/>
<feColorMatrix type="matrix" values="0 0 0 0 1 0 0 0 0 1 0 0 0 0 1 0 0 0 0.25 0"/>
<feBlend mode="normal" in2="BackgroundImageFix" result="effect1_dropShadow_53_2045"/>
<feBlend mode="normal" in="SourceGraphic" in2="effect1_dropShadow_53_2045" result="shape"/>
</filter>
<filter id="filter3_d_53_2045" x="5.83828" y="1.15722" width="13.7854" height="11.7837" filterUnits="userSpaceOnUse" color-interpolation-filters="sRGB">
<feFlood flood-opacity="0" result="BackgroundImageFix"/>
<feColorMatrix in="SourceAlpha" type="matrix" values="0 0 0 0 0 0 0 0 0 0 0 0 0 0 0 0 0 0 127 0" result="hardAlpha"/>
<feOffset/>
<feGaussianBlur stdDeviation="1"/>
<feComposite in2="hardAlpha" operator="out"/>
<feColorMatrix type="matrix" values="0 0 0 0 1 0 0 0 0 1 0 0 0 0 1 0 0 0 0.25 0"/>
<feBlend mode="normal" in2="BackgroundImageFix" result="effect1_dropShadow_53_2045"/>
<feBlend mode="normal" in="SourceGraphic" in2="effect1_dropShadow_53_2045" result="shape"/>
</filter>
<filter id="filter4_d_53_2045" x="1.71196" y="4.85483" width="13.7937" height="13.3519" filterUnits="userSpaceOnUse" color-interpolation-filters="sRGB">
<feFlood flood-opacity="0" result="BackgroundImageFix"/>
<feColorMatrix in="SourceAlpha" type="matrix" values="0 0 0 0 0 0 0 0 0 0 0 0 0 0 0 0 0 0 127 0" result="hardAlpha"/>
<feOffset/>
<feGaussianBlur stdDeviation="1"/>
<feComposite in2="hardAlpha" operator="out"/>
<feColorMatrix type="matrix" values="0 0 0 0 1 0 0 0 0 1 0 0 0 0 1 0 0 0 0.25 0"/>
<feBlend mode="normal" in2="BackgroundImageFix" result="effect1_dropShadow_53_2045"/>
<feBlend mode="normal" in="SourceGraphic" in2="effect1_dropShadow_53_2045" result="shape"/>
</filter>
<filter id="filter5_d_53_2045" x="0" y="10.1054" width="13.4274" height="13.7153" filterUnits="userSpaceOnUse" color-interpolation-filters="sRGB">
<feFlood flood-opacity="0" result="BackgroundImageFix"/>
<feColorMatrix in="SourceAlpha" type="matrix" values="0 0 0 0 0 0 0 0 0 0 0 0 0 0 0 0 0 0 127 0" result="hardAlpha"/>
<feOffset/>
<feGaussianBlur stdDeviation="1"/>
<feComposite in2="hardAlpha" operator="out"/>
<feColorMatrix type="matrix" values="0 0 0 0 1 0 0 0 0 1 0 0 0 0 1 0 0 0 0.25 0"/>
<feBlend mode="normal" in2="BackgroundImageFix" result="effect1_dropShadow_53_2045"/>
<feBlend mode="normal" in="SourceGraphic" in2="effect1_dropShadow_53_2045" result="shape"/>
</filter>
<filter id="filter6_d_53_2045" x="1.16481" y="15.5012" width="11.8464" height="13.707" filterUnits="userSpaceOnUse" color-interpolation-filters="sRGB">
<feFlood flood-opacity="0" result="BackgroundImageFix"/>
<feColorMatrix in="SourceAlpha" type="matrix" values="0 0 0 0 0 0 0 0 0 0 0 0 0 0 0 0 0 0 127 0" result="hardAlpha"/>
<feOffset/>
<feGaussianBlur stdDeviation="1"/>
<feComposite in2="hardAlpha" operator="out"/>
<feColorMatrix type="matrix" values="0 0 0 0 1 0 0 0 0 1 0 0 0 0 1 0 0 0 0.25 0"/>
<feBlend mode="normal" in2="BackgroundImageFix" result="effect1_dropShadow_53_2045"/>
<feBlend mode="normal" in="SourceGraphic" in2="effect1_dropShadow_53_2045" result="shape"/>
</filter>
<filter id="filter7_d_53_2045" x="4.89232" y="19.5875" width="13.4274" height="13.7153" filterUnits="userSpaceOnUse" color-interpolation-filters="sRGB">
<feFlood flood-opacity="0" result="BackgroundImageFix"/>
<feColorMatrix in="SourceAlpha" type="matrix" values="0 0 0 0 0 0 0 0 0 0 0 0 0 0 0 0 0 0 127 0" result="hardAlpha"/>
<feOffset/>
<feGaussianBlur stdDeviation="1"/>
<feComposite in2="hardAlpha" operator="out"/>
<feColorMatrix type="matrix" values="0 0 0 0 1 0 0 0 0 1 0 0 0 0 1 0 0 0 0.25 0"/>
<feBlend mode="normal" in2="BackgroundImageFix" result="effect1_dropShadow_53_2045"/>
<feBlend mode="normal" in="SourceGraphic" in2="effect1_dropShadow_53_2045" result="shape"/>
</filter>
<filter id="filter8_d_53_2045" x="10.187" y="21.6481" width="13.7937" height="13.3519" filterUnits="userSpaceOnUse" color-interpolation-filters="sRGB">
<feFlood flood-opacity="0" result="BackgroundImageFix"/>
<feColorMatrix in="SourceAlpha" type="matrix" values="0 0 0 0 0 0 0 0 0 0 0 0 0 0 0 0 0 0 127 0" result="hardAlpha"/>
<feOffset/>
<feGaussianBlur stdDeviation="1"/>
<feComposite in2="hardAlpha" operator="out"/>
<feColorMatrix type="matrix" values="0 0 0 0 1 0 0 0 0 1 0 0 0 0 1 0 0 0 0.25 0"/>
<feBlend mode="normal" in2="BackgroundImageFix" result="effect1_dropShadow_53_2045"/>
<feBlend mode="normal" in="SourceGraphic" in2="effect1_dropShadow_53_2045" result="shape"/>
</filter>
<filter id="filter9_d_53_2045" x="15.6264" y="22.0614" width="13.7854" height="11.7836" filterUnits="userSpaceOnUse" color-interpolation-filters="sRGB">
<feFlood flood-opacity="0" result="BackgroundImageFix"/>
<feColorMatrix in="SourceAlpha" type="matrix" values="0 0 0 0 0 0 0 0 0 0 0 0 0 0 0 0 0 0 127 0" result="hardAlpha"/>
<feOffset/>
<feGaussianBlur stdDeviation="1"/>
<feComposite in2="hardAlpha" operator="out"/>
<feColorMatrix type="matrix" values="0 0 0 0 1 0 0 0 0 1 0 0 0 0 1 0 0 0 0.25 0"/>
<feBlend mode="normal" in2="BackgroundImageFix" result="effect1_dropShadow_53_2045"/>
<feBlend mode="normal" in="SourceGraphic" in2="effect1_dropShadow_53_2045" result="shape"/>
</filter>
<filter id="filter10_d_53_2045" x="19.7456" y="16.7951" width="13.7937" height="13.3519" filterUnits="userSpaceOnUse" color-interpolation-filters="sRGB">
<feFlood flood-opacity="0" result="BackgroundImageFix"/>
<feColorMatrix in="SourceAlpha" type="matrix" values="0 0 0 0 0 0 0 0 0 0 0 0 0 0 0 0 0 0 127 0" result="hardAlpha"/>
<feOffset/>
<feGaussianBlur stdDeviation="1"/>
<feComposite in2="hardAlpha" operator="out"/>
<feColorMatrix type="matrix" values="0 0 0 0 1 0 0 0 0 1 0 0 0 0 1 0 0 0 0.25 0"/>
<feBlend mode="normal" in2="BackgroundImageFix" result="effect1_dropShadow_53_2045"/>
<feBlend mode="normal" in="SourceGraphic" in2="effect1_dropShadow_53_2045" result="shape"/>
</filter>
<filter id="filter11_d_53_2045" x="21.8212" y="12.5039" width="13.4273" height="12.3921" filterUnits="userSpaceOnUse" color-interpolation-filters="sRGB">
<feFlood flood-opacity="0" result="BackgroundImageFix"/>
<feColorMatrix in="SourceAlpha" type="matrix" values="0 0 0 0 0 0 0 0 0 0 0 0 0 0 0 0 0 0 127 0" result="hardAlpha"/>
<feOffset/>
<feGaussianBlur stdDeviation="1"/>
<feComposite in2="hardAlpha" operator="out"/>
<feColorMatrix type="matrix" values="0 0 0 0 1 0 0 0 0 1 0 0 0 0 1 0 0 0 0.25 0"/>
<feBlend mode="normal" in2="BackgroundImageFix" result="effect1_dropShadow_53_2045"/>
<feBlend mode="normal" in="SourceGraphic" in2="effect1_dropShadow_53_2045" result="shape"/>
</filter>
</defs>
</svg>
