<svg width="25" height="25" viewBox="0 0 25 25" fill="none" xmlns="http://www.w3.org/2000/svg">
<path d="M14.4969 2.60811C14.9051 2.60807 15.3062 2.71475 15.6604 2.91756C16.0147 3.12037 16.3098 3.41227 16.5166 3.76435L17.364 5.20914H19.5201C20.4173 5.20914 21.2777 5.56567 21.9122 6.20034C22.5467 6.835 22.9033 7.69582 22.9036 8.59351V18.4893C22.9036 18.9339 22.8161 19.3741 22.646 19.7848C22.476 20.1956 22.2268 20.5688 21.9126 20.8832C21.5984 21.1975 21.2254 21.4469 20.8149 21.617C20.4044 21.7872 19.9644 21.8747 19.5201 21.8747H5.46568C4.56833 21.8747 3.70773 21.518 3.07321 20.8832C2.43868 20.2483 2.08221 19.3872 2.08221 18.4893V8.59351C2.08221 7.69564 2.43868 6.83455 3.07321 6.19966C3.70773 5.56477 4.56833 5.2081 5.46568 5.2081H7.6311L8.54204 3.72477C8.75149 3.38333 9.04491 3.10132 9.3943 2.90564C9.74369 2.70997 10.1374 2.60717 10.5378 2.60707H14.4969V2.60811ZM14.4969 4.1706H10.5378C10.4238 4.1707 10.3113 4.19573 10.2081 4.24396C10.1048 4.29219 10.0134 4.36243 9.94019 4.44977L9.87252 4.54352L8.73464 6.39768C8.66486 6.51156 8.56707 6.60563 8.4506 6.67092C8.33414 6.7362 8.20289 6.77052 8.06939 6.77059H5.46672C5.22738 6.77046 4.99036 6.81751 4.7692 6.90906C4.54804 7.00061 4.34708 7.13486 4.17779 7.30414C4.00851 7.47343 3.87422 7.67443 3.78259 7.89567C3.69097 8.1169 3.64381 8.35403 3.64381 8.59351V18.4893C3.64381 19.4956 4.46001 20.3122 5.46568 20.3122H19.5201C20.0033 20.3122 20.4667 20.1202 20.8084 19.7783C21.15 19.4364 21.342 18.9728 21.342 18.4893V8.59351C21.342 8.11004 21.15 7.64638 20.8084 7.30451C20.4667 6.96265 20.0033 6.77059 19.5201 6.77059H16.9174C16.7813 6.77067 16.6476 6.73514 16.5294 6.66753C16.4113 6.59992 16.3128 6.50259 16.2439 6.38518L15.1695 4.55498C15.1006 4.43772 15.0023 4.34048 14.8844 4.27288C14.7664 4.20529 14.6329 4.16967 14.4969 4.16956V4.1706ZM12.4929 8.33309C13.7354 8.33309 14.927 8.82695 15.8055 9.70602C16.6841 10.5851 17.1777 11.7774 17.1777 13.0206C17.1777 14.2638 16.6841 15.4561 15.8055 16.3351C14.927 17.2142 13.7354 17.7081 12.4929 17.7081C11.2504 17.7081 10.0588 17.2142 9.18023 16.3351C8.30166 15.4561 7.80808 14.2638 7.80808 13.0206C7.80808 11.7774 8.30166 10.5851 9.18023 9.70602C10.0588 8.82695 11.2504 8.33309 12.4929 8.33309ZM12.4929 9.89559C12.0827 9.89559 11.6766 9.97642 11.2977 10.1335C10.9188 10.2905 10.5745 10.5207 10.2845 10.8109C9.99443 11.1011 9.76438 11.4456 9.60743 11.8247C9.45047 12.2038 9.36969 12.6102 9.36969 13.0206C9.36969 13.431 9.45047 13.8373 9.60743 14.2165C9.76438 14.5956 9.99443 14.9401 10.2845 15.2303C10.5745 15.5205 10.9188 15.7506 11.2977 15.9077C11.6766 16.0647 12.0827 16.1456 12.4929 16.1456C13.3212 16.1456 14.1156 15.8163 14.7013 15.2303C15.287 14.6442 15.6161 13.8494 15.6161 13.0206C15.6161 12.1918 15.287 11.3969 14.7013 10.8109C14.1156 10.2248 13.3212 9.89559 12.4929 9.89559Z" fill="#333333"/>
</svg>
