<svg width="60" height="60" viewBox="0 0 60 60" fill="none" xmlns="http://www.w3.org/2000/svg">
<g filter="url(#filter0_d_450_1703)">
<rect x="6" y="2" width="48" height="48" rx="24" fill="white" shape-rendering="crispEdges"/>
<g opacity="0.5">
<path fill-rule="evenodd" clip-rule="evenodd" d="M24.2879 24.8927C24.2879 20.6466 27.7375 17.1968 31.9833 17.1968C36.2178 17.1968 39.6788 20.658 39.6788 24.8927V28.1877C39.6788 28.4326 39.7342 28.7912 39.8393 29.1743C39.9431 29.5528 40.0772 29.8892 40.1992 30.1028L41.5065 32.274C42.5389 33.9948 41.7136 36.2364 39.8117 36.866C34.7225 38.5662 29.2315 38.566 24.1423 36.8656L24.1392 36.8645C23.1788 36.5395 22.4585 35.8673 22.1365 34.9976C21.8141 34.1268 21.9237 33.1467 22.4494 32.2731L23.7586 30.0985C23.7589 30.098 23.7592 30.0975 23.7595 30.097C23.8844 29.8871 24.0211 29.552 24.1266 29.1718C24.2325 28.7904 24.2879 28.4324 24.2879 28.1877V24.8927ZM31.9833 18.907C28.6819 18.907 25.998 21.5911 25.998 24.8927V28.1877C25.998 28.6384 25.9051 29.1583 25.7744 29.6292C25.6437 30.1004 25.4559 30.5911 25.2275 30.9742L25.2256 30.9774L23.9147 33.1548C23.9146 33.1549 23.9147 33.1548 23.9147 33.1548C23.631 33.6265 23.6151 34.066 23.7402 34.4037C23.8655 34.7422 24.1651 35.0674 24.6859 35.2441C29.4233 36.8266 34.5337 36.8264 39.271 35.2435L39.2736 35.2427C40.1295 34.9597 40.5121 33.9416 40.0404 33.1545C40.0403 33.1543 40.0406 33.1548 40.0404 33.1545L38.7214 30.9637C38.5024 30.5841 38.319 30.0967 38.1901 29.6266C38.0615 29.1575 37.9687 28.6382 37.9687 28.1877V24.8927C37.9687 21.6025 35.2733 18.907 31.9833 18.907Z" fill="#231F20"/>
<path fill-rule="evenodd" clip-rule="evenodd" d="M29.0781 18.0705C29.5335 16.9084 30.6641 16.0908 31.9834 16.0908C33.3026 16.0908 34.4332 16.9084 34.8886 18.0705C35.0075 18.3738 34.9436 18.7184 34.724 18.959C34.5043 19.1997 34.167 19.2945 33.8541 19.2037C33.5378 19.1119 33.2186 19.0426 32.8951 19.0033L32.892 19.003C31.9065 18.8798 30.9753 18.9529 30.1129 19.2036C29.8 19.2946 29.4626 19.1998 29.2429 18.9591C29.0231 18.7185 28.9592 18.3739 29.0781 18.0705Z" fill="#231F20"/>
<path fill-rule="evenodd" clip-rule="evenodd" d="M29.4181 36.4648C29.4181 37.1632 29.7086 37.8149 30.1709 38.2773C30.6333 38.7396 31.285 39.0301 31.9833 39.0301C33.3921 39.0301 34.5484 37.8738 34.5484 36.4648H36.2585C36.2585 38.8183 34.3366 40.7403 31.9833 40.7403C30.8119 40.7403 29.7307 40.2556 28.9617 39.4866C28.1928 38.7176 27.708 37.6363 27.708 36.4648H29.4181Z" fill="#231F20"/>
</g>
</g>
<defs>
<filter id="filter0_d_450_1703" x="0" y="0" width="60" height="60" filterUnits="userSpaceOnUse" color-interpolation-filters="sRGB">
<feFlood flood-opacity="0" result="BackgroundImageFix"/>
<feColorMatrix in="SourceAlpha" type="matrix" values="0 0 0 0 0 0 0 0 0 0 0 0 0 0 0 0 0 0 127 0" result="hardAlpha"/>
<feOffset dy="4"/>
<feGaussianBlur stdDeviation="3"/>
<feComposite in2="hardAlpha" operator="out"/>
<feColorMatrix type="matrix" values="0 0 0 0 0 0 0 0 0 0 0 0 0 0 0 0 0 0 0.02 0"/>
<feBlend mode="normal" in2="BackgroundImageFix" result="effect1_dropShadow_450_1703"/>
<feBlend mode="normal" in="SourceGraphic" in2="effect1_dropShadow_450_1703" result="shape"/>
</filter>
</defs>
</svg>
