<svg width="24" height="21" viewBox="0 0 24 21" fill="none" xmlns="http://www.w3.org/2000/svg">
<path d="M12.5817 19.5063H5.64607C2.17828 19.5063 1.02601 17.2017 1.02601 14.8862V5.64607C1.02601 2.17828 2.17828 1.02601 5.64607 1.02601H12.5817C16.0494 1.02601 17.2017 2.17828 17.2017 5.64607V14.8862C17.2017 18.354 16.0385 19.5063 12.5817 19.5063Z" stroke="#007AFE" stroke-width="2" stroke-linecap="round" stroke-linejoin="round"/>
<path d="M20.2525 15.8631L17.2017 13.7232V6.79858L20.2525 4.65865C21.7449 3.61612 22.974 4.25261 22.974 6.08527V14.4475C22.974 16.2801 21.7449 16.9166 20.2525 15.8631Z" stroke="#007AFE" stroke-width="2" stroke-linecap="round" stroke-linejoin="round"/>
<path d="M11.4516 9.16922C12.3607 9.16922 13.0977 8.43223 13.0977 7.52311C13.0977 6.61399 12.3607 5.87701 11.4516 5.87701C10.5424 5.87701 9.80545 6.61399 9.80545 7.52311C9.80545 8.43223 10.5424 9.16922 11.4516 9.16922Z" stroke="#007AFE" stroke-width="2" stroke-linecap="round" stroke-linejoin="round"/>
</svg>
