<svg width="28" height="28" viewBox="0 0 28 28" fill="none" xmlns="http://www.w3.org/2000/svg">
<path d="M10.494 10.5C10.2621 10.5 10.0396 10.5922 9.87563 10.7563C9.71163 10.9204 9.61949 11.1429 9.61949 11.375C9.61949 11.607 9.52736 11.8296 9.36335 11.9937C9.19935 12.1578 8.97692 12.25 8.74499 12.25C8.51305 12.25 8.29062 12.1578 8.12662 11.9937C7.96262 11.8296 7.87048 11.607 7.87048 11.375C7.87048 10.6788 8.14689 10.0111 8.63889 9.51881C9.1309 9.02653 9.7982 8.74996 10.494 8.74996C11.1898 8.74996 11.8571 9.02653 12.3491 9.51881C12.8411 10.0111 13.1175 10.6788 13.1175 11.375C13.1175 11.607 13.0254 11.8296 12.8614 11.9937C12.6974 12.1578 12.4749 12.25 12.243 12.25C12.0111 12.25 11.7886 12.1578 11.6246 11.9937C11.4606 11.8296 11.3685 11.607 11.3685 11.375C11.3685 11.1429 11.2764 10.9204 11.1124 10.7563C10.9484 10.5922 10.7259 10.5 10.494 10.5ZM17.49 10.5C17.2581 10.5 17.0357 10.5922 16.8717 10.7563C16.7077 10.9204 16.6155 11.1429 16.6155 11.375C16.6155 11.607 16.5234 11.8296 16.3594 11.9937C16.1954 12.1578 15.9729 12.25 15.741 12.25C15.5091 12.25 15.2866 12.1578 15.1226 11.9937C14.9586 11.8296 14.8665 11.607 14.8665 11.375C14.8665 10.6788 15.1429 10.0111 15.6349 9.51881C16.1269 9.02653 16.7942 8.74996 17.49 8.74996C18.1858 8.74996 18.8531 9.02653 19.3451 9.51881C19.8371 10.0111 20.1135 10.6788 20.1135 11.375C20.1135 11.607 20.0214 11.8296 19.8574 11.9937C19.6934 12.1578 19.471 12.25 19.239 12.25C19.0071 12.25 18.7847 12.1578 18.6207 11.9937C18.4567 11.8296 18.3645 11.607 18.3645 11.375C18.3645 11.1429 18.2724 10.9204 18.1084 10.7563C17.9444 10.5922 17.722 10.5 17.49 10.5ZM7.9317 14C7.80652 14 7.68281 14.0269 7.56892 14.0789C7.45504 14.1309 7.35363 14.2067 7.27155 14.3013C7.18948 14.3958 7.12865 14.5069 7.09317 14.627C7.0577 14.7471 7.04841 14.8735 7.06594 14.9975C7.30356 16.6661 8.1349 18.1929 9.40725 19.2974C10.6796 20.4019 12.3075 21.0101 13.992 21.0101C15.6765 21.0101 17.3044 20.4019 18.5768 19.2974C19.8491 18.1929 20.6805 16.6661 20.9181 14.9975C20.9356 14.8733 20.9263 14.7469 20.8907 14.6266C20.8551 14.5064 20.7942 14.3952 20.7119 14.3006C20.6296 14.206 20.528 14.1302 20.4139 14.0783C20.2998 14.0265 20.1759 13.9998 20.0506 14H7.9317ZM13.992 19.25C12.9066 19.2501 11.8479 18.9136 10.9615 18.2868C10.0751 17.66 9.4046 16.7737 9.04232 15.75H18.9417C18.5794 16.7737 17.9089 17.66 17.0226 18.2868C16.1362 18.9136 15.0774 19.2501 13.992 19.25ZM24.4861 14C24.4861 12.6211 24.2146 11.2557 23.6872 9.98179C23.1599 8.70787 22.3869 7.55035 21.4124 6.57533C20.438 5.60031 19.2811 4.82688 18.0079 4.29921C16.7347 3.77153 15.3701 3.49994 13.992 3.49994C12.6139 3.49994 11.2493 3.77153 9.97611 4.29921C8.70292 4.82688 7.54606 5.60031 6.5716 6.57533C5.59714 7.55035 4.82415 8.70787 4.29678 9.98179C3.7694 11.2557 3.49796 12.6211 3.49796 14C3.49796 16.7848 4.60358 19.4555 6.5716 21.4246C8.53961 23.3938 11.2088 24.5 13.992 24.5C16.7752 24.5 19.4444 23.3938 21.4124 21.4246C23.3804 19.4555 24.4861 16.7848 24.4861 14ZM5.24697 14C5.24697 11.6793 6.16832 9.45373 7.80833 7.81277C9.44835 6.17182 11.6727 5.24995 13.992 5.24995C16.3113 5.24995 18.5357 6.17182 20.1757 7.81277C21.8157 9.45373 22.737 11.6793 22.737 14C22.737 16.3206 21.8157 18.5463 20.1757 20.1872C18.5357 21.8282 16.3113 22.75 13.992 22.75C11.6727 22.75 9.44835 21.8282 7.80833 20.1872C6.16832 18.5463 5.24697 16.3206 5.24697 14Z" fill="#333333"/>
</svg>
