<svg width="25" height="25" viewBox="0 0 25 25" fill="none" xmlns="http://www.w3.org/2000/svg">
<path d="M7.80798 4.68749C7.80798 3.44429 8.30156 2.25201 9.18013 1.37293C10.0587 0.493859 11.2503 0 12.4928 0C13.7353 0 14.9269 0.493859 15.8054 1.37293C16.684 2.25201 17.1776 3.44429 17.1776 4.68749V12.5C17.1776 13.7432 16.684 14.9354 15.8054 15.8145C14.9269 16.6936 13.7353 17.1874 12.4928 17.1874C11.2503 17.1874 10.0587 16.6936 9.18013 15.8145C8.30156 14.9354 7.80798 13.7432 7.80798 12.5V4.68749Z" fill="white"/>
<path d="M5.46559 10.156C5.67267 10.156 5.87127 10.2383 6.0177 10.3848C6.16413 10.5313 6.24639 10.73 6.24639 10.9372V12.4997C6.24639 14.1573 6.90449 15.747 8.07592 16.9191C9.24735 18.0912 10.8361 18.7497 12.4928 18.7497C14.1494 18.7497 15.7382 18.0912 16.9097 16.9191C18.0811 15.747 18.7392 14.1573 18.7392 12.4997V10.9372C18.7392 10.73 18.8215 10.5313 18.9679 10.3848C19.1143 10.2383 19.3129 10.156 19.52 10.156C19.7271 10.156 19.9257 10.2383 20.0721 10.3848C20.2185 10.5313 20.3008 10.73 20.3008 10.9372V12.4997C20.3008 14.4365 19.5819 16.3042 18.2834 17.7406C16.9849 19.1769 15.1995 20.0795 13.2736 20.2731V23.4372H17.9584C18.1655 23.4372 18.3641 23.5195 18.5105 23.666C18.6569 23.8125 18.7392 24.0112 18.7392 24.2184C18.7392 24.4256 18.6569 24.6244 18.5105 24.7709C18.3641 24.9174 18.1655 24.9997 17.9584 24.9997H7.02719C6.82011 24.9997 6.62151 24.9174 6.47508 24.7709C6.32865 24.6244 6.24639 24.4256 6.24639 24.2184C6.24639 24.0112 6.32865 23.8125 6.47508 23.666C6.62151 23.5195 6.82011 23.4372 7.02719 23.4372H11.712V20.2731C9.78605 20.0795 8.00065 19.1769 6.70219 17.7406C5.40373 16.3042 4.68476 14.4365 4.68479 12.4997V10.9372C4.68479 10.73 4.76705 10.5313 4.91348 10.3848C5.05991 10.2383 5.25851 10.156 5.46559 10.156Z" fill="white"/>
</svg>
