<svg width="12" height="9" viewBox="0 0 12 9" fill="none" xmlns="http://www.w3.org/2000/svg">
<path d="M9.79884 0.286938C9.99934 0.10086 10.2661 -0.00201204 10.543 2.98247e-05C10.8198 0.00207169 11.085 0.108868 11.2825 0.297883C11.4801 0.486897 11.5946 0.743347 11.602 1.01312C11.6093 1.28289 11.5088 1.54488 11.3217 1.74381L5.64288 8.66741C5.54523 8.76995 5.42737 8.85223 5.29635 8.90935C5.16534 8.96646 5.02385 8.99723 4.88036 8.99982C4.73686 9.00242 4.59431 8.97677 4.46121 8.92442C4.32812 8.87208 4.20721 8.7941 4.10574 8.69516L0.339748 5.02385C0.234871 4.92858 0.150753 4.8137 0.0924097 4.68605C0.0340668 4.5584 0.00269498 4.4206 0.000166125 4.28088C-0.00236273 4.14115 0.0240033 4.00236 0.0776907 3.87279C0.131378 3.74321 0.211287 3.6255 0.312651 3.52669C0.414015 3.42787 0.534757 3.34997 0.667674 3.29763C0.800592 3.2453 0.942961 3.21959 1.08629 3.22206C1.22962 3.22452 1.37097 3.25511 1.50191 3.31198C1.63285 3.36886 1.7507 3.45086 1.84842 3.5531L4.82876 6.45713L9.7718 0.317464C9.7807 0.306781 9.7902 0.29659 9.80027 0.286938H9.79884Z" fill="white"/>
</svg>
