<svg width="619" height="158" viewBox="0 0 619 158" fill="none" xmlns="http://www.w3.org/2000/svg">
<g filter="url(#filter0_d_471_3166)">
<ellipse cx="11.0417" cy="51" rx="7.04172" ry="7" fill="white"/>
<path d="M16.5834 51C16.5834 54.0292 14.1107 56.5 11.0417 56.5C7.9727 56.5 5.5 54.0292 5.5 51C5.5 47.9708 7.9727 45.5 11.0417 45.5C14.1107 45.5 16.5834 47.9708 16.5834 51Z" stroke="#045DBD" stroke-width="3"/>
</g>
<g filter="url(#filter1_d_471_3166)">
<ellipse cx="63.2362" cy="96" rx="7.04172" ry="7" fill="white"/>
<path d="M68.7779 96C68.7779 99.0292 66.3052 101.5 63.2362 101.5C60.1672 101.5 57.6945 99.0292 57.6945 96C57.6945 92.9708 60.1672 90.5 63.2362 90.5C66.3052 90.5 68.7779 92.9708 68.7779 96Z" stroke="#045DBD" stroke-width="3"/>
</g>
<g filter="url(#filter2_d_471_3166)">
<ellipse cx="118.088" cy="52" rx="7.04172" ry="7" fill="white"/>
<path d="M123.63 52C123.63 55.0292 121.157 57.5 118.088 57.5C115.019 57.5 112.547 55.0292 112.547 52C112.547 48.9708 115.019 46.5 118.088 46.5C121.157 46.5 123.63 48.9708 123.63 52Z" stroke="#045DBD" stroke-width="3"/>
</g>
<g filter="url(#filter3_d_471_3166)">
<ellipse cx="173.938" cy="71" rx="7.04172" ry="7" fill="white"/>
<path d="M179.479 71C179.479 74.0292 177.007 76.5 173.938 76.5C170.869 76.5 168.396 74.0292 168.396 71C168.396 67.9708 170.869 65.5 173.938 65.5C177.007 65.5 179.479 67.9708 179.479 71Z" stroke="#045DBD" stroke-width="3"/>
</g>
<g filter="url(#filter4_d_471_3166)">
<ellipse cx="229.165" cy="88" rx="7.04172" ry="7" fill="white"/>
<path d="M234.706 88C234.706 91.0292 232.234 93.5 229.165 93.5C226.096 93.5 223.623 91.0292 223.623 88C223.623 84.9708 226.096 82.5 229.165 82.5C232.234 82.5 234.706 84.9708 234.706 88Z" stroke="#045DBD" stroke-width="3"/>
</g>
<g filter="url(#filter5_d_471_3166)">
<ellipse cx="284.017" cy="109" rx="7.04172" ry="7" fill="white"/>
<path d="M289.559 109C289.559 112.029 287.086 114.5 284.017 114.5C280.948 114.5 278.475 112.029 278.475 109C278.475 105.971 280.948 103.5 284.017 103.5C287.086 103.5 289.559 105.971 289.559 109Z" stroke="#045DBD" stroke-width="3"/>
</g>
<g filter="url(#filter6_d_471_3166)">
<ellipse cx="334.756" cy="60" rx="7.04172" ry="7" fill="white"/>
<path d="M340.298 60C340.298 63.0292 337.825 65.5 334.756 65.5C331.687 65.5 329.214 63.0292 329.214 60C329.214 56.9708 331.687 54.5 334.756 54.5C337.825 54.5 340.298 56.9708 340.298 60Z" stroke="#045DBD" stroke-width="3"/>
</g>
<g filter="url(#filter7_d_471_3166)">
<ellipse cx="387.614" cy="143" rx="7.04172" ry="7" fill="white"/>
<path d="M393.155 143C393.155 146.029 390.683 148.5 387.614 148.5C384.545 148.5 382.072 146.029 382.072 143C382.072 139.971 384.545 137.5 387.614 137.5C390.683 137.5 393.155 139.971 393.155 143Z" stroke="#045DBD" stroke-width="3"/>
</g>
<g filter="url(#filter8_d_471_3166)">
<ellipse cx="442.705" cy="104" rx="7.04172" ry="7" fill="white"/>
<path d="M448.247 104C448.247 107.029 445.774 109.5 442.705 109.5C439.636 109.5 437.163 107.029 437.163 104C437.163 100.971 439.636 98.5 442.705 98.5C445.774 98.5 448.247 100.971 448.247 104Z" stroke="#045DBD" stroke-width="3"/>
</g>
<g filter="url(#filter9_d_471_3166)">
<ellipse cx="497.557" cy="89" rx="7.04172" ry="7" fill="white"/>
<path d="M503.099 89C503.099 92.0292 500.626 94.5 497.557 94.5C494.488 94.5 492.015 92.0292 492.015 89C492.015 85.9708 494.488 83.5 497.557 83.5C500.626 83.5 503.099 85.9708 503.099 89Z" stroke="#045DBD" stroke-width="3"/>
</g>
<g filter="url(#filter10_d_471_3166)">
<ellipse cx="552.199" cy="7" rx="7.04172" ry="7" fill="white"/>
<path d="M557.741 7C557.741 10.0292 555.268 12.5 552.199 12.5C549.13 12.5 546.657 10.0292 546.657 7C546.657 3.97082 549.13 1.5 552.199 1.5C555.268 1.5 557.741 3.97082 557.741 7Z" stroke="#045DBD" stroke-width="3"/>
</g>
<g filter="url(#filter11_d_471_3166)">
<ellipse cx="607.051" cy="43" rx="7.04172" ry="7" fill="white"/>
<path d="M612.592 43C612.592 46.0292 610.12 48.5 607.051 48.5C603.982 48.5 601.509 46.0292 601.509 43C601.509 39.9708 603.982 37.5 607.051 37.5C610.12 37.5 612.592 39.9708 612.592 43Z" stroke="#045DBD" stroke-width="3"/>
</g>
<defs>
<filter id="filter0_d_471_3166" x="0" y="44" width="22.0834" height="22" filterUnits="userSpaceOnUse" color-interpolation-filters="sRGB">
<feFlood flood-opacity="0" result="BackgroundImageFix"/>
<feColorMatrix in="SourceAlpha" type="matrix" values="0 0 0 0 0 0 0 0 0 0 0 0 0 0 0 0 0 0 127 0" result="hardAlpha"/>
<feOffset dy="4"/>
<feGaussianBlur stdDeviation="2"/>
<feColorMatrix type="matrix" values="0 0 0 0 0.376471 0 0 0 0 0.356863 0 0 0 0 1 0 0 0 0.17 0"/>
<feBlend mode="normal" in2="BackgroundImageFix" result="effect1_dropShadow_471_3166"/>
<feBlend mode="normal" in="SourceGraphic" in2="effect1_dropShadow_471_3166" result="shape"/>
</filter>
<filter id="filter1_d_471_3166" x="52.1945" y="89" width="22.0835" height="22" filterUnits="userSpaceOnUse" color-interpolation-filters="sRGB">
<feFlood flood-opacity="0" result="BackgroundImageFix"/>
<feColorMatrix in="SourceAlpha" type="matrix" values="0 0 0 0 0 0 0 0 0 0 0 0 0 0 0 0 0 0 127 0" result="hardAlpha"/>
<feOffset dy="4"/>
<feGaussianBlur stdDeviation="2"/>
<feColorMatrix type="matrix" values="0 0 0 0 0.376471 0 0 0 0 0.356863 0 0 0 0 1 0 0 0 0.17 0"/>
<feBlend mode="normal" in2="BackgroundImageFix" result="effect1_dropShadow_471_3166"/>
<feBlend mode="normal" in="SourceGraphic" in2="effect1_dropShadow_471_3166" result="shape"/>
</filter>
<filter id="filter2_d_471_3166" x="107.047" y="45" width="22.0835" height="22" filterUnits="userSpaceOnUse" color-interpolation-filters="sRGB">
<feFlood flood-opacity="0" result="BackgroundImageFix"/>
<feColorMatrix in="SourceAlpha" type="matrix" values="0 0 0 0 0 0 0 0 0 0 0 0 0 0 0 0 0 0 127 0" result="hardAlpha"/>
<feOffset dy="4"/>
<feGaussianBlur stdDeviation="2"/>
<feColorMatrix type="matrix" values="0 0 0 0 0.376471 0 0 0 0 0.356863 0 0 0 0 1 0 0 0 0.17 0"/>
<feBlend mode="normal" in2="BackgroundImageFix" result="effect1_dropShadow_471_3166"/>
<feBlend mode="normal" in="SourceGraphic" in2="effect1_dropShadow_471_3166" result="shape"/>
</filter>
<filter id="filter3_d_471_3166" x="162.896" y="64" width="22.0834" height="22" filterUnits="userSpaceOnUse" color-interpolation-filters="sRGB">
<feFlood flood-opacity="0" result="BackgroundImageFix"/>
<feColorMatrix in="SourceAlpha" type="matrix" values="0 0 0 0 0 0 0 0 0 0 0 0 0 0 0 0 0 0 127 0" result="hardAlpha"/>
<feOffset dy="4"/>
<feGaussianBlur stdDeviation="2"/>
<feColorMatrix type="matrix" values="0 0 0 0 0.376471 0 0 0 0 0.356863 0 0 0 0 1 0 0 0 0.17 0"/>
<feBlend mode="normal" in2="BackgroundImageFix" result="effect1_dropShadow_471_3166"/>
<feBlend mode="normal" in="SourceGraphic" in2="effect1_dropShadow_471_3166" result="shape"/>
</filter>
<filter id="filter4_d_471_3166" x="218.123" y="81" width="22.0834" height="22" filterUnits="userSpaceOnUse" color-interpolation-filters="sRGB">
<feFlood flood-opacity="0" result="BackgroundImageFix"/>
<feColorMatrix in="SourceAlpha" type="matrix" values="0 0 0 0 0 0 0 0 0 0 0 0 0 0 0 0 0 0 127 0" result="hardAlpha"/>
<feOffset dy="4"/>
<feGaussianBlur stdDeviation="2"/>
<feColorMatrix type="matrix" values="0 0 0 0 0.376471 0 0 0 0 0.356863 0 0 0 0 1 0 0 0 0.17 0"/>
<feBlend mode="normal" in2="BackgroundImageFix" result="effect1_dropShadow_471_3166"/>
<feBlend mode="normal" in="SourceGraphic" in2="effect1_dropShadow_471_3166" result="shape"/>
</filter>
<filter id="filter5_d_471_3166" x="272.975" y="102" width="22.0834" height="22" filterUnits="userSpaceOnUse" color-interpolation-filters="sRGB">
<feFlood flood-opacity="0" result="BackgroundImageFix"/>
<feColorMatrix in="SourceAlpha" type="matrix" values="0 0 0 0 0 0 0 0 0 0 0 0 0 0 0 0 0 0 127 0" result="hardAlpha"/>
<feOffset dy="4"/>
<feGaussianBlur stdDeviation="2"/>
<feColorMatrix type="matrix" values="0 0 0 0 0.376471 0 0 0 0 0.356863 0 0 0 0 1 0 0 0 0.17 0"/>
<feBlend mode="normal" in2="BackgroundImageFix" result="effect1_dropShadow_471_3166"/>
<feBlend mode="normal" in="SourceGraphic" in2="effect1_dropShadow_471_3166" result="shape"/>
</filter>
<filter id="filter6_d_471_3166" x="323.714" y="53" width="22.0834" height="22" filterUnits="userSpaceOnUse" color-interpolation-filters="sRGB">
<feFlood flood-opacity="0" result="BackgroundImageFix"/>
<feColorMatrix in="SourceAlpha" type="matrix" values="0 0 0 0 0 0 0 0 0 0 0 0 0 0 0 0 0 0 127 0" result="hardAlpha"/>
<feOffset dy="4"/>
<feGaussianBlur stdDeviation="2"/>
<feColorMatrix type="matrix" values="0 0 0 0 0.376471 0 0 0 0 0.356863 0 0 0 0 1 0 0 0 0.17 0"/>
<feBlend mode="normal" in2="BackgroundImageFix" result="effect1_dropShadow_471_3166"/>
<feBlend mode="normal" in="SourceGraphic" in2="effect1_dropShadow_471_3166" result="shape"/>
</filter>
<filter id="filter7_d_471_3166" x="376.572" y="136" width="22.0835" height="22" filterUnits="userSpaceOnUse" color-interpolation-filters="sRGB">
<feFlood flood-opacity="0" result="BackgroundImageFix"/>
<feColorMatrix in="SourceAlpha" type="matrix" values="0 0 0 0 0 0 0 0 0 0 0 0 0 0 0 0 0 0 127 0" result="hardAlpha"/>
<feOffset dy="4"/>
<feGaussianBlur stdDeviation="2"/>
<feColorMatrix type="matrix" values="0 0 0 0 0.376471 0 0 0 0 0.356863 0 0 0 0 1 0 0 0 0.17 0"/>
<feBlend mode="normal" in2="BackgroundImageFix" result="effect1_dropShadow_471_3166"/>
<feBlend mode="normal" in="SourceGraphic" in2="effect1_dropShadow_471_3166" result="shape"/>
</filter>
<filter id="filter8_d_471_3166" x="431.663" y="97" width="22.0835" height="22" filterUnits="userSpaceOnUse" color-interpolation-filters="sRGB">
<feFlood flood-opacity="0" result="BackgroundImageFix"/>
<feColorMatrix in="SourceAlpha" type="matrix" values="0 0 0 0 0 0 0 0 0 0 0 0 0 0 0 0 0 0 127 0" result="hardAlpha"/>
<feOffset dy="4"/>
<feGaussianBlur stdDeviation="2"/>
<feColorMatrix type="matrix" values="0 0 0 0 0.376471 0 0 0 0 0.356863 0 0 0 0 1 0 0 0 0.17 0"/>
<feBlend mode="normal" in2="BackgroundImageFix" result="effect1_dropShadow_471_3166"/>
<feBlend mode="normal" in="SourceGraphic" in2="effect1_dropShadow_471_3166" result="shape"/>
</filter>
<filter id="filter9_d_471_3166" x="486.515" y="82" width="22.0835" height="22" filterUnits="userSpaceOnUse" color-interpolation-filters="sRGB">
<feFlood flood-opacity="0" result="BackgroundImageFix"/>
<feColorMatrix in="SourceAlpha" type="matrix" values="0 0 0 0 0 0 0 0 0 0 0 0 0 0 0 0 0 0 127 0" result="hardAlpha"/>
<feOffset dy="4"/>
<feGaussianBlur stdDeviation="2"/>
<feColorMatrix type="matrix" values="0 0 0 0 0.376471 0 0 0 0 0.356863 0 0 0 0 1 0 0 0 0.17 0"/>
<feBlend mode="normal" in2="BackgroundImageFix" result="effect1_dropShadow_471_3166"/>
<feBlend mode="normal" in="SourceGraphic" in2="effect1_dropShadow_471_3166" result="shape"/>
</filter>
<filter id="filter10_d_471_3166" x="541.157" y="0" width="22.0835" height="22" filterUnits="userSpaceOnUse" color-interpolation-filters="sRGB">
<feFlood flood-opacity="0" result="BackgroundImageFix"/>
<feColorMatrix in="SourceAlpha" type="matrix" values="0 0 0 0 0 0 0 0 0 0 0 0 0 0 0 0 0 0 127 0" result="hardAlpha"/>
<feOffset dy="4"/>
<feGaussianBlur stdDeviation="2"/>
<feColorMatrix type="matrix" values="0 0 0 0 0.376471 0 0 0 0 0.356863 0 0 0 0 1 0 0 0 0.17 0"/>
<feBlend mode="normal" in2="BackgroundImageFix" result="effect1_dropShadow_471_3166"/>
<feBlend mode="normal" in="SourceGraphic" in2="effect1_dropShadow_471_3166" result="shape"/>
</filter>
<filter id="filter11_d_471_3166" x="596.009" y="36" width="22.0835" height="22" filterUnits="userSpaceOnUse" color-interpolation-filters="sRGB">
<feFlood flood-opacity="0" result="BackgroundImageFix"/>
<feColorMatrix in="SourceAlpha" type="matrix" values="0 0 0 0 0 0 0 0 0 0 0 0 0 0 0 0 0 0 127 0" result="hardAlpha"/>
<feOffset dy="4"/>
<feGaussianBlur stdDeviation="2"/>
<feColorMatrix type="matrix" values="0 0 0 0 0.376471 0 0 0 0 0.356863 0 0 0 0 1 0 0 0 0.17 0"/>
<feBlend mode="normal" in2="BackgroundImageFix" result="effect1_dropShadow_471_3166"/>
<feBlend mode="normal" in="SourceGraphic" in2="effect1_dropShadow_471_3166" result="shape"/>
</filter>
</defs>
</svg>
