<svg width="427" height="456" viewBox="0 0 427 456" fill="none" xmlns="http://www.w3.org/2000/svg">
<path d="M149.177 422.192H188.649C188.762 422.192 188.87 422.144 188.951 422.059C189.031 421.973 189.076 421.857 189.076 421.736C189.076 421.615 189.031 421.499 188.951 421.414C188.87 421.328 188.762 421.28 188.649 421.28H149.177C149.121 421.28 149.065 421.292 149.013 421.315C148.961 421.338 148.914 421.371 148.875 421.414C148.835 421.456 148.804 421.506 148.782 421.562C148.761 421.617 148.75 421.676 148.75 421.736C148.75 421.796 148.761 421.855 148.782 421.911C148.804 421.966 148.835 422.016 148.875 422.059C148.914 422.101 148.961 422.135 149.013 422.157C149.065 422.18 149.121 422.192 149.177 422.192Z" fill="#404B7C"/>
<path d="M258.241 422.192H297.704C297.818 422.192 297.926 422.144 298.006 422.059C298.086 421.973 298.131 421.857 298.131 421.736C298.131 421.615 298.086 421.499 298.006 421.414C297.926 421.328 297.818 421.28 297.704 421.28H258.233C258.119 421.281 258.011 421.331 257.932 421.417C257.853 421.503 257.809 421.62 257.81 421.741C257.811 421.862 257.857 421.977 257.938 422.062C258.019 422.146 258.128 422.193 258.241 422.192Z" fill="#404B7C"/>
<path d="M173.994 424.992H235.567C235.681 424.992 235.789 424.944 235.869 424.858C235.949 424.773 235.994 424.657 235.994 424.536C235.994 424.415 235.949 424.299 235.869 424.214C235.789 424.128 235.681 424.08 235.567 424.08H173.994C173.881 424.08 173.772 424.128 173.692 424.214C173.612 424.299 173.567 424.415 173.567 424.536C173.567 424.657 173.612 424.773 173.692 424.858C173.772 424.944 173.881 424.992 173.994 424.992Z" fill="#404B7C"/>
<path d="M300.787 424.992H316.766C316.879 424.992 316.988 424.944 317.068 424.858C317.148 424.773 317.193 424.657 317.193 424.536C317.193 424.415 317.148 424.299 317.068 424.214C316.988 424.128 316.879 424.08 316.766 424.08H300.787C300.731 424.08 300.676 424.092 300.624 424.115C300.572 424.138 300.525 424.171 300.485 424.214C300.446 424.256 300.414 424.306 300.393 424.362C300.371 424.417 300.36 424.476 300.36 424.536C300.36 424.596 300.371 424.655 300.393 424.711C300.414 424.766 300.446 424.816 300.485 424.858C300.525 424.901 300.572 424.934 300.624 424.957C300.676 424.98 300.731 424.992 300.787 424.992Z" fill="#404B7C"/>
<path d="M290.121 243.996C290.121 243.996 275.671 261.662 241.161 259.117C206.651 256.573 197.026 236.317 197.026 236.317L205.37 195.049L275.62 204.598L290.121 243.996Z" fill="#9AB3DA"/>
<path d="M221.365 381.991L221.92 395.671C222.888 396.268 223.985 396.581 225.102 396.581C226.218 396.581 227.316 396.268 228.283 395.671L229.239 380.979L221.365 381.991Z" fill="#ECBDBB"/>
<path d="M233.048 407.664C233.298 412.06 232.95 416.471 232.015 420.76H229.231C229.231 420.76 227.958 412.753 226.524 409.187C225.089 405.621 231.699 404.499 233.048 407.664Z" fill="#0D1D54"/>
<path d="M229.239 393.628C229.239 393.628 226.216 395.243 220.972 393.628C220.972 393.628 212.381 409.087 209.443 411.868C206.506 414.65 200.049 417.723 197.838 419C195.626 420.277 212.629 421.207 216.626 420.441C220.622 419.675 223.944 414.331 227.284 411.44C229.023 409.854 230.982 408.565 233.091 407.618C233.091 407.618 232.177 399.739 229.239 393.628Z" fill="#005EFE"/>
<path d="M208.376 199.163C208.376 199.163 203.209 228.119 203.927 240.093C204.644 252.068 210.844 303.021 210.844 303.021L218.718 383.277C218.718 383.277 227.659 385.101 231.835 382.639C231.835 382.639 233.151 360.222 234.577 348.503C236.003 336.783 234.577 325.575 233.62 316.272C233.62 316.272 239.701 277.549 241.135 243.413C242.57 209.277 238.275 190.426 225.866 189.149C213.457 187.872 208.376 199.163 208.376 199.163Z" fill="#0D1D54"/>
<path d="M227.805 381.006C227.911 381.007 228.013 380.965 228.092 380.889C228.171 380.813 228.221 380.709 228.232 380.596C228.351 379.374 231.255 350.591 231.092 343.514C230.93 336.437 229.043 316.674 229.026 316.473L234.15 242.209C234.154 242.149 234.146 242.089 234.129 242.032C234.111 241.975 234.083 241.923 234.046 241.877C233.971 241.786 233.866 241.73 233.753 241.721C233.639 241.713 233.528 241.753 233.442 241.832C233.356 241.912 233.304 242.024 233.296 242.145L228.172 316.491C228.172 316.765 230.085 336.501 230.238 343.541C230.392 350.582 227.412 380.204 227.378 380.505C227.365 380.624 227.398 380.744 227.469 380.838C227.539 380.932 227.641 380.993 227.753 381.006H227.796H227.805Z" fill="#9AB3DA"/>
<path d="M275.21 381.991L276.696 396.72C277.663 397.316 278.76 397.63 279.877 397.63C280.994 397.63 282.091 397.316 283.058 396.72V380.97L275.21 381.991Z" fill="#ECBDBB"/>
<path d="M287.858 408.658C288.107 413.054 287.759 417.465 286.824 421.754H284.04C284.04 421.754 282.768 413.747 281.333 410.181C279.898 406.615 286.5 405.512 287.858 408.658Z" fill="#0D1D54"/>
<path d="M284.04 394.65C284.04 394.65 281.017 396.264 275.774 394.65C275.774 394.65 267.182 410.108 264.245 412.89C261.307 415.671 254.851 418.745 252.639 420.022C250.427 421.298 267.43 422.229 271.427 421.463C275.424 420.697 278.746 415.352 282.085 412.461C283.825 410.876 285.783 409.587 287.892 408.64C287.892 408.64 286.944 400.76 284.04 394.65Z" fill="#005EFE"/>
<path d="M234.901 215.132L236.985 245.109C236.985 245.109 255.474 302.51 259.291 314.996C263.109 327.481 271.572 381.398 271.572 381.398C271.572 381.398 274.134 383.897 279.685 383.897C285.236 383.897 286.517 381.061 286.517 381.061C286.517 381.061 287.713 340.468 286.517 329.989C285.321 319.51 281.504 303.751 281.265 296.364C281.026 288.976 281.504 248.474 279.83 231.612C278.156 214.749 270.769 188.866 253.706 188.966C236.643 189.067 234.073 203.221 234.901 215.132Z" fill="#0D1D54"/>
<path d="M282.349 379.812C282.406 379.81 282.461 379.797 282.512 379.773C282.564 379.749 282.61 379.715 282.649 379.672C282.688 379.628 282.718 379.577 282.739 379.522C282.759 379.466 282.769 379.406 282.768 379.346C282.768 379.1 282.443 354.567 281.974 341.799C281.615 331.986 279.864 319.574 278.711 311.366C278.344 308.758 278.028 306.505 277.857 304.909C277.132 298.899 275.637 286.395 275.637 276.637C275.637 267.052 272.016 216.819 271.982 216.308C271.979 216.248 271.964 216.189 271.939 216.135C271.914 216.08 271.879 216.032 271.835 215.993C271.792 215.954 271.742 215.924 271.688 215.906C271.634 215.888 271.577 215.882 271.521 215.889C271.465 215.893 271.41 215.91 271.36 215.937C271.31 215.964 271.265 216.002 271.228 216.048C271.192 216.093 271.164 216.146 271.147 216.204C271.13 216.261 271.123 216.321 271.128 216.381C271.128 216.883 274.783 267.088 274.783 276.637C274.783 286.487 276.286 299.027 277.012 305.055C277.208 306.66 277.524 308.922 277.866 311.539C279.019 319.747 280.761 332.114 281.12 341.872C281.589 354.64 281.914 379.146 281.914 379.392C281.923 379.508 281.973 379.616 282.054 379.694C282.135 379.772 282.24 379.814 282.349 379.812Z" fill="#9AB3DA"/>
<path d="M236.985 245.565C237.072 245.564 237.157 245.535 237.227 245.481C237.298 245.428 237.352 245.352 237.382 245.265C237.412 245.178 237.416 245.083 237.394 244.993C237.372 244.903 237.324 244.823 237.258 244.763L233.979 241.835C233.29 241.218 232.726 240.457 232.322 239.6C231.919 238.742 231.683 237.805 231.63 236.846L230.366 212.824C230.36 212.703 230.308 212.59 230.223 212.51C230.138 212.43 230.027 212.388 229.914 212.396C229.801 212.403 229.695 212.458 229.619 212.549C229.544 212.639 229.506 212.758 229.512 212.879L230.776 236.901C230.834 237.985 231.098 239.045 231.554 240.016C232.009 240.987 232.645 241.848 233.424 242.546L236.703 245.474C236.784 245.539 236.884 245.571 236.985 245.565Z" fill="#9AB3DA"/>
<path d="M236.985 245.565C237.097 245.556 237.201 245.5 237.274 245.409C237.348 245.319 237.385 245.201 237.378 245.082L235.294 213.517C235.291 213.458 235.277 213.4 235.252 213.346C235.227 213.293 235.193 213.245 235.151 213.206C235.108 213.167 235.059 213.137 235.006 213.118C234.953 213.1 234.897 213.093 234.841 213.098C234.73 213.107 234.626 213.163 234.552 213.254C234.479 213.344 234.442 213.462 234.449 213.581L236.558 245.136C236.565 245.253 236.612 245.362 236.692 245.441C236.771 245.521 236.876 245.565 236.985 245.565Z" fill="#9AB3DA"/>
<path d="M216.711 105.719C216.711 105.719 208.718 114.255 199.494 151.784L200.451 172.423C200.451 172.423 206.933 175.524 210.75 173.991C214.567 172.459 218.026 162.272 220.887 142.272C222.519 129.907 221.079 117.302 216.711 105.719Z" fill="#005EFE"/>
<path d="M201.98 150.936C204.072 153.6 205.549 156.752 206.29 160.137C207.032 163.523 207.018 167.047 206.25 170.425C204.311 179.016 198.811 180.357 198.811 180.357L192.765 176.873C192.765 176.873 189.622 168.51 190.263 160.357C190.903 152.204 194.251 147.744 194.251 147.744L201.98 150.936Z" fill="#404B7C"/>
<path d="M142.516 136.8C141.576 135.177 141.781 134.064 142.84 134.484C143.318 134.657 144.36 135.168 145.556 135.797C144.702 134.1 145.411 132.769 146.777 133.426C147.339 133.728 147.884 134.066 148.408 134.438C148.289 133.152 149.074 132.441 150.116 133.143C151.829 134.544 153.465 136.049 155.018 137.648L157.273 137.283C156.506 135.965 155.827 134.59 155.24 133.17C155.001 132.194 155.556 131.346 156.154 131.638C156.581 131.884 161.227 136.417 163.84 139.016C166.094 140.138 168.247 141.314 168.247 141.314L195.241 151.483C195.241 151.483 198.581 161.515 195.72 170.416C195.72 170.416 165.505 146.64 163.439 145.619C161.372 144.598 149.049 143.923 147.452 143.412C145.855 142.901 140.927 137.803 140.62 136.618C140.483 136.134 141.363 136.344 142.516 136.8Z" fill="#ECBDBB"/>
<path d="M147.503 139.609H147.58L155.103 138.077C155.217 138.054 155.317 137.984 155.382 137.882C155.447 137.78 155.471 137.655 155.449 137.534C155.428 137.413 155.362 137.306 155.267 137.237C155.172 137.168 155.054 137.142 154.941 137.165L147.546 138.67L142.678 136.353C142.626 136.324 142.57 136.307 142.512 136.302C142.453 136.297 142.395 136.305 142.34 136.325C142.285 136.346 142.234 136.378 142.191 136.42C142.148 136.462 142.113 136.512 142.089 136.569C142.065 136.626 142.053 136.687 142.052 136.75C142.051 136.812 142.062 136.874 142.084 136.931C142.107 136.989 142.14 137.041 142.182 137.084C142.223 137.127 142.273 137.161 142.328 137.183L147.315 139.554C147.373 139.588 147.437 139.606 147.503 139.609Z" fill="#404B7C"/>
<path d="M148.246 138.223C148.337 138.223 148.426 138.193 148.5 138.136C148.574 138.079 148.628 137.998 148.656 137.905C148.684 137.812 148.683 137.713 148.654 137.62C148.624 137.528 148.568 137.449 148.494 137.393L145.795 135.396C145.702 135.334 145.59 135.313 145.483 135.336C145.376 135.36 145.282 135.427 145.219 135.523C145.157 135.619 145.131 135.736 145.148 135.852C145.164 135.967 145.222 136.072 145.308 136.143L148.007 138.141C148.077 138.193 148.16 138.222 148.246 138.223Z" fill="#404B7C"/>
<path d="M151.09 137.229C151.179 137.23 151.266 137.202 151.339 137.148C151.412 137.094 151.468 137.016 151.498 136.927C151.528 136.838 151.531 136.74 151.507 136.649C151.483 136.558 151.432 136.476 151.363 136.417L148.681 134.064C148.594 133.987 148.482 133.949 148.369 133.96C148.313 133.966 148.259 133.983 148.209 134.011C148.159 134.039 148.115 134.077 148.079 134.123C148.043 134.169 148.016 134.223 148 134.28C147.983 134.337 147.977 134.397 147.982 134.457C147.988 134.517 148.004 134.575 148.03 134.628C148.056 134.681 148.092 134.728 148.135 134.766L150.816 137.128C150.894 137.195 150.99 137.23 151.09 137.229Z" fill="#404B7C"/>
<path d="M241.161 95.2675L258.574 111.446C258.574 111.446 276.465 205.957 275.757 205.957C275.048 205.957 251.742 213.855 230.589 209.523C209.435 205.191 205.618 199.336 205.618 199.336L215.866 138.232L218.129 108.136L241.161 95.2675Z" fill="#9AB3DA"/>
<path d="M244.244 211.265C254.501 211.126 264.7 209.594 274.595 206.705C275.159 206.55 275.646 206.413 275.748 206.404C275.804 206.404 275.859 206.392 275.91 206.369C275.962 206.346 276.008 206.312 276.047 206.27C276.086 206.227 276.117 206.177 276.137 206.122C276.158 206.066 276.168 206.007 276.167 205.948C276.164 205.826 276.117 205.71 276.036 205.625C275.955 205.54 275.845 205.492 275.731 205.492C275.276 205.564 274.828 205.677 274.39 205.829C253.501 211.63 239.069 210.8 230.648 209.067C209.905 204.817 205.985 199.126 205.951 199.035C205.92 198.982 205.88 198.937 205.832 198.901C205.785 198.866 205.731 198.841 205.674 198.829C205.618 198.816 205.559 198.816 205.502 198.829C205.446 198.841 205.392 198.866 205.344 198.901C205.297 198.936 205.256 198.982 205.226 199.034C205.195 199.087 205.175 199.145 205.166 199.206C205.157 199.267 205.16 199.33 205.175 199.39C205.189 199.45 205.215 199.506 205.25 199.555C205.413 199.801 209.409 205.62 230.486 209.933C235.023 210.839 239.629 211.285 244.244 211.265Z" fill="#404B7C"/>
<path d="M252.212 205.1C260.026 205.1 265.406 204.562 265.543 204.543C265.599 204.537 265.653 204.52 265.703 204.491C265.753 204.463 265.796 204.424 265.832 204.378C265.868 204.331 265.895 204.277 265.911 204.22C265.927 204.162 265.933 204.102 265.927 204.042C265.921 203.982 265.905 203.924 265.878 203.871C265.852 203.818 265.815 203.771 265.772 203.733C265.728 203.695 265.678 203.666 265.624 203.649C265.57 203.631 265.513 203.625 265.457 203.631C265.116 203.631 231.127 207.06 209.375 196.536C209.273 196.495 209.161 196.497 209.061 196.541C208.96 196.586 208.879 196.669 208.835 196.775C208.79 196.881 208.785 197.001 208.82 197.111C208.856 197.221 208.929 197.312 209.025 197.366C222.339 203.823 240.162 205.1 252.212 205.1Z" fill="#404B7C"/>
<path d="M241.161 169.787C243.228 208.337 256.909 240.102 256.909 240.102C270.428 248.256 290.121 244.006 290.121 244.006C290.121 244.006 277.26 188.647 274.083 166.221C270.906 143.795 268.472 110.689 268.472 110.689C268.472 110.689 255.295 98.3501 245.918 94.5562C246.345 99.3168 247.933 119.016 246.336 133.106C244.5 149.231 241.161 169.787 241.161 169.787Z" fill="#005EFE"/>
<path d="M236.985 94.5562C229.884 97.5201 223.09 101.261 216.711 105.719V111.957C216.711 111.957 211.698 129.787 211.459 132.933C211.22 136.08 213.722 147.197 213.722 147.197C213.722 147.197 198.692 209.213 197.026 236.235C203.174 235.794 209.278 234.815 215.276 233.308C215.276 233.308 215.276 210.17 216.028 193.016C216.403 183.367 217.52 173.768 219.367 164.315C219.367 164.315 228.436 123.932 230.58 115.441C232.724 106.95 236.985 94.5562 236.985 94.5562Z" fill="#005EFE"/>
<path d="M208.555 170.17C208.638 170.17 208.719 170.141 208.784 170.086C208.849 170.032 208.895 169.955 208.914 169.869C211.766 156.91 214.038 147.434 214.081 147.334C214.096 147.271 214.096 147.205 214.081 147.142C214.081 147.033 211.596 136.089 211.826 132.997C212.057 129.905 217.01 112.24 217.061 112.021C217.066 111.985 217.066 111.948 217.061 111.912V107.516C217.061 107.412 217.023 107.312 216.954 107.238C216.885 107.165 216.791 107.124 216.694 107.124C216.597 107.124 216.503 107.165 216.434 107.238C216.365 107.312 216.327 107.412 216.327 107.516V111.848C215.968 113.134 211.314 129.759 211.083 132.888C210.853 136.016 213.073 146.02 213.338 147.179C213.09 148.2 210.887 157.366 208.214 169.632C208.202 169.682 208.2 169.735 208.208 169.786C208.216 169.837 208.232 169.886 208.258 169.93C208.283 169.974 208.317 170.012 208.356 170.043C208.395 170.073 208.44 170.094 208.487 170.106H208.572L208.555 170.17Z" fill="#86B7FF"/>
<path d="M242.912 91.2C247.72 92.0026 251.896 103.43 253.689 113.535L248.301 118.797L253.689 128.984C253.689 128.984 245.619 150.553 241.17 169.741C241.17 169.741 243.236 138.496 244.671 121.25C244.389 103.548 236.763 102.901 230.597 119.554C224.619 137.986 219.384 164.306 219.384 164.306C219.384 164.306 218.752 137.986 220.016 123.804L227.967 117.265L225.584 110.644C225.584 110.644 233.765 89.7043 242.912 91.2Z" fill="#005EFE"/>
<path d="M219.376 164.744C219.424 164.742 219.471 164.731 219.515 164.71C219.56 164.69 219.599 164.66 219.633 164.622C219.666 164.585 219.692 164.541 219.71 164.493C219.727 164.445 219.735 164.394 219.734 164.342C219.734 164.078 219.119 138.086 220.358 124.05L228.189 117.648C228.251 117.597 228.296 117.526 228.317 117.446C228.339 117.365 228.336 117.279 228.308 117.201L225.977 110.726C227.8 106.29 230.092 102.092 232.809 98.2133C232.869 98.131 232.896 98.0267 232.884 97.9232C232.872 97.8198 232.822 97.7256 232.745 97.6615C232.668 97.5974 232.57 97.5686 232.473 97.5814C232.376 97.5943 232.288 97.6477 232.228 97.7299C229.461 101.709 227.131 106.014 225.285 110.562C225.25 110.655 225.25 110.76 225.285 110.854L227.574 117.238L219.837 123.622C219.796 123.654 219.762 123.695 219.737 123.742C219.712 123.789 219.697 123.841 219.691 123.895C218.428 137.94 219.051 164.187 219.051 164.452C219.07 164.53 219.112 164.601 219.17 164.653C219.228 164.705 219.3 164.737 219.376 164.744Z" fill="#86B7FF"/>
<path d="M242.997 162.847C243.076 162.846 243.153 162.818 243.216 162.767C243.279 162.716 243.325 162.645 243.347 162.564C247.814 145.82 253.963 129.34 254.022 129.176C254.046 129.123 254.058 129.065 254.058 129.007C254.058 128.949 254.046 128.891 254.022 128.838L248.779 118.916L253.954 113.863C254 113.818 254.035 113.76 254.054 113.696C254.074 113.632 254.077 113.564 254.065 113.498C253.13 107.75 251.404 102.181 248.941 96.973C248.921 96.9219 248.892 96.8759 248.854 96.8379C248.817 96.7999 248.773 96.7707 248.724 96.7523C248.675 96.7339 248.623 96.7266 248.572 96.731C248.521 96.7355 248.47 96.7514 248.425 96.7779C248.38 96.8043 248.34 96.8407 248.309 96.8846C248.278 96.9285 248.256 96.9789 248.244 97.0326C248.232 97.0863 248.231 97.1421 248.241 97.1962C248.251 97.2504 248.271 97.3017 248.3 97.3469C250.7 102.419 252.389 107.839 253.313 113.435L248.078 118.551C248.018 118.611 247.978 118.692 247.965 118.78C247.953 118.868 247.969 118.957 248.01 119.034L253.313 129.066C252.639 130.89 246.908 146.504 242.681 162.354C242.655 162.453 242.666 162.56 242.712 162.65C242.758 162.741 242.836 162.808 242.929 162.838L242.997 162.847Z" fill="#86B7FF"/>
<path d="M268.472 110.68C273.895 115.35 277.823 130.899 268.472 143.038C260.111 153.891 237.822 175.514 232.937 176.536C228.052 177.557 223.159 170.927 223.159 170.927C223.159 170.927 222.681 156.171 224.235 153.043C224.618 152.168 225.182 151.397 225.885 150.789C226.588 150.181 227.41 149.751 228.291 149.531L231.511 151.565C231.511 151.565 245.457 129.677 252.741 121.889C257.274 117.123 262.612 113.32 268.472 110.68Z" fill="#005EFE"/>
<path d="M231.878 177.037C232.257 177.037 232.634 176.997 233.005 176.919C238.078 175.861 260.052 154.329 268.267 143.914C268.301 143.874 268.326 143.828 268.343 143.778C268.359 143.728 268.366 143.675 268.362 143.623C268.359 143.57 268.345 143.518 268.323 143.471C268.3 143.424 268.269 143.382 268.231 143.348C268.193 143.314 268.149 143.289 268.101 143.274C268.054 143.258 268.004 143.254 267.954 143.26C267.905 143.266 267.857 143.282 267.814 143.308C267.771 143.335 267.733 143.37 267.703 143.412C258.771 154.73 237.515 175.186 232.86 176.153C228.59 177.065 224.141 171.593 223.509 170.79C223.509 169.322 223.133 156.089 224.542 153.234C224.895 152.437 225.406 151.732 226.038 151.165C226.67 150.598 227.41 150.184 228.206 149.951L231.306 151.912C231.386 151.961 231.481 151.976 231.571 151.954C231.661 151.932 231.741 151.875 231.793 151.793C231.929 151.574 245.807 129.823 252.972 122.172C256.314 118.664 260.1 115.674 264.219 113.289C264.293 113.233 264.345 113.151 264.366 113.057C264.387 112.963 264.374 112.864 264.331 112.779C264.287 112.695 264.216 112.63 264.131 112.598C264.046 112.566 263.953 112.568 263.869 112.605C259.69 115.028 255.85 118.064 252.46 121.624C245.704 128.829 233.099 148.373 231.383 151.055L228.462 149.231C228.391 149.184 228.306 149.164 228.223 149.176C227.284 149.403 226.405 149.857 225.655 150.502C224.905 151.146 224.302 151.966 223.893 152.897C222.313 156.089 222.757 170.371 222.774 170.982C222.777 171.064 222.804 171.144 222.851 171.21C223.056 171.456 227.249 177.037 231.878 177.037Z" fill="#86B7FF"/>
<path d="M231.238 149.896L223.705 144.826C223.705 144.826 218.923 146.796 217.428 154.438C215.934 162.081 218.282 170.617 218.282 170.617C218.282 170.617 225.328 176.481 225.328 176.29C228.881 173.625 231.542 169.816 232.92 165.419C235.576 157.457 231.238 149.896 231.238 149.896Z" fill="#404B7C"/>
<path d="M223.637 148.547L192.039 130.717C192.039 130.717 184.302 123.941 180.937 121.971C177.572 120.001 176.163 120.311 176.283 121.269C176.402 122.226 179.861 124.771 180.399 126.686C180.937 128.601 177.581 127.963 176.274 127.707C174.968 127.452 168.11 124.971 165.907 124.014C163.703 123.056 163.643 125.035 164.199 126.048C164.754 127.06 167.657 128.528 167.657 128.528C168.074 129.775 168.739 130.91 169.604 131.857C169.969 133.074 170.73 134.113 171.748 134.784C172.418 135.895 173.235 136.896 174.173 137.758C175.369 138.67 188.99 138.67 190.749 138.943C192.509 139.217 214.055 161.533 219.299 166.796C219.299 166.805 227.284 161.205 223.637 148.547Z" fill="#ECBDBB"/>
<path d="M174.805 132.112C174.919 132.135 175.036 132.109 175.131 132.04C175.226 131.971 175.292 131.864 175.313 131.743C175.335 131.622 175.311 131.497 175.246 131.395C175.181 131.293 175.081 131.223 174.968 131.2C173.26 130.48 169.451 128.738 169.451 128.738L169.118 129.577C169.118 129.577 172.978 131.319 174.652 132.039C174.698 132.074 174.75 132.099 174.805 132.112Z" fill="#404B7C"/>
<path d="M175.07 134.748C175.183 134.766 175.299 134.736 175.391 134.663C175.483 134.59 175.544 134.481 175.561 134.36C175.578 134.239 175.549 134.116 175.481 134.018C175.413 133.92 175.311 133.854 175.198 133.836C173.744 133.315 172.318 132.706 170.928 132.012C170.828 131.97 170.716 131.97 170.615 132.012C170.515 132.055 170.433 132.136 170.387 132.24C170.34 132.344 170.332 132.463 170.365 132.573C170.397 132.683 170.467 132.776 170.561 132.833C171.975 133.551 173.426 134.181 174.908 134.721L175.07 134.748Z" fill="#404B7C"/>
<path d="M176.513 136.992C176.569 136.998 176.626 136.993 176.68 136.976C176.734 136.959 176.785 136.931 176.829 136.893C176.918 136.817 176.975 136.707 176.987 136.586C177 136.465 176.967 136.343 176.895 136.249C176.824 136.154 176.72 136.093 176.607 136.08C175.399 135.722 174.215 135.277 173.063 134.748C173.011 134.722 172.955 134.707 172.897 134.705C172.84 134.703 172.783 134.713 172.729 134.735C172.675 134.757 172.626 134.79 172.585 134.832C172.544 134.875 172.511 134.926 172.488 134.983C172.466 135.039 172.454 135.1 172.454 135.161C172.454 135.223 172.466 135.283 172.489 135.34C172.511 135.396 172.544 135.447 172.586 135.49C172.627 135.532 172.676 135.565 172.73 135.587C173.928 136.14 175.161 136.604 176.419 136.973H176.513V136.992Z" fill="#0D1D54"/>
<path d="M252.374 61.104C252.374 61.104 255.833 53.9995 261.324 52.5312C266.815 51.0629 270.445 57.0912 271.162 64.4419C271.879 71.7926 266.764 77.976 259.206 70.9992C253.211 65.5272 252.374 61.104 252.374 61.104Z" fill="#0D1D54"/>
<path d="M253.809 61.1952C253.809 61.1952 262.571 66.2933 261.614 74.784C260.658 83.2747 246.704 89.9414 239.188 85.0987C231.673 80.256 233.526 73.3157 233.526 73.3157C233.526 73.3157 226.908 72.6773 226.788 65.8646C226.669 59.052 229.948 57.839 233.347 58.5686C233.347 58.5686 232.092 50.0962 239.427 49.3301C246.763 48.564 252.314 52.7866 253.809 61.1952Z" fill="#0D1D54"/>
<path d="M261.486 71.8474H261.572C261.627 71.8354 261.679 71.812 261.725 71.7785C261.772 71.7449 261.812 71.702 261.843 71.652C261.874 71.602 261.895 71.546 261.906 71.4872C261.916 71.4284 261.916 71.368 261.905 71.3093C260.649 64.752 254.279 60.9672 254.014 60.8122C253.914 60.7541 253.797 60.7407 253.688 60.7749C253.579 60.8091 253.487 60.8881 253.433 60.9946C253.379 61.101 253.366 61.2261 253.398 61.3424C253.43 61.4587 253.504 61.5567 253.604 61.6147C253.664 61.6147 259.889 65.3539 261.068 71.5008C261.091 71.6004 261.145 71.6888 261.221 71.7517C261.297 71.8146 261.39 71.8483 261.486 71.8474Z" fill="#9AB3DA"/>
<path d="M230.58 119.6C231.283 122.369 232.927 124.759 235.192 126.303C240.316 125.883 244.654 121.296 244.654 121.296V103.375C244.714 98.496 245.773 86.7494 246.174 82.463L246.328 80.8762L238.454 82.7002C238.454 82.7002 238.283 86.6674 237.959 91.0723C237.643 95.2675 237.164 99.8822 236.549 101.87C235.277 105.92 230.58 119.6 230.58 119.6Z" fill="#ECBDBB"/>
<path d="M237.967 91.045C242.502 89.5493 244.927 85.6368 246.183 82.463L246.336 80.8762L238.462 82.7002C238.462 82.7002 238.266 86.64 237.967 91.045Z" fill="#404B7C"/>
<path d="M234.961 65.4634C232.74 69.6265 231.492 74.3005 231.323 79.0886C231.144 86.795 236.865 87.625 242.656 85.0075C248.446 82.3901 252.05 73.5437 252.05 73.5437C252.05 73.5437 254.671 65.9011 249.846 62.399C248.693 61.5181 247.383 60.8971 245.998 60.5738C244.613 60.2504 243.18 60.2315 241.788 60.5182C240.395 60.8048 239.072 61.3911 237.898 62.2412C236.725 63.0914 235.725 64.1877 234.961 65.4634Z" fill="#ECBDBB"/>
<path d="M249.095 64.825C249.095 64.825 241.409 71.3184 231.861 67.0502C231.861 67.0502 238.898 52.9142 250.111 59.7542C261.324 66.5942 255.952 76.3162 249.872 77.8392C249.872 77.8848 246.533 73.6805 249.095 64.825Z" fill="#0D1D54"/>
<path d="M245.952 81.168L248.779 76.836C248.779 76.836 251.759 73.9449 254.586 75.8145C257.413 77.6841 254.398 86.1019 245.952 81.168Z" fill="#ECBDBB"/>
<path d="M247.78 79.9915C247.876 79.9909 247.969 79.9556 248.044 79.8912C249.652 78.6047 251.631 77.9594 253.638 78.0672C253.694 78.0732 253.751 78.0673 253.805 78.0499C253.859 78.0326 253.909 78.004 253.952 77.9659C253.996 77.9278 254.032 77.8809 254.059 77.8278C254.085 77.7748 254.102 77.7167 254.108 77.6568C254.113 77.5969 254.108 77.5364 254.092 77.4788C254.075 77.4212 254.048 77.3676 254.013 77.321C253.977 77.2744 253.933 77.2358 253.884 77.2074C253.834 77.1789 253.779 77.1612 253.723 77.1552C251.501 77.0051 249.3 77.7033 247.515 79.1251C247.411 79.1659 247.326 79.248 247.278 79.3542C247.23 79.4603 247.222 79.5823 247.256 79.6945C247.291 79.8066 247.364 79.9002 247.462 79.9556C247.559 80.011 247.673 80.0239 247.78 79.9915Z" fill="#404B7C"/>
<path d="M251.213 81.2227C251.31 81.2232 251.404 81.1882 251.48 81.1235C251.557 81.0588 251.61 80.9684 251.631 80.867C251.818 79.8511 251.841 78.8087 251.699 77.7845C251.691 77.7246 251.672 77.6671 251.642 77.6152C251.613 77.5633 251.575 77.5181 251.529 77.4821C251.483 77.4461 251.432 77.42 251.377 77.4054C251.322 77.3908 251.264 77.3879 251.208 77.3969C251.152 77.4059 251.098 77.4266 251.05 77.4578C251.001 77.489 250.959 77.5301 250.925 77.5788C250.891 77.6275 250.867 77.6828 250.853 77.7416C250.84 77.8003 250.837 77.8614 250.845 77.9213C250.971 78.83 250.954 79.7547 250.794 80.6573C250.782 80.716 250.78 80.7768 250.79 80.8361C250.799 80.8955 250.819 80.9522 250.85 81.0031C250.88 81.054 250.919 81.098 250.965 81.1325C251.011 81.1671 251.064 81.1916 251.119 81.2045H251.213V81.2227Z" fill="#404B7C"/>
<path d="M248.659 89.7408C250.205 89.7408 251.409 87.6979 251.409 85.0805C251.416 84.197 251.262 83.3204 250.956 82.4995C250.939 82.4387 250.91 82.3824 250.871 82.3343C250.832 82.2862 250.784 82.2473 250.731 82.2201C250.677 82.193 250.618 82.1781 250.559 82.1765C250.499 82.1749 250.44 82.1867 250.385 82.2109C250.33 82.2352 250.28 82.2715 250.239 82.3174C250.198 82.3634 250.166 82.4181 250.146 82.4779C250.126 82.5377 250.118 82.6013 250.122 82.6647C250.126 82.7282 250.143 82.7899 250.171 82.8461C250.433 83.5573 250.563 84.3162 250.555 85.0805C250.555 87.1142 249.701 88.8288 248.659 88.8288C247.617 88.8288 246.763 87.1142 246.763 85.0805C246.763 83.0467 247.617 81.3322 248.659 81.3322C248.772 81.3322 248.881 81.2841 248.961 81.1986C249.041 81.1131 249.086 80.9971 249.086 80.8762C249.086 80.7552 249.041 80.6392 248.961 80.5537C248.881 80.4682 248.772 80.4202 248.659 80.4202C247.113 80.4202 245.909 82.463 245.909 85.0805C245.909 87.6979 247.113 89.7408 248.659 89.7408Z" fill="#F68D88"/>
<path d="M246.37 72.1392C246.37 72.1392 245.918 68.7466 243.492 69.1296C243.543 68.9526 243.53 68.7621 243.458 68.5941C243.386 68.426 243.258 68.2921 243.1 68.2176C242.562 68.017 241.947 69.8045 241.947 69.8045C243.553 70.2575 245.058 71.0515 246.37 72.1392Z" fill="#404B7C"/>
<path d="M234.261 69.4397C234.261 69.4397 235.345 66.5213 236.695 67.9075C236.738 67.7766 236.815 67.662 236.919 67.5777C237.022 67.4935 237.146 67.4433 237.275 67.4333C237.916 67.5336 237.514 69.2573 237.514 69.2573C236.44 68.9444 235.299 69.0083 234.261 69.4397Z" fill="#404B7C"/>
<path d="M241.947 76.0895C241.309 75.8893 240.981 75.0415 241.213 74.1957C241.446 73.35 242.152 72.8267 242.79 73.0269C243.428 73.227 243.757 74.0749 243.524 74.9206C243.291 75.7663 242.586 76.2896 241.947 76.0895Z" fill="#404B7C"/>
<path d="M242.172 74.2739C242 74.22 241.901 74.0274 241.952 73.8438C242.002 73.6601 242.183 73.555 242.355 73.6089C242.527 73.6629 242.625 73.8555 242.575 74.0391C242.524 74.2228 242.344 74.3279 242.172 74.2739Z" fill="white"/>
<path d="M235.127 73.9516C234.488 73.7514 234.16 72.9035 234.392 72.0578C234.625 71.2121 235.331 70.6888 235.969 70.889C236.607 71.0891 236.936 71.937 236.703 72.7827C236.47 73.6284 235.765 74.1517 235.127 73.9516Z" fill="#404B7C"/>
<path d="M235.351 72.1334C235.179 72.0795 235.081 71.8869 235.131 71.7032C235.182 71.5196 235.362 71.4145 235.534 71.4684C235.706 71.5223 235.805 71.7149 235.754 71.8986C235.704 72.0822 235.523 72.1874 235.351 72.1334Z" fill="white"/>
<path d="M237.694 78.6418C237.807 78.6418 237.916 78.5937 237.996 78.5082C238.076 78.4227 238.121 78.3067 238.121 78.1858C238.121 78.0648 238.076 77.9488 237.996 77.8633C237.916 77.7778 237.807 77.7298 237.694 77.7298C237.643 77.7298 236.387 77.6568 236.319 76.7357C236.305 76.6886 236.303 76.6382 236.313 76.5901C236.324 76.5419 236.346 76.4977 236.379 76.4621C236.796 76.3064 237.251 76.3064 237.668 76.4621C237.776 76.4932 237.89 76.4782 237.988 76.4203C238.085 76.3623 238.157 76.2661 238.189 76.152L239.043 73.1698C239.059 73.1099 239.064 73.0472 239.058 72.9852C239.052 72.9232 239.034 72.8632 239.006 72.8086C238.977 72.754 238.94 72.7058 238.894 72.6668C238.848 72.6279 238.796 72.5989 238.74 72.5815C238.684 72.5642 238.625 72.5588 238.567 72.5656C238.509 72.5725 238.453 72.5915 238.402 72.6216C238.351 72.6516 238.306 72.6922 238.269 72.7409C238.233 72.7895 238.205 72.8454 238.189 72.9053L237.463 75.4862C237.184 75.4106 236.893 75.3959 236.609 75.4429C236.324 75.4899 236.051 75.5977 235.806 75.7598C235.666 75.8881 235.558 76.0527 235.494 76.2378C235.43 76.423 235.411 76.6226 235.439 76.8178C235.55 78.1858 236.925 78.6418 237.634 78.6418H237.694Z" fill="#404B7C"/>
<path d="M238.479 82.381C239.629 82.3645 240.754 82.0248 241.742 81.396C241.794 81.3686 241.84 81.3301 241.878 81.283C241.915 81.2358 241.944 81.181 241.961 81.1217C241.978 81.0625 241.984 81.0002 241.977 80.9385C241.971 80.8769 241.953 80.8173 241.925 80.7633C241.896 80.7093 241.858 80.662 241.812 80.6244C241.766 80.5868 241.713 80.5597 241.657 80.5447C241.6 80.5296 241.542 80.527 241.484 80.537C241.427 80.5469 241.372 80.5692 241.323 80.6026C238.351 82.4266 236.199 80.8215 236.199 80.8032C236.154 80.7621 236.102 80.7314 236.045 80.7131C235.989 80.6948 235.929 80.6893 235.87 80.6969C235.811 80.7045 235.755 80.7251 235.704 80.7573C235.653 80.7895 235.609 80.8327 235.574 80.8841C235.54 80.9355 235.516 80.994 235.504 81.0558C235.492 81.1177 235.492 81.1816 235.504 81.2435C235.516 81.3053 235.54 81.3638 235.574 81.4152C235.609 81.4666 235.653 81.5097 235.704 81.5419C236.532 82.106 237.497 82.3977 238.479 82.381Z" fill="#404B7C"/>
<path d="M291.316 108.136C280.94 108.136 272.528 99.1529 272.528 88.0718C272.528 76.9908 280.94 68.0078 291.316 68.0078C301.693 68.0078 310.104 76.9908 310.104 88.0718C310.104 99.1529 301.693 108.136 291.316 108.136Z" fill="#9AB3DA"/>
<path d="M291.835 80C293.531 80 294.906 78.433 294.906 76.5C294.906 74.567 293.531 73 291.835 73C290.138 73 288.763 74.567 288.763 76.5C288.763 78.433 290.138 80 291.835 80Z" fill="#F8F8F8"/>
<path d="M285.046 90.0987C284.993 90.1195 284.936 90.122 284.881 90.1057C284.827 90.0895 284.777 90.0553 284.74 90.0074C284.702 89.9595 284.678 89.9 284.67 89.8364C284.662 89.7727 284.67 89.7078 284.694 89.6496C285.661 87.1604 291.069 81.8265 294.921 82.0043C296.65 82.0886 292.52 95.1612 292.545 96.9766C292.545 98.3241 295.183 97.1451 296.56 96.4245C296.618 96.4006 296.682 96.3984 296.742 96.4182C296.801 96.438 296.854 96.4788 296.892 96.5349C296.93 96.5909 296.952 96.6592 296.954 96.7302C296.956 96.8011 296.939 96.871 296.904 96.9298C295.88 98.8014 292.487 102.732 289.095 102.994C284.546 103.349 288.619 88.6951 288.619 88.6951L285.046 90.0987Z" fill="#F8F8F8"/>
<path d="M134.027 153.398C134.713 153.398 135.383 153.181 135.953 152.774C136.523 152.367 136.968 151.789 137.23 151.113C137.493 150.436 137.561 149.692 137.427 148.973C137.294 148.255 136.963 147.595 136.478 147.077C135.994 146.56 135.376 146.207 134.703 146.064C134.031 145.921 133.333 145.995 132.7 146.275C132.066 146.555 131.525 147.03 131.144 147.639C130.763 148.247 130.56 148.963 130.56 149.696C130.562 150.677 130.928 151.617 131.578 152.311C132.227 153.005 133.108 153.396 134.027 153.398ZM134.027 146.905C134.544 146.905 135.049 147.069 135.479 147.375C135.908 147.682 136.243 148.118 136.441 148.628C136.639 149.138 136.691 149.699 136.59 150.24C136.489 150.781 136.24 151.279 135.875 151.669C135.509 152.059 135.044 152.325 134.537 152.433C134.03 152.54 133.504 152.485 133.027 152.274C132.549 152.063 132.141 151.705 131.854 151.246C131.567 150.787 131.414 150.248 131.414 149.696C131.412 149.328 131.479 148.965 131.61 148.625C131.741 148.285 131.933 147.977 132.176 147.716C132.419 147.456 132.707 147.25 133.025 147.109C133.342 146.968 133.683 146.896 134.027 146.896V146.905Z" fill="#9AB3DA"/>
<path d="M154.104 52.668C154.79 52.668 155.46 52.4509 156.031 52.044C156.601 51.6371 157.045 51.0588 157.308 50.3823C157.57 49.7057 157.639 48.9612 157.505 48.2429C157.371 47.5247 157.041 46.8649 156.556 46.3471C156.071 45.8292 155.453 45.4766 154.781 45.3337C154.108 45.1909 153.411 45.2642 152.777 45.5444C152.144 45.8247 151.602 46.2993 151.221 46.9082C150.84 47.5171 150.637 48.233 150.637 48.9653C150.639 49.9466 151.005 50.887 151.655 51.5809C152.305 52.2747 153.185 52.6656 154.104 52.668ZM154.104 46.1746C154.621 46.1746 155.126 46.3382 155.556 46.6449C155.986 46.9515 156.321 47.3874 156.519 47.8973C156.716 48.4073 156.768 48.9684 156.667 49.5097C156.567 50.0511 156.318 50.5483 155.952 50.9386C155.587 51.3289 155.121 51.5947 154.614 51.7024C154.107 51.8101 153.582 51.7548 153.104 51.5436C152.627 51.3324 152.219 50.9747 151.931 50.5157C151.644 50.0568 151.491 49.5172 151.491 48.9653C151.49 48.598 151.557 48.2342 151.688 47.8945C151.818 47.5549 152.011 47.2462 152.253 46.9861C152.496 46.726 152.785 46.5196 153.102 46.3788C153.42 46.2379 153.76 46.1655 154.104 46.1655V46.1746Z" fill="#9AB3DA"/>
<path d="M105.981 98.1768C106.495 98.1678 106.994 97.9971 107.417 97.686C107.839 97.375 108.167 96.9375 108.357 96.4285C108.548 95.9195 108.593 95.3617 108.488 94.8251C108.383 94.2886 108.131 93.7972 107.765 93.4128C107.4 93.0283 106.935 92.7679 106.431 92.6642C105.927 92.5605 105.406 92.6182 104.932 92.83C104.459 93.0418 104.055 93.3983 103.77 93.8547C103.486 94.3111 103.334 94.847 103.334 95.3952C103.335 95.764 103.405 96.1289 103.539 96.4689C103.673 96.8088 103.868 97.117 104.114 97.3756C104.361 97.6343 104.652 97.8383 104.973 97.9758C105.293 98.1133 105.636 98.1816 105.981 98.1768ZM105.981 93.5165C106.325 93.5255 106.659 93.6425 106.941 93.8529C107.223 94.0633 107.441 94.3578 107.567 94.6996C107.694 95.0413 107.723 95.4153 107.651 95.7746C107.579 96.134 107.41 96.4629 107.165 96.7202C106.919 96.9775 106.608 97.1518 106.27 97.2213C105.932 97.2909 105.583 97.2526 105.265 97.1112C104.948 96.9699 104.676 96.7317 104.484 96.4265C104.293 96.1213 104.19 95.7626 104.188 95.3952C104.189 95.1462 104.237 94.8998 104.328 94.6705C104.419 94.4412 104.551 94.2336 104.718 94.0596C104.885 93.8856 105.083 93.7488 105.3 93.6572C105.516 93.5655 105.748 93.5208 105.981 93.5256V93.5165Z" fill="#9AB3DA"/>
<path d="M101.814 65.4998C101.927 65.4998 102.036 65.4518 102.116 65.3663C102.196 65.2807 102.241 65.1648 102.241 65.0438V59.7542C102.241 59.6333 102.196 59.5173 102.116 59.4318C102.036 59.3463 101.927 59.2982 101.814 59.2982C101.701 59.2982 101.592 59.3463 101.512 59.4318C101.432 59.5173 101.387 59.6333 101.387 59.7542V65.0438C101.387 65.1648 101.432 65.2807 101.512 65.3663C101.592 65.4518 101.701 65.4998 101.814 65.4998Z" fill="#9AB3DA"/>
<path d="M96.6557 67.5701H100.362C100.475 67.5701 100.584 67.522 100.664 67.4365C100.744 67.351 100.789 67.235 100.789 67.1141C100.789 66.9931 100.744 66.8772 100.664 66.7916C100.584 66.7061 100.475 66.6581 100.362 66.6581H96.6557C96.5425 66.6581 96.4339 66.7061 96.3538 66.7916C96.2737 66.8772 96.2287 66.9931 96.2287 67.1141C96.2287 67.235 96.2737 67.351 96.3538 67.4365C96.4339 67.522 96.5425 67.5701 96.6557 67.5701Z" fill="#9AB3DA"/>
<path d="M101.814 74.9299C101.927 74.9299 102.036 74.8819 102.116 74.7963C102.196 74.7108 102.241 74.5948 102.241 74.4739V69.1843C102.241 69.0634 102.196 68.9474 102.116 68.8619C102.036 68.7763 101.927 68.7283 101.814 68.7283C101.701 68.7283 101.592 68.7763 101.512 68.8619C101.432 68.9474 101.387 69.0634 101.387 69.1843V74.4739C101.387 74.5948 101.432 74.7108 101.512 74.7963C101.592 74.8819 101.701 74.9299 101.814 74.9299Z" fill="#9AB3DA"/>
<path d="M103.266 67.5701H106.972C107.085 67.5701 107.194 67.522 107.274 67.4365C107.354 67.351 107.399 67.235 107.399 67.1141C107.399 66.9931 107.354 66.8772 107.274 66.7916C107.194 66.7061 107.085 66.6581 106.972 66.6581H103.266C103.152 66.6581 103.044 66.7061 102.964 66.7916C102.884 66.8772 102.839 66.9931 102.839 67.1141C102.839 67.235 102.884 67.351 102.964 67.4365C103.044 67.522 103.152 67.5701 103.266 67.5701Z" fill="#9AB3DA"/>
<path d="M116.289 133.544C116.402 133.544 116.511 133.496 116.591 133.411C116.671 133.325 116.716 133.209 116.716 133.088V127.799C116.716 127.678 116.671 127.562 116.591 127.476C116.511 127.391 116.402 127.343 116.289 127.343C116.176 127.343 116.067 127.391 115.987 127.476C115.907 127.562 115.862 127.678 115.862 127.799V133.088C115.862 133.209 115.907 133.325 115.987 133.411C116.067 133.496 116.176 133.544 116.289 133.544Z" fill="#9AB3DA"/>
<path d="M111.131 135.614H114.837C114.951 135.614 115.059 135.566 115.139 135.481C115.219 135.395 115.264 135.279 115.264 135.158C115.264 135.037 115.219 134.921 115.139 134.836C115.059 134.75 114.951 134.702 114.837 134.702H111.131C111.018 134.702 110.909 134.75 110.829 134.836C110.749 134.921 110.704 135.037 110.704 135.158C110.704 135.279 110.749 135.395 110.829 135.481C110.909 135.566 111.018 135.614 111.131 135.614Z" fill="#9AB3DA"/>
<path d="M116.289 142.974C116.402 142.974 116.511 142.926 116.591 142.841C116.671 142.755 116.716 142.639 116.716 142.518V137.229C116.716 137.108 116.671 136.992 116.591 136.906C116.511 136.821 116.402 136.773 116.289 136.773C116.176 136.773 116.067 136.821 115.987 136.906C115.907 136.992 115.862 137.108 115.862 137.229V142.518C115.862 142.639 115.907 142.755 115.987 142.841C116.067 142.926 116.176 142.974 116.289 142.974Z" fill="#9AB3DA"/>
<path d="M117.741 135.614H121.447C121.561 135.614 121.669 135.566 121.749 135.481C121.829 135.395 121.874 135.279 121.874 135.158C121.874 135.037 121.829 134.921 121.749 134.836C121.669 134.75 121.561 134.702 121.447 134.702H117.741C117.628 134.702 117.519 134.75 117.439 134.836C117.359 134.921 117.314 135.037 117.314 135.158C117.314 135.279 117.359 135.395 117.439 135.481C117.519 135.566 117.628 135.614 117.741 135.614Z" fill="#9AB3DA"/>
<path d="M177.837 90.7896C177.95 90.7896 178.059 90.7415 178.139 90.656C178.219 90.5705 178.264 90.4545 178.264 90.3336V85.044C178.264 84.923 178.219 84.8071 178.139 84.7215C178.059 84.636 177.95 84.588 177.837 84.588C177.724 84.588 177.615 84.636 177.535 84.7215C177.455 84.8071 177.41 84.923 177.41 85.044V90.3336C177.41 90.4545 177.455 90.5705 177.535 90.656C177.615 90.7415 177.724 90.7896 177.837 90.7896Z" fill="#9AB3DA"/>
<path d="M172.679 92.8598H176.385C176.498 92.8598 176.607 92.8118 176.687 92.7263C176.767 92.6408 176.812 92.5248 176.812 92.4038C176.812 92.2829 176.767 92.1669 176.687 92.0814C176.607 91.9959 176.498 91.9478 176.385 91.9478H172.679C172.566 91.9478 172.457 91.9959 172.377 92.0814C172.297 92.1669 172.252 92.2829 172.252 92.4038C172.252 92.5248 172.297 92.6408 172.377 92.7263C172.457 92.8118 172.566 92.8598 172.679 92.8598Z" fill="#9AB3DA"/>
<path d="M177.837 100.22C177.95 100.22 178.059 100.172 178.139 100.086C178.219 100.001 178.264 99.8846 178.264 99.7637V94.4741C178.264 94.3531 178.219 94.2371 178.139 94.1516C178.059 94.0661 177.95 94.0181 177.837 94.0181C177.724 94.0181 177.615 94.0661 177.535 94.1516C177.455 94.2371 177.41 94.3531 177.41 94.4741V99.7637C177.41 99.8846 177.455 100.001 177.535 100.086C177.615 100.172 177.724 100.22 177.837 100.22Z" fill="#9AB3DA"/>
<path d="M179.289 92.8598H182.995C183.108 92.8598 183.217 92.8118 183.297 92.7263C183.377 92.6408 183.422 92.5248 183.422 92.4038C183.422 92.2829 183.377 92.1669 183.297 92.0814C183.217 91.9959 183.108 91.9478 182.995 91.9478H179.289C179.176 91.9478 179.067 91.9959 178.987 92.0814C178.907 92.1669 178.862 92.2829 178.862 92.4038C178.862 92.5248 178.907 92.6408 178.987 92.7263C179.067 92.8118 179.176 92.8598 179.289 92.8598Z" fill="#9AB3DA"/>
<path d="M119.526 61.9431H152.772C154.031 61.9431 155.052 63.0333 155.052 64.3781V111.766C155.052 113.11 154.031 114.201 152.772 114.201H119.526C118.267 114.201 117.246 113.11 117.246 111.766V64.3781C117.246 63.0333 118.267 61.9431 119.526 61.9431Z" fill="#9AB3DA"/>
<path d="M123.386 66.0653H156.632C157.891 66.0653 158.912 67.1555 158.912 68.5003V115.888C158.912 117.233 157.891 118.323 156.632 118.323H123.386C122.127 118.323 121.106 117.233 121.106 115.888V68.5003C121.106 67.1555 122.127 66.0653 123.386 66.0653Z" fill="#0D1D54"/>
<path d="M127.442 70.4794H160.689C161.948 70.4794 162.969 71.5696 162.969 72.9144V120.302C162.969 121.647 161.948 122.737 160.689 122.737H127.442C126.183 122.737 125.162 121.647 125.162 120.302V72.9144C125.162 71.5696 126.183 70.4794 127.442 70.4794Z" fill="#9AB3DA"/>
<path d="M129.987 81.7517H158.144C158.889 81.7517 159.493 82.3968 159.493 83.1927V83.5392C159.493 84.335 158.889 84.9802 158.144 84.9802H129.987C129.242 84.9802 128.638 84.335 128.638 83.5392V83.1927C128.638 82.3968 129.242 81.7517 129.987 81.7517Z" fill="#F8F8F8"/>
<path d="M129.987 90.5798H158.144C158.889 90.5798 159.493 91.225 159.493 92.0208V92.3674C159.493 93.1632 158.889 93.8083 158.144 93.8083H129.987C129.242 93.8083 128.638 93.1632 128.638 92.3674V92.0208C128.638 91.225 129.242 90.5798 129.987 90.5798Z" fill="#F8F8F8"/>
<path d="M129.987 99.4171H158.144C158.889 99.4171 159.493 100.062 159.493 100.858V101.205C159.493 102 158.889 102.646 158.144 102.646H129.987C129.242 102.646 128.638 102 128.638 101.205V100.858C128.638 100.062 129.242 99.4171 129.987 99.4171Z" fill="#F8F8F8"/>
<path d="M146.615 108.245H158.144C158.889 108.245 159.493 108.89 159.493 109.686V110.033C159.493 110.829 158.889 111.474 158.144 111.474H146.615C145.869 111.474 145.265 110.829 145.265 110.033V109.686C145.265 108.89 145.869 108.245 146.615 108.245Z" fill="#F8F8F8"/>
</svg>
