<svg width="47" height="46" viewBox="0 0 47 46" fill="none" xmlns="http://www.w3.org/2000/svg">
<g filter="url(#filter0_b_230_5224)">
<rect width="46.9999" height="45.911" rx="22.6856" fill="#60ACFF"/>
</g>
<path d="M20.302 29.2044H19.8451C16.1895 29.2044 14.3618 28.3117 14.3618 23.8481V19.3845C14.3618 15.8137 16.1895 14.0283 19.8451 14.0283H27.1562C30.8117 14.0283 32.6395 15.8137 32.6395 19.3845V23.8481C32.6395 27.419 30.8117 29.2044 27.1562 29.2044H26.6992C26.4159 29.2044 26.1418 29.3383 25.9681 29.5615L24.5973 31.3469C23.9941 32.1325 23.0071 32.1325 22.404 31.3469L21.0331 29.5615C20.8869 29.3651 20.5488 29.2044 20.302 29.2044Z" stroke="white" stroke-width="2.25" stroke-miterlimit="10" stroke-linecap="round" stroke-linejoin="round"/>
<path d="M27.1531 22.0624H27.1614" stroke="white" stroke-width="3" stroke-linecap="round" stroke-linejoin="round"/>
<path d="M23.4964 22.0624H23.5046" stroke="white" stroke-width="3" stroke-linecap="round" stroke-linejoin="round"/>
<path d="M19.8401 22.0624H19.8483" stroke="white" stroke-width="3" stroke-linecap="round" stroke-linejoin="round"/>
<defs>
<filter id="filter0_b_230_5224" x="-10.625" y="-10.625" width="68.2499" height="67.1609" filterUnits="userSpaceOnUse" color-interpolation-filters="sRGB">
<feFlood flood-opacity="0" result="BackgroundImageFix"/>
<feGaussianBlur in="BackgroundImageFix" stdDeviation="5.25"/>
<feComposite in2="SourceAlpha" operator="in" result="effect1_backgroundBlur_230_5224"/>
<feBlend mode="normal" in="SourceGraphic" in2="effect1_backgroundBlur_230_5224" result="shape"/>
</filter>
</defs>
</svg>
