<svg width="36" height="35" viewBox="0 0 36 35" fill="none" xmlns="http://www.w3.org/2000/svg">
<g filter="url(#filter0_d_362_1923)">
<path d="M24.2409 16.5625C25.3692 15.6253 26.0867 14.2175 26.0867 12.6434C26.0867 11.0695 25.3692 9.66169 24.2409 8.72442C24.3702 8.6623 24.4947 8.59489 24.6132 8.52184C25.3616 8.06024 26.2449 7.79365 27.191 7.79365C29.8911 7.79365 32.08 9.96502 32.08 12.6434C32.08 15.3219 29.8911 17.4932 27.191 17.4932C26.2449 17.4932 25.3616 17.2267 24.6132 16.7651C24.4947 16.6921 24.3702 16.6246 24.2409 16.5625Z" fill="white"/>
</g>
<g filter="url(#filter1_d_362_1923)">
<path d="M22.8831 13.408C23.3877 12.0367 23.2995 10.4617 22.5062 9.09852C21.7128 7.73539 20.3818 6.87208 18.9323 6.62001C19.013 6.50211 19.0868 6.382 19.1525 6.25993C19.568 5.48899 20.1987 4.81999 21.018 4.35073C23.3564 3.0115 26.3465 3.80626 27.6965 6.12589C29.0465 8.44552 28.2454 11.4117 25.907 12.7509C25.0876 13.2201 24.1883 13.4274 23.3075 13.3989C23.1681 13.3943 23.0263 13.3977 22.8831 13.408Z" fill="white"/>
</g>
<g filter="url(#filter2_d_362_1923)">
<path d="M20.1172 11.3482C19.8631 9.9103 18.9929 8.59001 17.6187 7.803C16.2446 7.01599 14.6568 6.92851 13.2744 7.42915C13.2849 7.28703 13.2883 7.14642 13.2837 7.00809C13.2549 6.13435 13.4638 5.24219 13.9369 4.4294C15.287 2.10978 18.277 1.31501 20.6154 2.65425C22.9537 3.99349 23.755 6.95959 22.4049 9.27925C21.9318 10.092 21.2574 10.7176 20.4802 11.1297C20.3572 11.195 20.2362 11.2682 20.1172 11.3482Z" fill="white"/>
</g>
<g filter="url(#filter3_d_362_1923)">
<path d="M16.6813 10.9374C15.7365 9.81814 14.3173 9.10641 12.7306 9.10641C11.1438 9.10641 9.72469 9.81814 8.77987 10.9374C8.71728 10.8091 8.64931 10.6857 8.57564 10.5681C8.11033 9.82567 7.84159 8.94945 7.84159 8.01092C7.84159 5.33243 10.0305 3.16109 12.7306 3.16109C15.4307 3.16109 17.6195 5.33243 17.6195 8.01092C17.6195 8.94945 17.3508 9.82567 16.8855 10.5681C16.8118 10.6857 16.7438 10.8091 16.6813 10.9374Z" fill="white"/>
</g>
<g filter="url(#filter4_d_362_1923)">
<path d="M13.5021 12.2838C12.1197 11.7832 10.5319 11.8707 9.15778 12.6576C7.78363 13.4447 6.91335 14.7649 6.65925 16.2028C6.5404 16.1228 6.41932 16.0496 6.29626 15.9844C5.5191 15.5722 4.84469 14.9466 4.37165 14.1339C3.02159 11.8142 3.82277 8.84816 6.16113 7.5089C8.4995 6.16965 11.4895 6.96442 12.8396 9.28407C13.3127 10.0968 13.5216 10.989 13.4928 11.8627C13.4883 12.001 13.4916 12.1417 13.5021 12.2838Z" fill="white"/>
</g>
<g filter="url(#filter5_d_362_1923)">
<path d="M11.4237 15.0291C9.97417 15.2812 8.64323 16.1445 7.84986 17.5076C7.0565 18.8707 6.9683 20.4458 7.473 21.8171C7.32972 21.8067 7.18795 21.8034 7.04848 21.8078C6.1677 21.8364 5.26834 21.6292 4.449 21.1599C2.11063 19.8206 1.30945 16.8546 2.6595 14.5349C4.00956 12.2153 6.99961 11.4205 9.33797 12.7598C10.1573 13.2291 10.7879 13.898 11.2034 14.6689C11.2692 14.791 11.343 14.9111 11.4237 15.0291Z" fill="white"/>
</g>
<g filter="url(#filter6_d_362_1923)">
<path d="M11.008 18.4357C9.8797 19.373 9.1622 20.7807 9.1622 22.3547C9.1622 23.9288 9.8797 25.3365 11.008 26.2738C10.8787 26.3358 10.7542 26.4033 10.6357 26.4764C9.88733 26.9379 9.004 27.2045 8.05789 27.2045C5.35779 27.2045 3.16892 25.0332 3.16892 22.3547C3.16892 19.6762 5.35779 17.5049 8.05789 17.5049C9.004 17.5049 9.88733 17.7715 10.6357 18.2331C10.7542 18.3062 10.8787 18.3736 11.008 18.4357Z" fill="white"/>
</g>
<g filter="url(#filter7_d_362_1923)">
<path d="M12.3648 21.591C11.8601 22.9623 11.9483 24.5374 12.7416 25.9005C13.535 27.2637 14.866 28.1269 16.3155 28.379C16.2348 28.497 16.161 28.6171 16.0953 28.7392C15.6798 29.5101 15.0491 30.1791 14.2298 30.6483C11.8914 31.9876 8.90138 31.1928 7.55133 28.8732C6.20127 26.5535 7.00246 23.5875 9.34081 22.2482C10.1602 21.7789 11.0595 21.5717 11.9403 21.6003C12.0797 21.6047 12.2215 21.6014 12.3648 21.591Z" fill="white"/>
</g>
<g filter="url(#filter8_d_362_1923)">
<path d="M15.1338 23.652C15.3879 25.0898 16.2582 26.4101 17.6323 27.1971C19.0065 27.9841 20.5943 28.0716 21.9767 27.571C21.9662 27.7131 21.9629 27.8537 21.9674 27.9921C21.9962 28.8658 21.7873 29.758 21.3142 30.5707C19.9641 32.8904 16.9741 33.6851 14.6357 32.3458C12.2973 31.0066 11.4962 28.0406 12.8463 25.7209C13.3193 24.9082 13.9937 24.2826 14.7708 23.8704C14.8939 23.8051 15.015 23.7319 15.1338 23.652Z" fill="white"/>
</g>
<g filter="url(#filter9_d_362_1923)">
<path d="M18.5684 24.0648C19.5132 25.1841 20.9323 25.8958 22.5191 25.8958C24.1059 25.8958 25.525 25.1841 26.4698 24.0648C26.5324 24.1931 26.6003 24.3165 26.6741 24.434C27.1393 25.1764 27.4081 26.0527 27.4081 26.9913C27.4081 29.6698 25.2192 31.8411 22.5191 31.8411C19.819 31.8411 17.6301 29.6698 17.6301 26.9913C17.6301 26.0527 17.8989 25.1764 18.3641 24.434C18.4379 24.3165 18.5058 24.1931 18.5684 24.0648Z" fill="white"/>
</g>
<g filter="url(#filter10_d_362_1923)">
<path d="M21.749 22.7178C23.1314 23.2184 24.7192 23.1309 26.0933 22.344C27.4674 21.557 28.3377 20.2367 28.5918 18.7988C28.7107 18.8787 28.8317 18.952 28.9548 19.0172C29.732 19.4294 30.4064 20.055 30.8794 20.8677C32.2295 23.1874 31.4283 26.1535 29.09 27.4928C26.7516 28.832 23.7616 28.0372 22.4115 25.7175C21.9384 24.9048 21.7295 24.0126 21.7583 23.1389C21.7629 23.0006 21.7595 22.86 21.749 22.7178Z" fill="white"/>
</g>
<g filter="url(#filter11_d_362_1923)">
<path d="M27.4019 17.4889C27.4009 17.4906 27.3999 17.4923 27.3989 17.494C26.6056 18.8571 25.2746 19.7204 23.8251 19.9725C23.9057 20.0905 23.9796 20.2106 24.0453 20.3326C24.4608 21.1036 25.0915 21.7725 25.9108 22.2418C28.2492 23.5811 31.2392 22.7863 32.5893 20.4667C33.7467 18.478 33.3229 16.0141 31.705 14.5077C30.9942 16.1998 29.3448 17.4068 27.4019 17.4889Z" fill="white"/>
</g>
<defs>
<filter id="filter0_d_362_1923" x="22.2372" y="5.78996" width="11.846" height="13.7069" filterUnits="userSpaceOnUse" color-interpolation-filters="sRGB">
<feFlood flood-opacity="0" result="BackgroundImageFix"/>
<feColorMatrix in="SourceAlpha" type="matrix" values="0 0 0 0 0 0 0 0 0 0 0 0 0 0 0 0 0 0 127 0" result="hardAlpha"/>
<feOffset/>
<feGaussianBlur stdDeviation="1"/>
<feComposite in2="hardAlpha" operator="out"/>
<feColorMatrix type="matrix" values="0 0 0 0 1 0 0 0 0 1 0 0 0 0 1 0 0 0 0.25 0"/>
<feBlend mode="normal" in2="BackgroundImageFix" result="effect1_dropShadow_362_1923"/>
<feBlend mode="normal" in="SourceGraphic" in2="effect1_dropShadow_362_1923" result="shape"/>
</filter>
<filter id="filter1_d_362_1923" x="16.9286" y="1.69648" width="13.4271" height="13.7152" filterUnits="userSpaceOnUse" color-interpolation-filters="sRGB">
<feFlood flood-opacity="0" result="BackgroundImageFix"/>
<feColorMatrix in="SourceAlpha" type="matrix" values="0 0 0 0 0 0 0 0 0 0 0 0 0 0 0 0 0 0 127 0" result="hardAlpha"/>
<feOffset/>
<feGaussianBlur stdDeviation="1"/>
<feComposite in2="hardAlpha" operator="out"/>
<feColorMatrix type="matrix" values="0 0 0 0 1 0 0 0 0 1 0 0 0 0 1 0 0 0 0.25 0"/>
<feBlend mode="normal" in2="BackgroundImageFix" result="effect1_dropShadow_362_1923"/>
<feBlend mode="normal" in="SourceGraphic" in2="effect1_dropShadow_362_1923" result="shape"/>
</filter>
<filter id="filter2_d_362_1923" x="11.2708" y="0" width="13.794" height="13.3517" filterUnits="userSpaceOnUse" color-interpolation-filters="sRGB">
<feFlood flood-opacity="0" result="BackgroundImageFix"/>
<feColorMatrix in="SourceAlpha" type="matrix" values="0 0 0 0 0 0 0 0 0 0 0 0 0 0 0 0 0 0 127 0" result="hardAlpha"/>
<feOffset/>
<feGaussianBlur stdDeviation="1"/>
<feComposite in2="hardAlpha" operator="out"/>
<feColorMatrix type="matrix" values="0 0 0 0 1 0 0 0 0 1 0 0 0 0 1 0 0 0 0.25 0"/>
<feBlend mode="normal" in2="BackgroundImageFix" result="effect1_dropShadow_362_1923"/>
<feBlend mode="normal" in="SourceGraphic" in2="effect1_dropShadow_362_1923" result="shape"/>
</filter>
<filter id="filter3_d_362_1923" x="5.8379" y="1.1574" width="13.7852" height="11.7834" filterUnits="userSpaceOnUse" color-interpolation-filters="sRGB">
<feFlood flood-opacity="0" result="BackgroundImageFix"/>
<feColorMatrix in="SourceAlpha" type="matrix" values="0 0 0 0 0 0 0 0 0 0 0 0 0 0 0 0 0 0 127 0" result="hardAlpha"/>
<feOffset/>
<feGaussianBlur stdDeviation="1"/>
<feComposite in2="hardAlpha" operator="out"/>
<feColorMatrix type="matrix" values="0 0 0 0 1 0 0 0 0 1 0 0 0 0 1 0 0 0 0.25 0"/>
<feBlend mode="normal" in2="BackgroundImageFix" result="effect1_dropShadow_362_1923"/>
<feBlend mode="normal" in="SourceGraphic" in2="effect1_dropShadow_362_1923" result="shape"/>
</filter>
<filter id="filter4_d_362_1923" x="1.71214" y="4.85464" width="13.794" height="13.3517" filterUnits="userSpaceOnUse" color-interpolation-filters="sRGB">
<feFlood flood-opacity="0" result="BackgroundImageFix"/>
<feColorMatrix in="SourceAlpha" type="matrix" values="0 0 0 0 0 0 0 0 0 0 0 0 0 0 0 0 0 0 127 0" result="hardAlpha"/>
<feOffset/>
<feGaussianBlur stdDeviation="1"/>
<feComposite in2="hardAlpha" operator="out"/>
<feColorMatrix type="matrix" values="0 0 0 0 1 0 0 0 0 1 0 0 0 0 1 0 0 0 0.25 0"/>
<feBlend mode="normal" in2="BackgroundImageFix" result="effect1_dropShadow_362_1923"/>
<feBlend mode="normal" in="SourceGraphic" in2="effect1_dropShadow_362_1923" result="shape"/>
</filter>
<filter id="filter5_d_362_1923" x="0" y="10.1055" width="13.4271" height="13.7152" filterUnits="userSpaceOnUse" color-interpolation-filters="sRGB">
<feFlood flood-opacity="0" result="BackgroundImageFix"/>
<feColorMatrix in="SourceAlpha" type="matrix" values="0 0 0 0 0 0 0 0 0 0 0 0 0 0 0 0 0 0 127 0" result="hardAlpha"/>
<feOffset/>
<feGaussianBlur stdDeviation="1"/>
<feComposite in2="hardAlpha" operator="out"/>
<feColorMatrix type="matrix" values="0 0 0 0 1 0 0 0 0 1 0 0 0 0 1 0 0 0 0.25 0"/>
<feBlend mode="normal" in2="BackgroundImageFix" result="effect1_dropShadow_362_1923"/>
<feBlend mode="normal" in="SourceGraphic" in2="effect1_dropShadow_362_1923" result="shape"/>
</filter>
<filter id="filter6_d_362_1923" x="1.16523" y="15.5012" width="11.846" height="13.7069" filterUnits="userSpaceOnUse" color-interpolation-filters="sRGB">
<feFlood flood-opacity="0" result="BackgroundImageFix"/>
<feColorMatrix in="SourceAlpha" type="matrix" values="0 0 0 0 0 0 0 0 0 0 0 0 0 0 0 0 0 0 127 0" result="hardAlpha"/>
<feOffset/>
<feGaussianBlur stdDeviation="1"/>
<feComposite in2="hardAlpha" operator="out"/>
<feColorMatrix type="matrix" values="0 0 0 0 1 0 0 0 0 1 0 0 0 0 1 0 0 0 0.25 0"/>
<feBlend mode="normal" in2="BackgroundImageFix" result="effect1_dropShadow_362_1923"/>
<feBlend mode="normal" in="SourceGraphic" in2="effect1_dropShadow_362_1923" result="shape"/>
</filter>
<filter id="filter7_d_362_1923" x="4.89182" y="19.5873" width="13.4271" height="13.7152" filterUnits="userSpaceOnUse" color-interpolation-filters="sRGB">
<feFlood flood-opacity="0" result="BackgroundImageFix"/>
<feColorMatrix in="SourceAlpha" type="matrix" values="0 0 0 0 0 0 0 0 0 0 0 0 0 0 0 0 0 0 127 0" result="hardAlpha"/>
<feOffset/>
<feGaussianBlur stdDeviation="1"/>
<feComposite in2="hardAlpha" operator="out"/>
<feColorMatrix type="matrix" values="0 0 0 0 1 0 0 0 0 1 0 0 0 0 1 0 0 0 0.25 0"/>
<feBlend mode="normal" in2="BackgroundImageFix" result="effect1_dropShadow_362_1923"/>
<feBlend mode="normal" in="SourceGraphic" in2="effect1_dropShadow_362_1923" result="shape"/>
</filter>
<filter id="filter8_d_362_1923" x="10.1867" y="21.6483" width="13.794" height="13.3517" filterUnits="userSpaceOnUse" color-interpolation-filters="sRGB">
<feFlood flood-opacity="0" result="BackgroundImageFix"/>
<feColorMatrix in="SourceAlpha" type="matrix" values="0 0 0 0 0 0 0 0 0 0 0 0 0 0 0 0 0 0 127 0" result="hardAlpha"/>
<feOffset/>
<feGaussianBlur stdDeviation="1"/>
<feComposite in2="hardAlpha" operator="out"/>
<feColorMatrix type="matrix" values="0 0 0 0 1 0 0 0 0 1 0 0 0 0 1 0 0 0 0.25 0"/>
<feBlend mode="normal" in2="BackgroundImageFix" result="effect1_dropShadow_362_1923"/>
<feBlend mode="normal" in="SourceGraphic" in2="effect1_dropShadow_362_1923" result="shape"/>
</filter>
<filter id="filter9_d_362_1923" x="15.6264" y="22.0611" width="13.7852" height="11.7834" filterUnits="userSpaceOnUse" color-interpolation-filters="sRGB">
<feFlood flood-opacity="0" result="BackgroundImageFix"/>
<feColorMatrix in="SourceAlpha" type="matrix" values="0 0 0 0 0 0 0 0 0 0 0 0 0 0 0 0 0 0 127 0" result="hardAlpha"/>
<feOffset/>
<feGaussianBlur stdDeviation="1"/>
<feComposite in2="hardAlpha" operator="out"/>
<feColorMatrix type="matrix" values="0 0 0 0 1 0 0 0 0 1 0 0 0 0 1 0 0 0 0.25 0"/>
<feBlend mode="normal" in2="BackgroundImageFix" result="effect1_dropShadow_362_1923"/>
<feBlend mode="normal" in="SourceGraphic" in2="effect1_dropShadow_362_1923" result="shape"/>
</filter>
<filter id="filter10_d_362_1923" x="19.7453" y="16.7951" width="13.794" height="13.3517" filterUnits="userSpaceOnUse" color-interpolation-filters="sRGB">
<feFlood flood-opacity="0" result="BackgroundImageFix"/>
<feColorMatrix in="SourceAlpha" type="matrix" values="0 0 0 0 0 0 0 0 0 0 0 0 0 0 0 0 0 0 127 0" result="hardAlpha"/>
<feOffset/>
<feGaussianBlur stdDeviation="1"/>
<feComposite in2="hardAlpha" operator="out"/>
<feColorMatrix type="matrix" values="0 0 0 0 1 0 0 0 0 1 0 0 0 0 1 0 0 0 0.25 0"/>
<feBlend mode="normal" in2="BackgroundImageFix" result="effect1_dropShadow_362_1923"/>
<feBlend mode="normal" in="SourceGraphic" in2="effect1_dropShadow_362_1923" result="shape"/>
</filter>
<filter id="filter11_d_362_1923" x="21.8214" y="12.504" width="13.4271" height="12.392" filterUnits="userSpaceOnUse" color-interpolation-filters="sRGB">
<feFlood flood-opacity="0" result="BackgroundImageFix"/>
<feColorMatrix in="SourceAlpha" type="matrix" values="0 0 0 0 0 0 0 0 0 0 0 0 0 0 0 0 0 0 127 0" result="hardAlpha"/>
<feOffset/>
<feGaussianBlur stdDeviation="1"/>
<feComposite in2="hardAlpha" operator="out"/>
<feColorMatrix type="matrix" values="0 0 0 0 1 0 0 0 0 1 0 0 0 0 1 0 0 0 0.25 0"/>
<feBlend mode="normal" in2="BackgroundImageFix" result="effect1_dropShadow_362_1923"/>
<feBlend mode="normal" in="SourceGraphic" in2="effect1_dropShadow_362_1923" result="shape"/>
</filter>
</defs>
</svg>
