<svg width="36" height="35" viewBox="0 0 36 35" fill="none" xmlns="http://www.w3.org/2000/svg">
<g filter="url(#filter0_d_481_1910)">
<path d="M24.2414 16.5625C25.3696 15.6253 26.0871 14.2175 26.0871 12.6434C26.0871 11.0695 25.3696 9.66169 24.2414 8.72442C24.3707 8.6623 24.4951 8.59489 24.6136 8.52184C25.362 8.06024 26.2453 7.79365 27.1914 7.79365C29.8915 7.79365 32.0804 9.96502 32.0804 12.6434C32.0804 15.3219 29.8915 17.4932 27.1914 17.4932C26.2453 17.4932 25.362 17.2267 24.6136 16.7651C24.4951 16.6921 24.3707 16.6246 24.2414 16.5625Z" fill="white"/>
</g>
<g filter="url(#filter1_d_481_1910)">
<path d="M22.8832 13.408C23.3879 12.0367 23.2997 10.4617 22.5063 9.09852C21.713 7.73539 20.382 6.87208 18.9325 6.62001C19.0132 6.50211 19.0869 6.382 19.1527 6.25993C19.5682 5.48899 20.1988 4.81999 21.0182 4.35073C23.3566 3.0115 26.3467 3.80626 27.6967 6.12589C29.0467 8.44552 28.2455 11.4117 25.9071 12.7509C25.0878 13.2201 24.1884 13.4274 23.3077 13.3989C23.1683 13.3943 23.0265 13.3977 22.8832 13.408Z" fill="white"/>
</g>
<g filter="url(#filter2_d_481_1910)">
<path d="M20.1171 11.3482C19.863 9.9103 18.9927 8.59001 17.6186 7.803C16.2444 7.01599 14.6567 6.92851 13.2743 7.42915C13.2848 7.28703 13.2881 7.14642 13.2835 7.00809C13.2548 6.13435 13.4637 5.24219 13.9368 4.4294C15.2869 2.10978 18.2769 1.31501 20.6153 2.65425C22.9536 3.99349 23.7548 6.95959 22.4047 9.27925C21.9317 10.092 21.2573 10.7176 20.4801 11.1297C20.3571 11.195 20.236 11.2682 20.1171 11.3482Z" fill="white"/>
</g>
<g filter="url(#filter3_d_481_1910)">
<path d="M16.6817 10.9374C15.7368 9.81814 14.3177 9.10641 12.7309 9.10641C11.1442 9.10641 9.72506 9.81814 8.78023 10.9374C8.71765 10.8091 8.64968 10.6857 8.57601 10.5681C8.11069 9.82567 7.84196 8.94945 7.84196 8.01092C7.84196 5.33243 10.0308 3.16109 12.7309 3.16109C15.431 3.16109 17.6199 5.33243 17.6199 8.01092C17.6199 8.94945 17.3512 9.82567 16.8859 10.5681C16.8121 10.6857 16.7442 10.8091 16.6817 10.9374Z" fill="white"/>
</g>
<g filter="url(#filter4_d_481_1910)">
<path d="M13.5019 12.2838C12.1195 11.7832 10.5317 11.8707 9.15759 12.6576C7.78344 13.4447 6.91317 14.7649 6.65907 16.2028C6.54022 16.1228 6.41913 16.0496 6.29608 15.9844C5.51891 15.5722 4.84451 14.9466 4.37146 14.1339C3.0214 11.8142 3.82258 8.84816 6.16095 7.5089C8.49931 6.16965 11.4893 6.96442 12.8394 9.28407C13.3125 10.0968 13.5214 10.989 13.4926 11.8627C13.4881 12.001 13.4914 12.1417 13.5019 12.2838Z" fill="white"/>
</g>
<g filter="url(#filter5_d_481_1910)">
<path d="M11.4237 15.0291C9.97417 15.2812 8.64323 16.1445 7.84986 17.5076C7.0565 18.8707 6.9683 20.4458 7.473 21.8171C7.32972 21.8067 7.18795 21.8034 7.04848 21.8078C6.1677 21.8364 5.26834 21.6292 4.449 21.1599C2.11063 19.8206 1.30945 16.8546 2.6595 14.5349C4.00956 12.2153 6.99961 11.4205 9.33797 12.7598C10.1573 13.2291 10.7879 13.898 11.2034 14.6689C11.2692 14.791 11.343 14.9111 11.4237 15.0291Z" fill="white"/>
</g>
<g filter="url(#filter6_d_481_1910)">
<path d="M11.0075 18.4357C9.87927 19.373 9.16177 20.7807 9.16177 22.3547C9.16177 23.9288 9.87927 25.3365 11.0075 26.2738C10.8782 26.3358 10.7538 26.4033 10.6353 26.4764C9.8869 26.9379 9.00357 27.2045 8.05747 27.2045C5.35736 27.2045 3.16849 25.0332 3.16849 22.3547C3.16849 19.6762 5.35736 17.5049 8.05747 17.5049C9.00357 17.5049 9.8869 17.7715 10.6353 18.2331C10.7538 18.3062 10.8782 18.3736 11.0075 18.4357Z" fill="white"/>
</g>
<g filter="url(#filter7_d_481_1910)">
<path d="M12.3653 21.591C11.8606 22.9623 11.9487 24.5374 12.7421 25.9005C13.5355 27.2637 14.8665 28.1269 16.316 28.379C16.2353 28.497 16.1615 28.6171 16.0958 28.7392C15.6803 29.5101 15.0496 30.1791 14.2303 30.6483C11.8919 31.9876 8.90187 31.1928 7.55182 28.8732C6.20176 26.5535 7.00295 23.5875 9.3413 22.2482C10.1607 21.7789 11.06 21.5717 11.9408 21.6003C12.0802 21.6047 12.222 21.6014 12.3653 21.591Z" fill="white"/>
</g>
<g filter="url(#filter8_d_481_1910)">
<path d="M15.134 23.652C15.3881 25.0898 16.2584 26.4101 17.6326 27.1971C19.0067 27.9841 20.5946 28.0716 21.9769 27.571C21.9664 27.7131 21.9631 27.8537 21.9676 27.9921C21.9964 28.8658 21.7875 29.758 21.3145 30.5707C19.9644 32.8904 16.9744 33.6851 14.636 32.3458C12.2976 31.0066 11.4964 28.0406 12.8465 25.7209C13.3196 24.9082 13.9939 24.2826 14.7711 23.8704C14.8941 23.8051 15.0152 23.7319 15.134 23.652Z" fill="white"/>
</g>
<g filter="url(#filter9_d_481_1910)">
<path d="M18.5683 24.0648C19.5131 25.1841 20.9323 25.8958 22.519 25.8958C24.1058 25.8958 25.5249 25.1841 26.4698 24.0648C26.5323 24.1931 26.6003 24.3165 26.674 24.434C27.1393 25.1764 27.408 26.0527 27.408 26.9913C27.408 29.6698 25.2192 31.8411 22.519 31.8411C19.8189 31.8411 17.6301 29.6698 17.6301 26.9913C17.6301 26.0527 17.8988 25.1764 18.3641 24.434C18.4378 24.3165 18.5058 24.1931 18.5683 24.0648Z" fill="white"/>
</g>
<g filter="url(#filter10_d_481_1910)">
<path d="M21.7493 22.7178C23.1316 23.2184 24.7194 23.1309 26.0935 22.344C27.4677 21.557 28.338 20.2367 28.5921 18.7988C28.7109 18.8787 28.832 18.952 28.9551 19.0172C29.7323 19.4294 30.4066 20.055 30.8797 20.8677C32.2298 23.1874 31.4285 26.1535 29.0902 27.4928C26.7518 28.832 23.7618 28.0372 22.4117 25.7175C21.9387 24.9048 21.7298 24.0126 21.7585 23.1389C21.7631 23.0006 21.7598 22.86 21.7493 22.7178Z" fill="white"/>
</g>
<g filter="url(#filter11_d_481_1910)">
<path d="M27.4015 17.4889C27.4006 17.4906 27.3996 17.4923 27.3986 17.494C26.6053 18.8571 25.2743 19.7204 23.8248 19.9725C23.9054 20.0905 23.9792 20.2106 24.045 20.3326C24.4605 21.1036 25.0912 21.7725 25.9105 22.2418C28.2489 23.5811 31.2389 22.7863 32.589 20.4667C33.7463 18.478 33.3226 16.0141 31.7047 14.5077C30.9939 16.1998 29.3445 17.4068 27.4015 17.4889Z" fill="white"/>
</g>
<defs>
<filter id="filter0_d_481_1910" x="22.2377" y="5.78996" width="11.8464" height="13.7069" filterUnits="userSpaceOnUse" color-interpolation-filters="sRGB">
<feFlood flood-opacity="0" result="BackgroundImageFix"/>
<feColorMatrix in="SourceAlpha" type="matrix" values="0 0 0 0 0 0 0 0 0 0 0 0 0 0 0 0 0 0 127 0" result="hardAlpha"/>
<feOffset/>
<feGaussianBlur stdDeviation="1"/>
<feComposite in2="hardAlpha" operator="out"/>
<feColorMatrix type="matrix" values="0 0 0 0 1 0 0 0 0 1 0 0 0 0 1 0 0 0 0.25 0"/>
<feBlend mode="normal" in2="BackgroundImageFix" result="effect1_dropShadow_481_1910"/>
<feBlend mode="normal" in="SourceGraphic" in2="effect1_dropShadow_481_1910" result="shape"/>
</filter>
<filter id="filter1_d_481_1910" x="16.9288" y="1.69648" width="13.4273" height="13.7152" filterUnits="userSpaceOnUse" color-interpolation-filters="sRGB">
<feFlood flood-opacity="0" result="BackgroundImageFix"/>
<feColorMatrix in="SourceAlpha" type="matrix" values="0 0 0 0 0 0 0 0 0 0 0 0 0 0 0 0 0 0 127 0" result="hardAlpha"/>
<feOffset/>
<feGaussianBlur stdDeviation="1"/>
<feComposite in2="hardAlpha" operator="out"/>
<feColorMatrix type="matrix" values="0 0 0 0 1 0 0 0 0 1 0 0 0 0 1 0 0 0 0.25 0"/>
<feBlend mode="normal" in2="BackgroundImageFix" result="effect1_dropShadow_481_1910"/>
<feBlend mode="normal" in="SourceGraphic" in2="effect1_dropShadow_481_1910" result="shape"/>
</filter>
<filter id="filter2_d_481_1910" x="11.2706" y="0" width="13.7937" height="13.3517" filterUnits="userSpaceOnUse" color-interpolation-filters="sRGB">
<feFlood flood-opacity="0" result="BackgroundImageFix"/>
<feColorMatrix in="SourceAlpha" type="matrix" values="0 0 0 0 0 0 0 0 0 0 0 0 0 0 0 0 0 0 127 0" result="hardAlpha"/>
<feOffset/>
<feGaussianBlur stdDeviation="1"/>
<feComposite in2="hardAlpha" operator="out"/>
<feColorMatrix type="matrix" values="0 0 0 0 1 0 0 0 0 1 0 0 0 0 1 0 0 0 0.25 0"/>
<feBlend mode="normal" in2="BackgroundImageFix" result="effect1_dropShadow_481_1910"/>
<feBlend mode="normal" in="SourceGraphic" in2="effect1_dropShadow_481_1910" result="shape"/>
</filter>
<filter id="filter3_d_481_1910" x="5.83827" y="1.1574" width="13.7853" height="11.7834" filterUnits="userSpaceOnUse" color-interpolation-filters="sRGB">
<feFlood flood-opacity="0" result="BackgroundImageFix"/>
<feColorMatrix in="SourceAlpha" type="matrix" values="0 0 0 0 0 0 0 0 0 0 0 0 0 0 0 0 0 0 127 0" result="hardAlpha"/>
<feOffset/>
<feGaussianBlur stdDeviation="1"/>
<feComposite in2="hardAlpha" operator="out"/>
<feColorMatrix type="matrix" values="0 0 0 0 1 0 0 0 0 1 0 0 0 0 1 0 0 0 0.25 0"/>
<feBlend mode="normal" in2="BackgroundImageFix" result="effect1_dropShadow_481_1910"/>
<feBlend mode="normal" in="SourceGraphic" in2="effect1_dropShadow_481_1910" result="shape"/>
</filter>
<filter id="filter4_d_481_1910" x="1.71195" y="4.85464" width="13.7937" height="13.3517" filterUnits="userSpaceOnUse" color-interpolation-filters="sRGB">
<feFlood flood-opacity="0" result="BackgroundImageFix"/>
<feColorMatrix in="SourceAlpha" type="matrix" values="0 0 0 0 0 0 0 0 0 0 0 0 0 0 0 0 0 0 127 0" result="hardAlpha"/>
<feOffset/>
<feGaussianBlur stdDeviation="1"/>
<feComposite in2="hardAlpha" operator="out"/>
<feColorMatrix type="matrix" values="0 0 0 0 1 0 0 0 0 1 0 0 0 0 1 0 0 0 0.25 0"/>
<feBlend mode="normal" in2="BackgroundImageFix" result="effect1_dropShadow_481_1910"/>
<feBlend mode="normal" in="SourceGraphic" in2="effect1_dropShadow_481_1910" result="shape"/>
</filter>
<filter id="filter5_d_481_1910" x="0" y="10.1055" width="13.4274" height="13.7152" filterUnits="userSpaceOnUse" color-interpolation-filters="sRGB">
<feFlood flood-opacity="0" result="BackgroundImageFix"/>
<feColorMatrix in="SourceAlpha" type="matrix" values="0 0 0 0 0 0 0 0 0 0 0 0 0 0 0 0 0 0 127 0" result="hardAlpha"/>
<feOffset/>
<feGaussianBlur stdDeviation="1"/>
<feComposite in2="hardAlpha" operator="out"/>
<feColorMatrix type="matrix" values="0 0 0 0 1 0 0 0 0 1 0 0 0 0 1 0 0 0 0.25 0"/>
<feBlend mode="normal" in2="BackgroundImageFix" result="effect1_dropShadow_481_1910"/>
<feBlend mode="normal" in="SourceGraphic" in2="effect1_dropShadow_481_1910" result="shape"/>
</filter>
<filter id="filter6_d_481_1910" x="1.1648" y="15.5012" width="11.8464" height="13.7069" filterUnits="userSpaceOnUse" color-interpolation-filters="sRGB">
<feFlood flood-opacity="0" result="BackgroundImageFix"/>
<feColorMatrix in="SourceAlpha" type="matrix" values="0 0 0 0 0 0 0 0 0 0 0 0 0 0 0 0 0 0 127 0" result="hardAlpha"/>
<feOffset/>
<feGaussianBlur stdDeviation="1"/>
<feComposite in2="hardAlpha" operator="out"/>
<feColorMatrix type="matrix" values="0 0 0 0 1 0 0 0 0 1 0 0 0 0 1 0 0 0 0.25 0"/>
<feBlend mode="normal" in2="BackgroundImageFix" result="effect1_dropShadow_481_1910"/>
<feBlend mode="normal" in="SourceGraphic" in2="effect1_dropShadow_481_1910" result="shape"/>
</filter>
<filter id="filter7_d_481_1910" x="4.89231" y="19.5873" width="13.4274" height="13.7152" filterUnits="userSpaceOnUse" color-interpolation-filters="sRGB">
<feFlood flood-opacity="0" result="BackgroundImageFix"/>
<feColorMatrix in="SourceAlpha" type="matrix" values="0 0 0 0 0 0 0 0 0 0 0 0 0 0 0 0 0 0 127 0" result="hardAlpha"/>
<feOffset/>
<feGaussianBlur stdDeviation="1"/>
<feComposite in2="hardAlpha" operator="out"/>
<feColorMatrix type="matrix" values="0 0 0 0 1 0 0 0 0 1 0 0 0 0 1 0 0 0 0.25 0"/>
<feBlend mode="normal" in2="BackgroundImageFix" result="effect1_dropShadow_481_1910"/>
<feBlend mode="normal" in="SourceGraphic" in2="effect1_dropShadow_481_1910" result="shape"/>
</filter>
<filter id="filter8_d_481_1910" x="10.187" y="21.6483" width="13.7937" height="13.3517" filterUnits="userSpaceOnUse" color-interpolation-filters="sRGB">
<feFlood flood-opacity="0" result="BackgroundImageFix"/>
<feColorMatrix in="SourceAlpha" type="matrix" values="0 0 0 0 0 0 0 0 0 0 0 0 0 0 0 0 0 0 127 0" result="hardAlpha"/>
<feOffset/>
<feGaussianBlur stdDeviation="1"/>
<feComposite in2="hardAlpha" operator="out"/>
<feColorMatrix type="matrix" values="0 0 0 0 1 0 0 0 0 1 0 0 0 0 1 0 0 0 0.25 0"/>
<feBlend mode="normal" in2="BackgroundImageFix" result="effect1_dropShadow_481_1910"/>
<feBlend mode="normal" in="SourceGraphic" in2="effect1_dropShadow_481_1910" result="shape"/>
</filter>
<filter id="filter9_d_481_1910" x="15.6264" y="22.0611" width="13.7853" height="11.7834" filterUnits="userSpaceOnUse" color-interpolation-filters="sRGB">
<feFlood flood-opacity="0" result="BackgroundImageFix"/>
<feColorMatrix in="SourceAlpha" type="matrix" values="0 0 0 0 0 0 0 0 0 0 0 0 0 0 0 0 0 0 127 0" result="hardAlpha"/>
<feOffset/>
<feGaussianBlur stdDeviation="1"/>
<feComposite in2="hardAlpha" operator="out"/>
<feColorMatrix type="matrix" values="0 0 0 0 1 0 0 0 0 1 0 0 0 0 1 0 0 0 0.25 0"/>
<feBlend mode="normal" in2="BackgroundImageFix" result="effect1_dropShadow_481_1910"/>
<feBlend mode="normal" in="SourceGraphic" in2="effect1_dropShadow_481_1910" result="shape"/>
</filter>
<filter id="filter10_d_481_1910" x="19.7456" y="16.7951" width="13.7937" height="13.3517" filterUnits="userSpaceOnUse" color-interpolation-filters="sRGB">
<feFlood flood-opacity="0" result="BackgroundImageFix"/>
<feColorMatrix in="SourceAlpha" type="matrix" values="0 0 0 0 0 0 0 0 0 0 0 0 0 0 0 0 0 0 127 0" result="hardAlpha"/>
<feOffset/>
<feGaussianBlur stdDeviation="1"/>
<feComposite in2="hardAlpha" operator="out"/>
<feColorMatrix type="matrix" values="0 0 0 0 1 0 0 0 0 1 0 0 0 0 1 0 0 0 0.25 0"/>
<feBlend mode="normal" in2="BackgroundImageFix" result="effect1_dropShadow_481_1910"/>
<feBlend mode="normal" in="SourceGraphic" in2="effect1_dropShadow_481_1910" result="shape"/>
</filter>
<filter id="filter11_d_481_1910" x="21.8211" y="12.504" width="13.4273" height="12.392" filterUnits="userSpaceOnUse" color-interpolation-filters="sRGB">
<feFlood flood-opacity="0" result="BackgroundImageFix"/>
<feColorMatrix in="SourceAlpha" type="matrix" values="0 0 0 0 0 0 0 0 0 0 0 0 0 0 0 0 0 0 127 0" result="hardAlpha"/>
<feOffset/>
<feGaussianBlur stdDeviation="1"/>
<feComposite in2="hardAlpha" operator="out"/>
<feColorMatrix type="matrix" values="0 0 0 0 1 0 0 0 0 1 0 0 0 0 1 0 0 0 0.25 0"/>
<feBlend mode="normal" in2="BackgroundImageFix" result="effect1_dropShadow_481_1910"/>
<feBlend mode="normal" in="SourceGraphic" in2="effect1_dropShadow_481_1910" result="shape"/>
</filter>
</defs>
</svg>
