<svg width="28" height="28" viewBox="0 0 28 28" fill="none" xmlns="http://www.w3.org/2000/svg">
<path d="M21.2968 5.37562C18.7225 2.79984 14.5304 2.79984 11.9588 5.37562L4.82618 12.5069C4.77972 12.5534 4.75512 12.6162 4.75512 12.6819C4.75512 12.7475 4.77972 12.8104 4.82618 12.8569L5.83458 13.8659C5.88068 13.9118 5.94307 13.9375 6.00812 13.9375C6.07316 13.9375 6.13556 13.9118 6.18165 13.8659L13.3143 6.7346C14.1997 5.84866 15.3776 5.36195 16.6292 5.36195C17.8808 5.36195 19.0587 5.84866 19.9414 6.7346C20.8268 7.62054 21.3132 8.79905 21.3132 10.0487C21.3132 11.301 20.8268 12.4768 19.9414 13.3627L12.6721 20.6334L11.4942 21.8119C10.3929 22.9139 8.60292 22.9139 7.5016 21.8119C6.9687 21.2787 6.67629 20.5705 6.67629 19.8159C6.67629 19.0612 6.9687 18.353 7.5016 17.8198L14.7135 10.6065C14.8966 10.426 15.1371 10.3248 15.394 10.3248H15.3967C15.6536 10.3248 15.8913 10.426 16.0717 10.6065C16.2548 10.7897 16.3532 11.0303 16.3532 11.2873C16.3532 11.5416 16.2521 11.7823 16.0717 11.9627L10.177 17.8553C10.1306 17.9018 10.106 17.9647 10.106 18.0303C10.106 18.0959 10.1306 18.1588 10.177 18.2053L11.1854 19.2143C11.2315 19.2602 11.2939 19.286 11.359 19.286C11.424 19.286 11.4864 19.2602 11.5325 19.2143L17.4244 13.319C17.9683 12.7748 18.2661 12.053 18.2661 11.2846C18.2661 10.5162 17.9655 9.79163 17.4244 9.25023C16.3012 8.1264 14.4757 8.12913 13.3525 9.25023L12.6529 9.95296L6.14339 16.4635C5.70158 16.903 5.35136 17.4258 5.11305 18.0018C4.87474 18.5777 4.75308 19.1952 4.75512 19.8186C4.75512 21.0846 5.24976 22.2741 6.14339 23.1682C7.06981 24.0924 8.28318 24.5545 9.49655 24.5545C10.7099 24.5545 11.9233 24.0924 12.847 23.1682L21.2968 14.719C22.5403 13.4721 23.2289 11.8123 23.2289 10.0487C23.2317 8.28226 22.543 6.62249 21.2968 5.37562Z" fill="#333333"/>
</svg>
