<svg width="44" height="44" viewBox="0 0 44 44" fill="none" xmlns="http://www.w3.org/2000/svg">
<path d="M21.9994 14.6666V22M21.9994 29.3333H22.0178M18.8644 5.2433L3.33609 31.1666C3.01594 31.7211 2.84653 32.3497 2.84474 32.9899C2.84295 33.6302 3.00883 34.2597 3.32588 34.8159C3.64293 35.3722 4.10009 35.8357 4.65189 36.1604C5.20369 36.4851 5.83089 36.6596 6.47109 36.6666H37.5278C38.168 36.6596 38.7952 36.4851 39.347 36.1604C39.8988 35.8357 40.3559 35.3722 40.673 34.8159C40.99 34.2597 41.1559 33.6302 41.1541 32.9899C41.1523 32.3497 40.9829 31.7211 40.6628 31.1666L25.1344 5.2433C24.8076 4.7045 24.3474 4.25902 23.7983 3.94986C23.2492 3.64069 22.6296 3.47827 21.9994 3.47827C21.3692 3.47827 20.7497 3.64069 20.2006 3.94986C19.6514 4.25902 19.1913 4.7045 18.8644 5.2433Z" stroke="#D92D20" stroke-width="3" stroke-linecap="round" stroke-linejoin="round"/>
</svg>
