<svg width="36" height="35" viewBox="0 0 36 35" fill="none" xmlns="http://www.w3.org/2000/svg">
<g filter="url(#filter0_d_51_1574)">
<path d="M24.2415 16.5624C25.3697 15.6251 26.0872 14.2173 26.0872 12.6433C26.0872 11.0693 25.3697 9.66152 24.2415 8.72425C24.3708 8.66213 24.4952 8.59473 24.6138 8.52167C25.3621 8.06007 26.2454 7.79348 27.1915 7.79348C29.8917 7.79348 32.0805 9.96486 32.0805 12.6433C32.0805 15.3218 29.8917 17.4931 27.1915 17.4931C26.2454 17.4931 25.3621 17.2265 24.6138 16.765C24.4952 16.6919 24.3708 16.6245 24.2415 16.5624Z" fill="white"/>
</g>
<g filter="url(#filter1_d_51_1574)">
<path d="M22.8831 13.408C23.3878 12.0367 23.2996 10.4617 22.5062 9.09854C21.7128 7.7354 20.3819 6.8721 18.9324 6.62002C19.0131 6.50212 19.0868 6.38201 19.1526 6.25994C19.5681 5.489 20.1987 4.82 21.018 4.35074C23.3564 3.0115 26.3465 3.80627 27.6965 6.1259C29.0466 8.44554 28.2454 11.4117 25.907 12.7509C25.0877 13.2201 24.1883 13.4274 23.3075 13.3989C23.1681 13.3943 23.0263 13.3977 22.8831 13.408Z" fill="white"/>
</g>
<g filter="url(#filter2_d_51_1574)">
<path d="M20.1173 11.3482C19.8632 9.91032 18.9929 8.59003 17.6187 7.80302C16.2446 7.016 14.6568 6.92852 13.2745 7.42916C13.285 7.28705 13.2883 7.14643 13.2837 7.0081C13.2549 6.13436 13.4639 5.2422 13.9369 4.42941C15.287 2.10978 18.277 1.31501 20.6154 2.65426C22.9538 3.9935 23.755 6.9596 22.4049 9.27926C21.9318 10.092 21.2575 10.7176 20.4803 11.1298C20.3573 11.195 20.2362 11.2682 20.1173 11.3482Z" fill="white"/>
</g>
<g filter="url(#filter3_d_51_1574)">
<path d="M16.6818 10.9372C15.737 9.81798 14.3178 9.10624 12.7311 9.10624C11.1443 9.10624 9.7252 9.81798 8.78037 10.9372C8.71779 10.8089 8.64982 10.6855 8.57614 10.5679C8.11083 9.82551 7.84209 8.94929 7.84209 8.01075C7.84209 5.33226 10.031 3.16092 12.7311 3.16092C15.4312 3.16092 17.6201 5.33226 17.6201 8.01075C17.6201 8.94929 17.3513 9.82551 16.886 10.5679C16.8123 10.6855 16.7443 10.8089 16.6818 10.9372Z" fill="white"/>
</g>
<g filter="url(#filter4_d_51_1574)">
<path d="M13.5021 12.284C12.1197 11.7834 10.5319 11.8709 9.15779 12.6578C7.78364 13.4449 6.91337 14.7652 6.65927 16.203C6.54041 16.123 6.41933 16.0499 6.29627 15.9846C5.51911 15.5724 4.8447 14.9468 4.37165 14.1341C3.02159 11.8144 3.82277 8.84836 6.16114 7.5091C8.49951 6.16985 11.4895 6.96461 12.8397 9.28427C13.3127 10.097 13.5216 10.9892 13.4928 11.8629C13.4883 12.0012 13.4916 12.1419 13.5021 12.284Z" fill="white"/>
</g>
<g filter="url(#filter5_d_51_1574)">
<path d="M11.4237 15.0289C9.97418 15.281 8.64324 16.1443 7.84988 17.5075C7.05651 18.8706 6.96832 20.4456 7.47301 21.8169C7.32973 21.8065 7.18796 21.8032 7.04849 21.8077C6.16771 21.8363 5.26835 21.629 4.44901 21.1598C2.11064 19.8205 1.30945 16.8544 2.65951 14.5348C4.00956 12.2152 6.99962 11.4203 9.33799 12.7596C10.1573 13.2289 10.7879 13.8979 11.2034 14.6688C11.2692 14.7909 11.343 14.911 11.4237 15.0289Z" fill="white"/>
</g>
<g filter="url(#filter6_d_51_1574)">
<path d="M11.0075 18.4357C9.87923 19.373 9.16172 20.7808 9.16172 22.3547C9.16172 23.9288 9.87923 25.3366 11.0075 26.2738C10.8782 26.3359 10.7537 26.4034 10.6352 26.4764C9.88686 26.938 9.00352 27.2046 8.05742 27.2046C5.35731 27.2046 3.16844 25.0332 3.16844 22.3547C3.16844 19.6762 5.35731 17.5049 8.05742 17.5049C9.00352 17.5049 9.88686 17.7715 10.6352 18.2331C10.7537 18.3062 10.8782 18.3736 11.0075 18.4357Z" fill="white"/>
</g>
<g filter="url(#filter7_d_51_1574)">
<path d="M12.3653 21.5912C11.8606 22.9625 11.9488 24.5375 12.7422 25.9007C13.5355 27.2639 14.8665 28.1271 16.316 28.3792C16.2353 28.4972 16.1616 28.6173 16.0958 28.7394C15.6803 29.5103 15.0497 30.1792 14.2303 30.6485C11.8919 31.9878 8.90189 31.193 7.55183 28.8734C6.20177 26.5537 7.00296 23.5876 9.34132 22.2483C10.1607 21.7791 11.0601 21.5718 11.9408 21.6004C12.0802 21.6049 12.222 21.6016 12.3653 21.5912Z" fill="white"/>
</g>
<g filter="url(#filter8_d_51_1574)">
<path d="M15.1338 23.6518C15.3879 25.0897 16.2582 26.41 17.6324 27.1969C19.0065 27.984 20.5944 28.0715 21.9767 27.5708C21.9662 27.713 21.9629 27.8535 21.9674 27.9919C21.9962 28.8657 21.7873 29.7578 21.3143 30.5706C19.9642 32.8903 16.9742 33.685 14.6357 32.3457C12.2973 31.0065 11.4962 28.0404 12.8463 25.7208C13.3193 24.908 13.9937 24.2824 14.7708 23.8703C14.8939 23.805 15.015 23.7318 15.1338 23.6518Z" fill="white"/>
</g>
<g filter="url(#filter9_d_51_1574)">
<path d="M18.5684 24.065C19.5132 25.1843 20.9324 25.896 22.5191 25.896C24.1059 25.896 25.525 25.1843 26.4699 24.065C26.5324 24.1933 26.6004 24.3168 26.6741 24.4343C27.1394 25.1767 27.4081 26.053 27.4081 26.9915C27.4081 29.67 25.2193 31.8413 22.5191 31.8413C19.819 31.8413 17.6302 29.67 17.6302 26.9915C17.6302 26.053 17.8989 25.1767 18.3642 24.4343C18.4379 24.3168 18.5059 24.1933 18.5684 24.065Z" fill="white"/>
</g>
<g filter="url(#filter10_d_51_1574)">
<path d="M21.7496 22.7178C23.1319 23.2184 24.7197 23.1309 26.0938 22.344C27.468 21.5569 28.3383 20.2366 28.5924 18.7988C28.7112 18.8787 28.8323 18.9519 28.9554 19.0172C29.7326 19.4294 30.4069 20.0549 30.88 20.8677C32.2301 23.1874 31.4288 26.1534 29.0905 27.4927C26.7521 28.8319 23.7621 28.0372 22.412 25.7175C21.939 24.9048 21.73 24.0126 21.7588 23.1389C21.7634 23.0006 21.76 22.8599 21.7496 22.7178Z" fill="white"/>
</g>
<g filter="url(#filter11_d_51_1574)">
<path d="M27.4014 17.4888C27.4004 17.4906 27.3994 17.4923 27.3984 17.494C26.6051 18.8571 25.2742 19.7204 23.8247 19.9725C23.9053 20.0904 23.9791 20.2106 24.0449 20.3326C24.4604 21.1035 25.091 21.7725 25.9103 22.2418C28.2487 23.5811 31.2388 22.7862 32.5889 20.4667C33.7462 18.4779 33.3225 16.0141 31.7046 14.5076C30.9938 16.1998 29.3444 17.4067 27.4014 17.4888Z" fill="white"/>
</g>
<defs>
<filter id="filter0_d_51_1574" x="22.2378" y="5.78979" width="11.8465" height="13.707" filterUnits="userSpaceOnUse" color-interpolation-filters="sRGB">
<feFlood flood-opacity="0" result="BackgroundImageFix"/>
<feColorMatrix in="SourceAlpha" type="matrix" values="0 0 0 0 0 0 0 0 0 0 0 0 0 0 0 0 0 0 127 0" result="hardAlpha"/>
<feOffset/>
<feGaussianBlur stdDeviation="1"/>
<feComposite in2="hardAlpha" operator="out"/>
<feColorMatrix type="matrix" values="0 0 0 0 1 0 0 0 0 1 0 0 0 0 1 0 0 0 0.25 0"/>
<feBlend mode="normal" in2="BackgroundImageFix" result="effect1_dropShadow_51_1574"/>
<feBlend mode="normal" in="SourceGraphic" in2="effect1_dropShadow_51_1574" result="shape"/>
</filter>
<filter id="filter1_d_51_1574" x="16.9287" y="1.69649" width="13.4276" height="13.7152" filterUnits="userSpaceOnUse" color-interpolation-filters="sRGB">
<feFlood flood-opacity="0" result="BackgroundImageFix"/>
<feColorMatrix in="SourceAlpha" type="matrix" values="0 0 0 0 0 0 0 0 0 0 0 0 0 0 0 0 0 0 127 0" result="hardAlpha"/>
<feOffset/>
<feGaussianBlur stdDeviation="1"/>
<feComposite in2="hardAlpha" operator="out"/>
<feColorMatrix type="matrix" values="0 0 0 0 1 0 0 0 0 1 0 0 0 0 1 0 0 0 0.25 0"/>
<feBlend mode="normal" in2="BackgroundImageFix" result="effect1_dropShadow_51_1574"/>
<feBlend mode="normal" in="SourceGraphic" in2="effect1_dropShadow_51_1574" result="shape"/>
</filter>
<filter id="filter2_d_51_1574" x="11.2708" y="0" width="13.7935" height="13.3519" filterUnits="userSpaceOnUse" color-interpolation-filters="sRGB">
<feFlood flood-opacity="0" result="BackgroundImageFix"/>
<feColorMatrix in="SourceAlpha" type="matrix" values="0 0 0 0 0 0 0 0 0 0 0 0 0 0 0 0 0 0 127 0" result="hardAlpha"/>
<feOffset/>
<feGaussianBlur stdDeviation="1"/>
<feComposite in2="hardAlpha" operator="out"/>
<feColorMatrix type="matrix" values="0 0 0 0 1 0 0 0 0 1 0 0 0 0 1 0 0 0 0.25 0"/>
<feBlend mode="normal" in2="BackgroundImageFix" result="effect1_dropShadow_51_1574"/>
<feBlend mode="normal" in="SourceGraphic" in2="effect1_dropShadow_51_1574" result="shape"/>
</filter>
<filter id="filter3_d_51_1574" x="5.8384" y="1.15722" width="13.7852" height="11.7837" filterUnits="userSpaceOnUse" color-interpolation-filters="sRGB">
<feFlood flood-opacity="0" result="BackgroundImageFix"/>
<feColorMatrix in="SourceAlpha" type="matrix" values="0 0 0 0 0 0 0 0 0 0 0 0 0 0 0 0 0 0 127 0" result="hardAlpha"/>
<feOffset/>
<feGaussianBlur stdDeviation="1"/>
<feComposite in2="hardAlpha" operator="out"/>
<feColorMatrix type="matrix" values="0 0 0 0 1 0 0 0 0 1 0 0 0 0 1 0 0 0 0.25 0"/>
<feBlend mode="normal" in2="BackgroundImageFix" result="effect1_dropShadow_51_1574"/>
<feBlend mode="normal" in="SourceGraphic" in2="effect1_dropShadow_51_1574" result="shape"/>
</filter>
<filter id="filter4_d_51_1574" x="1.71214" y="4.85483" width="13.7935" height="13.3519" filterUnits="userSpaceOnUse" color-interpolation-filters="sRGB">
<feFlood flood-opacity="0" result="BackgroundImageFix"/>
<feColorMatrix in="SourceAlpha" type="matrix" values="0 0 0 0 0 0 0 0 0 0 0 0 0 0 0 0 0 0 127 0" result="hardAlpha"/>
<feOffset/>
<feGaussianBlur stdDeviation="1"/>
<feComposite in2="hardAlpha" operator="out"/>
<feColorMatrix type="matrix" values="0 0 0 0 1 0 0 0 0 1 0 0 0 0 1 0 0 0 0.25 0"/>
<feBlend mode="normal" in2="BackgroundImageFix" result="effect1_dropShadow_51_1574"/>
<feBlend mode="normal" in="SourceGraphic" in2="effect1_dropShadow_51_1574" result="shape"/>
</filter>
<filter id="filter5_d_51_1574" x="0" y="10.1054" width="13.4276" height="13.7153" filterUnits="userSpaceOnUse" color-interpolation-filters="sRGB">
<feFlood flood-opacity="0" result="BackgroundImageFix"/>
<feColorMatrix in="SourceAlpha" type="matrix" values="0 0 0 0 0 0 0 0 0 0 0 0 0 0 0 0 0 0 127 0" result="hardAlpha"/>
<feOffset/>
<feGaussianBlur stdDeviation="1"/>
<feComposite in2="hardAlpha" operator="out"/>
<feColorMatrix type="matrix" values="0 0 0 0 1 0 0 0 0 1 0 0 0 0 1 0 0 0 0.25 0"/>
<feBlend mode="normal" in2="BackgroundImageFix" result="effect1_dropShadow_51_1574"/>
<feBlend mode="normal" in="SourceGraphic" in2="effect1_dropShadow_51_1574" result="shape"/>
</filter>
<filter id="filter6_d_51_1574" x="1.16474" y="15.5012" width="11.8465" height="13.707" filterUnits="userSpaceOnUse" color-interpolation-filters="sRGB">
<feFlood flood-opacity="0" result="BackgroundImageFix"/>
<feColorMatrix in="SourceAlpha" type="matrix" values="0 0 0 0 0 0 0 0 0 0 0 0 0 0 0 0 0 0 127 0" result="hardAlpha"/>
<feOffset/>
<feGaussianBlur stdDeviation="1"/>
<feComposite in2="hardAlpha" operator="out"/>
<feColorMatrix type="matrix" values="0 0 0 0 1 0 0 0 0 1 0 0 0 0 1 0 0 0 0.25 0"/>
<feBlend mode="normal" in2="BackgroundImageFix" result="effect1_dropShadow_51_1574"/>
<feBlend mode="normal" in="SourceGraphic" in2="effect1_dropShadow_51_1574" result="shape"/>
</filter>
<filter id="filter7_d_51_1574" x="4.89232" y="19.5875" width="13.4276" height="13.7153" filterUnits="userSpaceOnUse" color-interpolation-filters="sRGB">
<feFlood flood-opacity="0" result="BackgroundImageFix"/>
<feColorMatrix in="SourceAlpha" type="matrix" values="0 0 0 0 0 0 0 0 0 0 0 0 0 0 0 0 0 0 127 0" result="hardAlpha"/>
<feOffset/>
<feGaussianBlur stdDeviation="1"/>
<feComposite in2="hardAlpha" operator="out"/>
<feColorMatrix type="matrix" values="0 0 0 0 1 0 0 0 0 1 0 0 0 0 1 0 0 0 0.25 0"/>
<feBlend mode="normal" in2="BackgroundImageFix" result="effect1_dropShadow_51_1574"/>
<feBlend mode="normal" in="SourceGraphic" in2="effect1_dropShadow_51_1574" result="shape"/>
</filter>
<filter id="filter8_d_51_1574" x="10.1867" y="21.6481" width="13.7935" height="13.3519" filterUnits="userSpaceOnUse" color-interpolation-filters="sRGB">
<feFlood flood-opacity="0" result="BackgroundImageFix"/>
<feColorMatrix in="SourceAlpha" type="matrix" values="0 0 0 0 0 0 0 0 0 0 0 0 0 0 0 0 0 0 127 0" result="hardAlpha"/>
<feOffset/>
<feGaussianBlur stdDeviation="1"/>
<feComposite in2="hardAlpha" operator="out"/>
<feColorMatrix type="matrix" values="0 0 0 0 1 0 0 0 0 1 0 0 0 0 1 0 0 0 0.25 0"/>
<feBlend mode="normal" in2="BackgroundImageFix" result="effect1_dropShadow_51_1574"/>
<feBlend mode="normal" in="SourceGraphic" in2="effect1_dropShadow_51_1574" result="shape"/>
</filter>
<filter id="filter9_d_51_1574" x="15.6265" y="22.0614" width="13.7852" height="11.7836" filterUnits="userSpaceOnUse" color-interpolation-filters="sRGB">
<feFlood flood-opacity="0" result="BackgroundImageFix"/>
<feColorMatrix in="SourceAlpha" type="matrix" values="0 0 0 0 0 0 0 0 0 0 0 0 0 0 0 0 0 0 127 0" result="hardAlpha"/>
<feOffset/>
<feGaussianBlur stdDeviation="1"/>
<feComposite in2="hardAlpha" operator="out"/>
<feColorMatrix type="matrix" values="0 0 0 0 1 0 0 0 0 1 0 0 0 0 1 0 0 0 0.25 0"/>
<feBlend mode="normal" in2="BackgroundImageFix" result="effect1_dropShadow_51_1574"/>
<feBlend mode="normal" in="SourceGraphic" in2="effect1_dropShadow_51_1574" result="shape"/>
</filter>
<filter id="filter10_d_51_1574" x="19.7459" y="16.7951" width="13.7935" height="13.3519" filterUnits="userSpaceOnUse" color-interpolation-filters="sRGB">
<feFlood flood-opacity="0" result="BackgroundImageFix"/>
<feColorMatrix in="SourceAlpha" type="matrix" values="0 0 0 0 0 0 0 0 0 0 0 0 0 0 0 0 0 0 127 0" result="hardAlpha"/>
<feOffset/>
<feGaussianBlur stdDeviation="1"/>
<feComposite in2="hardAlpha" operator="out"/>
<feColorMatrix type="matrix" values="0 0 0 0 1 0 0 0 0 1 0 0 0 0 1 0 0 0 0.25 0"/>
<feBlend mode="normal" in2="BackgroundImageFix" result="effect1_dropShadow_51_1574"/>
<feBlend mode="normal" in="SourceGraphic" in2="effect1_dropShadow_51_1574" result="shape"/>
</filter>
<filter id="filter11_d_51_1574" x="21.821" y="12.5039" width="13.4276" height="12.3921" filterUnits="userSpaceOnUse" color-interpolation-filters="sRGB">
<feFlood flood-opacity="0" result="BackgroundImageFix"/>
<feColorMatrix in="SourceAlpha" type="matrix" values="0 0 0 0 0 0 0 0 0 0 0 0 0 0 0 0 0 0 127 0" result="hardAlpha"/>
<feOffset/>
<feGaussianBlur stdDeviation="1"/>
<feComposite in2="hardAlpha" operator="out"/>
<feColorMatrix type="matrix" values="0 0 0 0 1 0 0 0 0 1 0 0 0 0 1 0 0 0 0.25 0"/>
<feBlend mode="normal" in2="BackgroundImageFix" result="effect1_dropShadow_51_1574"/>
<feBlend mode="normal" in="SourceGraphic" in2="effect1_dropShadow_51_1574" result="shape"/>
</filter>
</defs>
</svg>
