<svg width="36" height="35" viewBox="0 0 36 35" fill="none" xmlns="http://www.w3.org/2000/svg">
<g filter="url(#filter0_d_312_1264)">
<path d="M24.2414 16.5625C25.3697 15.6253 26.0872 14.2175 26.0872 12.6434C26.0872 11.0695 25.3697 9.66169 24.2414 8.72442C24.3707 8.6623 24.4952 8.59489 24.6137 8.52184C25.3621 8.06024 26.2454 7.79365 27.1915 7.79365C29.8916 7.79365 32.0805 9.96502 32.0805 12.6434C32.0805 15.3219 29.8916 17.4932 27.1915 17.4932C26.2454 17.4932 25.3621 17.2267 24.6137 16.7651C24.4952 16.6921 24.3707 16.6246 24.2414 16.5625Z" fill="white"/>
</g>
<g filter="url(#filter1_d_312_1264)">
<path d="M22.8831 13.408C23.3877 12.0367 23.2995 10.4617 22.5062 9.09852C21.7128 7.73539 20.3818 6.87208 18.9323 6.62001C19.013 6.50211 19.0868 6.382 19.1525 6.25993C19.568 5.48899 20.1987 4.81999 21.018 4.35073C23.3564 3.0115 26.3465 3.80626 27.6965 6.12589C29.0465 8.44552 28.2454 11.4117 25.907 12.7509C25.0876 13.2201 24.1883 13.4274 23.3075 13.3989C23.1681 13.3943 23.0263 13.3977 22.8831 13.408Z" fill="white"/>
</g>
<g filter="url(#filter2_d_312_1264)">
<path d="M20.1172 11.3482C19.8631 9.9103 18.9929 8.59001 17.6187 7.803C16.2446 7.01599 14.6568 6.92851 13.2744 7.42915C13.2849 7.28703 13.2883 7.14642 13.2837 7.00809C13.2549 6.13435 13.4638 5.24219 13.9369 4.4294C15.287 2.10978 18.277 1.31501 20.6154 2.65425C22.9537 3.99349 23.755 6.95959 22.4049 9.27925C21.9318 10.092 21.2574 10.7176 20.4802 11.1297C20.3572 11.195 20.2362 11.2682 20.1172 11.3482Z" fill="white"/>
</g>
<g filter="url(#filter3_d_312_1264)">
<path d="M16.6818 10.9374C15.737 9.81814 14.3178 9.10641 12.731 9.10641C11.1443 9.10641 9.72518 9.81814 8.78036 10.9374C8.71777 10.8091 8.6498 10.6857 8.57613 10.5681C8.11082 9.82567 7.84208 8.94945 7.84208 8.01092C7.84208 5.33243 10.0309 3.16109 12.731 3.16109C15.4312 3.16109 17.62 5.33243 17.62 8.01092C17.62 8.94945 17.3513 9.82567 16.886 10.5681C16.8123 10.6857 16.7443 10.8091 16.6818 10.9374Z" fill="white"/>
</g>
<g filter="url(#filter4_d_312_1264)">
<path d="M13.5021 12.2838C12.1197 11.7832 10.5319 11.8707 9.15778 12.6576C7.78363 13.4447 6.91335 14.7649 6.65925 16.2028C6.5404 16.1228 6.41932 16.0496 6.29626 15.9844C5.5191 15.5722 4.84469 14.9466 4.37165 14.1339C3.02159 11.8142 3.82277 8.84816 6.16113 7.5089C8.4995 6.16965 11.4895 6.96442 12.8396 9.28407C13.3127 10.0968 13.5216 10.989 13.4928 11.8627C13.4883 12.001 13.4916 12.1417 13.5021 12.2838Z" fill="white"/>
</g>
<g filter="url(#filter5_d_312_1264)">
<path d="M11.4237 15.0291C9.97417 15.2812 8.64323 16.1445 7.84986 17.5076C7.0565 18.8707 6.9683 20.4458 7.473 21.8171C7.32972 21.8067 7.18795 21.8034 7.04848 21.8078C6.1677 21.8364 5.26834 21.6292 4.449 21.1599C2.11063 19.8206 1.30945 16.8546 2.6595 14.5349C4.00956 12.2153 6.99961 11.4205 9.33797 12.7598C10.1573 13.2291 10.7879 13.898 11.2034 14.6689C11.2692 14.791 11.343 14.9111 11.4237 15.0291Z" fill="white"/>
</g>
<g filter="url(#filter6_d_312_1264)">
<path d="M11.0075 18.4357C9.87921 19.373 9.16171 20.7807 9.16171 22.3547C9.16171 23.9288 9.87921 25.3365 11.0075 26.2738C10.8782 26.3358 10.7537 26.4033 10.6352 26.4764C9.88684 26.9379 9.00351 27.2045 8.0574 27.2045C5.3573 27.2045 3.16843 25.0332 3.16843 22.3547C3.16843 19.6762 5.3573 17.5049 8.0574 17.5049C9.00351 17.5049 9.88684 17.7715 10.6352 18.2331C10.7537 18.3062 10.8782 18.3736 11.0075 18.4357Z" fill="white"/>
</g>
<g filter="url(#filter7_d_312_1264)">
<path d="M12.3653 21.591C11.8606 22.9623 11.9487 24.5374 12.7421 25.9005C13.5355 27.2637 14.8665 28.1269 16.316 28.379C16.2353 28.497 16.1615 28.6171 16.0958 28.7392C15.6803 29.5101 15.0496 30.1791 14.2303 30.6483C11.8919 31.9876 8.90187 31.1928 7.55182 28.8732C6.20176 26.5535 7.00295 23.5875 9.3413 22.2482C10.1607 21.7789 11.06 21.5717 11.9408 21.6003C12.0802 21.6047 12.222 21.6014 12.3653 21.591Z" fill="white"/>
</g>
<g filter="url(#filter8_d_312_1264)">
<path d="M15.1338 23.652C15.3879 25.0898 16.2582 26.4101 17.6323 27.1971C19.0065 27.9841 20.5943 28.0716 21.9767 27.571C21.9662 27.7131 21.9629 27.8537 21.9674 27.9921C21.9962 28.8658 21.7873 29.758 21.3142 30.5707C19.9641 32.8904 16.9741 33.6851 14.6357 32.3458C12.2973 31.0066 11.4962 28.0406 12.8463 25.7209C13.3193 24.9082 13.9937 24.2826 14.7708 23.8704C14.8939 23.8051 15.015 23.7319 15.1338 23.652Z" fill="white"/>
</g>
<g filter="url(#filter9_d_312_1264)">
<path d="M18.5684 24.0648C19.5132 25.1841 20.9323 25.8958 22.5191 25.8958C24.1059 25.8958 25.525 25.1841 26.4698 24.0648C26.5324 24.1931 26.6003 24.3165 26.6741 24.434C27.1393 25.1764 27.4081 26.0527 27.4081 26.9913C27.4081 29.6698 25.2192 31.8411 22.5191 31.8411C19.819 31.8411 17.6301 29.6698 17.6301 26.9913C17.6301 26.0527 17.8989 25.1764 18.3641 24.434C18.4379 24.3165 18.5058 24.1931 18.5684 24.0648Z" fill="white"/>
</g>
<g filter="url(#filter10_d_312_1264)">
<path d="M21.7495 22.7178C23.1319 23.2184 24.7196 23.1309 26.0938 22.344C27.4679 21.557 28.3382 20.2367 28.5923 18.7988C28.7111 18.8787 28.8322 18.952 28.9553 19.0172C29.7325 19.4294 30.4069 20.055 30.8799 20.8677C32.23 23.1874 31.4288 26.1535 29.0905 27.4928C26.7521 28.832 23.7621 28.0372 22.412 25.7175C21.9389 24.9048 21.73 24.0126 21.7587 23.1389C21.7634 23.0006 21.76 22.86 21.7495 22.7178Z" fill="white"/>
</g>
<g filter="url(#filter11_d_312_1264)">
<path d="M27.4014 17.4889C27.4004 17.4906 27.3994 17.4923 27.3984 17.494C26.6051 18.8571 25.2741 19.7204 23.8246 19.9725C23.9052 20.0905 23.9791 20.2106 24.0448 20.3326C24.4603 21.1036 25.091 21.7725 25.9103 22.2418C28.2487 23.5811 31.2387 22.7863 32.5888 20.4667C33.7462 18.478 33.3225 16.0141 31.7045 14.5077C30.9937 16.1998 29.3443 17.4068 27.4014 17.4889Z" fill="white"/>
</g>
<defs>
<filter id="filter0_d_312_1264" x="22.2377" y="5.78996" width="11.8465" height="13.7069" filterUnits="userSpaceOnUse" color-interpolation-filters="sRGB">
<feFlood flood-opacity="0" result="BackgroundImageFix"/>
<feColorMatrix in="SourceAlpha" type="matrix" values="0 0 0 0 0 0 0 0 0 0 0 0 0 0 0 0 0 0 127 0" result="hardAlpha"/>
<feOffset/>
<feGaussianBlur stdDeviation="1"/>
<feComposite in2="hardAlpha" operator="out"/>
<feColorMatrix type="matrix" values="0 0 0 0 1 0 0 0 0 1 0 0 0 0 1 0 0 0 0.25 0"/>
<feBlend mode="normal" in2="BackgroundImageFix" result="effect1_dropShadow_312_1264"/>
<feBlend mode="normal" in="SourceGraphic" in2="effect1_dropShadow_312_1264" result="shape"/>
</filter>
<filter id="filter1_d_312_1264" x="16.9286" y="1.69648" width="13.4276" height="13.7152" filterUnits="userSpaceOnUse" color-interpolation-filters="sRGB">
<feFlood flood-opacity="0" result="BackgroundImageFix"/>
<feColorMatrix in="SourceAlpha" type="matrix" values="0 0 0 0 0 0 0 0 0 0 0 0 0 0 0 0 0 0 127 0" result="hardAlpha"/>
<feOffset/>
<feGaussianBlur stdDeviation="1"/>
<feComposite in2="hardAlpha" operator="out"/>
<feColorMatrix type="matrix" values="0 0 0 0 1 0 0 0 0 1 0 0 0 0 1 0 0 0 0.25 0"/>
<feBlend mode="normal" in2="BackgroundImageFix" result="effect1_dropShadow_312_1264"/>
<feBlend mode="normal" in="SourceGraphic" in2="effect1_dropShadow_312_1264" result="shape"/>
</filter>
<filter id="filter2_d_312_1264" x="11.2708" y="0" width="13.7935" height="13.3517" filterUnits="userSpaceOnUse" color-interpolation-filters="sRGB">
<feFlood flood-opacity="0" result="BackgroundImageFix"/>
<feColorMatrix in="SourceAlpha" type="matrix" values="0 0 0 0 0 0 0 0 0 0 0 0 0 0 0 0 0 0 127 0" result="hardAlpha"/>
<feOffset/>
<feGaussianBlur stdDeviation="1"/>
<feComposite in2="hardAlpha" operator="out"/>
<feColorMatrix type="matrix" values="0 0 0 0 1 0 0 0 0 1 0 0 0 0 1 0 0 0 0.25 0"/>
<feBlend mode="normal" in2="BackgroundImageFix" result="effect1_dropShadow_312_1264"/>
<feBlend mode="normal" in="SourceGraphic" in2="effect1_dropShadow_312_1264" result="shape"/>
</filter>
<filter id="filter3_d_312_1264" x="5.83839" y="1.1574" width="13.7852" height="11.7834" filterUnits="userSpaceOnUse" color-interpolation-filters="sRGB">
<feFlood flood-opacity="0" result="BackgroundImageFix"/>
<feColorMatrix in="SourceAlpha" type="matrix" values="0 0 0 0 0 0 0 0 0 0 0 0 0 0 0 0 0 0 127 0" result="hardAlpha"/>
<feOffset/>
<feGaussianBlur stdDeviation="1"/>
<feComposite in2="hardAlpha" operator="out"/>
<feColorMatrix type="matrix" values="0 0 0 0 1 0 0 0 0 1 0 0 0 0 1 0 0 0 0.25 0"/>
<feBlend mode="normal" in2="BackgroundImageFix" result="effect1_dropShadow_312_1264"/>
<feBlend mode="normal" in="SourceGraphic" in2="effect1_dropShadow_312_1264" result="shape"/>
</filter>
<filter id="filter4_d_312_1264" x="1.71214" y="4.85464" width="13.7935" height="13.3517" filterUnits="userSpaceOnUse" color-interpolation-filters="sRGB">
<feFlood flood-opacity="0" result="BackgroundImageFix"/>
<feColorMatrix in="SourceAlpha" type="matrix" values="0 0 0 0 0 0 0 0 0 0 0 0 0 0 0 0 0 0 127 0" result="hardAlpha"/>
<feOffset/>
<feGaussianBlur stdDeviation="1"/>
<feComposite in2="hardAlpha" operator="out"/>
<feColorMatrix type="matrix" values="0 0 0 0 1 0 0 0 0 1 0 0 0 0 1 0 0 0 0.25 0"/>
<feBlend mode="normal" in2="BackgroundImageFix" result="effect1_dropShadow_312_1264"/>
<feBlend mode="normal" in="SourceGraphic" in2="effect1_dropShadow_312_1264" result="shape"/>
</filter>
<filter id="filter5_d_312_1264" x="0" y="10.1055" width="13.4276" height="13.7152" filterUnits="userSpaceOnUse" color-interpolation-filters="sRGB">
<feFlood flood-opacity="0" result="BackgroundImageFix"/>
<feColorMatrix in="SourceAlpha" type="matrix" values="0 0 0 0 0 0 0 0 0 0 0 0 0 0 0 0 0 0 127 0" result="hardAlpha"/>
<feOffset/>
<feGaussianBlur stdDeviation="1"/>
<feComposite in2="hardAlpha" operator="out"/>
<feColorMatrix type="matrix" values="0 0 0 0 1 0 0 0 0 1 0 0 0 0 1 0 0 0 0.25 0"/>
<feBlend mode="normal" in2="BackgroundImageFix" result="effect1_dropShadow_312_1264"/>
<feBlend mode="normal" in="SourceGraphic" in2="effect1_dropShadow_312_1264" result="shape"/>
</filter>
<filter id="filter6_d_312_1264" x="1.16474" y="15.5012" width="11.8465" height="13.7069" filterUnits="userSpaceOnUse" color-interpolation-filters="sRGB">
<feFlood flood-opacity="0" result="BackgroundImageFix"/>
<feColorMatrix in="SourceAlpha" type="matrix" values="0 0 0 0 0 0 0 0 0 0 0 0 0 0 0 0 0 0 127 0" result="hardAlpha"/>
<feOffset/>
<feGaussianBlur stdDeviation="1"/>
<feComposite in2="hardAlpha" operator="out"/>
<feColorMatrix type="matrix" values="0 0 0 0 1 0 0 0 0 1 0 0 0 0 1 0 0 0 0.25 0"/>
<feBlend mode="normal" in2="BackgroundImageFix" result="effect1_dropShadow_312_1264"/>
<feBlend mode="normal" in="SourceGraphic" in2="effect1_dropShadow_312_1264" result="shape"/>
</filter>
<filter id="filter7_d_312_1264" x="4.89231" y="19.5873" width="13.4276" height="13.7152" filterUnits="userSpaceOnUse" color-interpolation-filters="sRGB">
<feFlood flood-opacity="0" result="BackgroundImageFix"/>
<feColorMatrix in="SourceAlpha" type="matrix" values="0 0 0 0 0 0 0 0 0 0 0 0 0 0 0 0 0 0 127 0" result="hardAlpha"/>
<feOffset/>
<feGaussianBlur stdDeviation="1"/>
<feComposite in2="hardAlpha" operator="out"/>
<feColorMatrix type="matrix" values="0 0 0 0 1 0 0 0 0 1 0 0 0 0 1 0 0 0 0.25 0"/>
<feBlend mode="normal" in2="BackgroundImageFix" result="effect1_dropShadow_312_1264"/>
<feBlend mode="normal" in="SourceGraphic" in2="effect1_dropShadow_312_1264" result="shape"/>
</filter>
<filter id="filter8_d_312_1264" x="10.1867" y="21.6483" width="13.7935" height="13.3517" filterUnits="userSpaceOnUse" color-interpolation-filters="sRGB">
<feFlood flood-opacity="0" result="BackgroundImageFix"/>
<feColorMatrix in="SourceAlpha" type="matrix" values="0 0 0 0 0 0 0 0 0 0 0 0 0 0 0 0 0 0 127 0" result="hardAlpha"/>
<feOffset/>
<feGaussianBlur stdDeviation="1"/>
<feComposite in2="hardAlpha" operator="out"/>
<feColorMatrix type="matrix" values="0 0 0 0 1 0 0 0 0 1 0 0 0 0 1 0 0 0 0.25 0"/>
<feBlend mode="normal" in2="BackgroundImageFix" result="effect1_dropShadow_312_1264"/>
<feBlend mode="normal" in="SourceGraphic" in2="effect1_dropShadow_312_1264" result="shape"/>
</filter>
<filter id="filter9_d_312_1264" x="15.6264" y="22.0611" width="13.7852" height="11.7834" filterUnits="userSpaceOnUse" color-interpolation-filters="sRGB">
<feFlood flood-opacity="0" result="BackgroundImageFix"/>
<feColorMatrix in="SourceAlpha" type="matrix" values="0 0 0 0 0 0 0 0 0 0 0 0 0 0 0 0 0 0 127 0" result="hardAlpha"/>
<feOffset/>
<feGaussianBlur stdDeviation="1"/>
<feComposite in2="hardAlpha" operator="out"/>
<feColorMatrix type="matrix" values="0 0 0 0 1 0 0 0 0 1 0 0 0 0 1 0 0 0 0.25 0"/>
<feBlend mode="normal" in2="BackgroundImageFix" result="effect1_dropShadow_312_1264"/>
<feBlend mode="normal" in="SourceGraphic" in2="effect1_dropShadow_312_1264" result="shape"/>
</filter>
<filter id="filter10_d_312_1264" x="19.7458" y="16.7951" width="13.7935" height="13.3517" filterUnits="userSpaceOnUse" color-interpolation-filters="sRGB">
<feFlood flood-opacity="0" result="BackgroundImageFix"/>
<feColorMatrix in="SourceAlpha" type="matrix" values="0 0 0 0 0 0 0 0 0 0 0 0 0 0 0 0 0 0 127 0" result="hardAlpha"/>
<feOffset/>
<feGaussianBlur stdDeviation="1"/>
<feComposite in2="hardAlpha" operator="out"/>
<feColorMatrix type="matrix" values="0 0 0 0 1 0 0 0 0 1 0 0 0 0 1 0 0 0 0.25 0"/>
<feBlend mode="normal" in2="BackgroundImageFix" result="effect1_dropShadow_312_1264"/>
<feBlend mode="normal" in="SourceGraphic" in2="effect1_dropShadow_312_1264" result="shape"/>
</filter>
<filter id="filter11_d_312_1264" x="21.8209" y="12.504" width="13.4276" height="12.392" filterUnits="userSpaceOnUse" color-interpolation-filters="sRGB">
<feFlood flood-opacity="0" result="BackgroundImageFix"/>
<feColorMatrix in="SourceAlpha" type="matrix" values="0 0 0 0 0 0 0 0 0 0 0 0 0 0 0 0 0 0 127 0" result="hardAlpha"/>
<feOffset/>
<feGaussianBlur stdDeviation="1"/>
<feComposite in2="hardAlpha" operator="out"/>
<feColorMatrix type="matrix" values="0 0 0 0 1 0 0 0 0 1 0 0 0 0 1 0 0 0 0.25 0"/>
<feBlend mode="normal" in2="BackgroundImageFix" result="effect1_dropShadow_312_1264"/>
<feBlend mode="normal" in="SourceGraphic" in2="effect1_dropShadow_312_1264" result="shape"/>
</filter>
</defs>
</svg>
