<svg width="15" height="15" viewBox="0 0 15 15" fill="none" xmlns="http://www.w3.org/2000/svg">
<g clip-path="url(#clip0_471_3102)">
<path opacity="0.994" fill-rule="evenodd" clip-rule="evenodd" d="M0.542025 -0.0146484C5.17093 -0.0146484 9.79984 -0.0146484 14.4287 -0.0146484C14.9043 0.215971 15.0361 0.577298 14.8243 1.06934C12.9561 3.1159 11.0811 5.15692 9.19925 7.19238C9.12132 7.31877 9.07248 7.4555 9.05277 7.60254C9.04301 9.09668 9.03323 10.5908 9.02347 12.085C9.00393 12.1436 8.98442 12.2021 8.96488 12.2607C8.86462 12.4124 8.75719 12.5589 8.64261 12.7002C8.03599 13.3751 7.44027 14.0587 6.8555 14.751C6.7742 14.8471 6.68142 14.9252 6.57718 14.9854C6.46975 14.9854 6.36235 14.9854 6.25492 14.9854C6.09997 14.9329 5.99743 14.8254 5.9473 14.6631C5.93754 12.3096 5.92776 9.95605 5.918 7.60254C5.88753 7.40496 5.80943 7.22918 5.68363 7.0752C3.83792 5.07325 1.99222 3.07128 0.146517 1.06934C-0.0653234 0.577298 0.0665125 0.215971 0.542025 -0.0146484Z" fill="#231F20"/>
</g>
<defs>
<clipPath id="clip0_471_3102">
<rect width="15" height="15" fill="white"/>
</clipPath>
</defs>
</svg>
