<svg width="26" height="26" viewBox="0 0 26 26" fill="none" xmlns="http://www.w3.org/2000/svg">
<path d="M15.4287 21.125C15.4287 21.7715 15.1721 22.3915 14.7152 22.8486C14.2583 23.3057 13.6387 23.5625 12.9926 23.5625C12.3465 23.5625 11.7269 23.3057 11.27 22.8486C10.8131 22.3915 10.5565 21.7715 10.5565 21.125C10.5565 20.4785 10.8131 19.8586 11.27 19.4014C11.7269 18.9443 12.3465 18.6875 12.9926 18.6875C13.6387 18.6875 14.2583 18.9443 14.7152 19.4014C15.1721 19.8586 15.4287 20.4785 15.4287 21.125ZM15.4287 12.9999C15.4287 13.6464 15.1721 14.2664 14.7152 14.7235C14.2583 15.1807 13.6387 15.4375 12.9926 15.4375C12.3465 15.4375 11.7269 15.1807 11.27 14.7235C10.8131 14.2664 10.5565 13.6464 10.5565 12.9999C10.5565 12.3535 10.8131 11.7335 11.27 11.2764C11.7269 10.8192 12.3465 10.5624 12.9926 10.5624C13.6387 10.5624 14.2583 10.8192 14.7152 11.2764C15.1721 11.7335 15.4287 12.3535 15.4287 12.9999ZM15.4287 4.87488C15.4287 5.52135 15.1721 6.14134 14.7152 6.59847C14.2583 7.05559 13.6387 7.3124 12.9926 7.3124C12.3465 7.3124 11.7269 7.05559 11.27 6.59847C10.8131 6.14134 10.5565 5.52135 10.5565 4.87488C10.5565 4.22841 10.8131 3.60842 11.27 3.15129C11.7269 2.69417 12.3465 2.43736 12.9926 2.43736C13.6387 2.43736 14.2583 2.69417 14.7152 3.15129C15.1721 3.60842 15.4287 4.22841 15.4287 4.87488Z" fill="#007AFE"/>
</svg>
