<svg width="18" height="22" viewBox="0 0 18 22" fill="none" xmlns="http://www.w3.org/2000/svg">
<path d="M13.0348 5.19689V4.89427C13.0348 2.66495 11.2292 0.859308 8.99985 0.859308C6.77053 0.859308 4.96489 2.66495 4.96489 4.89427V9.93796" stroke="white" stroke-width="1.66129" stroke-linecap="round" stroke-linejoin="round"/>
<path d="M6.01414 13.1552C6.75052 13.9723 7.81979 14.4767 9.00001 14.4767C11.2293 14.4767 13.035 12.671 13.035 10.4417V9.93736" stroke="white" stroke-width="1.66129" stroke-linecap="round" stroke-linejoin="round"/>
<path d="M3.73428 15.9397C5.11625 17.2208 6.96224 18.0076 8.9999 18.0076C13.2568 18.0076 16.7168 14.5476 16.7168 10.2908V8.5759" stroke="white" stroke-width="1.66129" stroke-linecap="round" stroke-linejoin="round"/>
<path d="M1.28315 8.5759V10.2908C1.28315 11.36 1.49499 12.3688 1.8884 13.2968" stroke="white" stroke-width="1.66129" stroke-linecap="round" stroke-linejoin="round"/>
<path d="M17.1404 1.70599L0.859308 17.9971" stroke="white" stroke-width="1.66129" stroke-linecap="round" stroke-linejoin="round"/>
<path d="M7.99141 1.86815V4.89437" stroke="white" stroke-width="1.66129" stroke-linecap="round" stroke-linejoin="round"/>
<path d="M9.00025 18.0076V21.0338" stroke="white" stroke-width="1.66129" stroke-linecap="round" stroke-linejoin="round"/>
</svg>
