<svg width="22" height="22" viewBox="0 0 22 22" fill="none" xmlns="http://www.w3.org/2000/svg">
<g opacity="0.5">
<path fill-rule="evenodd" clip-rule="evenodd" d="M10.5418 2.521C6.11205 2.521 2.521 6.11205 2.521 10.5418C2.521 14.9716 6.11205 18.5627 10.5418 18.5627C14.9716 18.5627 18.5627 14.9716 18.5627 10.5418C18.5627 6.11205 14.9716 2.521 10.5418 2.521ZM1.146 10.5418C1.146 5.35265 5.35265 1.146 10.5418 1.146C15.731 1.146 19.9377 5.35265 19.9377 10.5418C19.9377 15.731 15.731 19.9377 10.5418 19.9377C5.35265 19.9377 1.146 15.731 1.146 10.5418Z" fill="#231F20"/>
<path fill-rule="evenodd" clip-rule="evenodd" d="M17.8474 17.8474C18.1158 17.5789 18.5511 17.5789 18.8196 17.8474L20.653 19.6807C20.9215 19.9492 20.9215 20.3845 20.653 20.653C20.3845 20.9215 19.9492 20.9215 19.6807 20.653L17.8474 18.8196C17.5789 18.5511 17.5789 18.1158 17.8474 17.8474Z" fill="#231F20"/>
</g>
</svg>
